<svg xmlns="http://www.w3.org/2000/svg" width="202" height="58" fill="none" viewBox="0 0 202 58"><g clip-path="url(#clip0_894_2886)"><path fill="#fff" d="M19.06 40.08V41.58H0.97V40.08C4.32 39.11 4.41 35.49 4.41 30.99V11.66C4.41 8.57 3.62 6.98 0 5.04V3.54L15.44 0V30.98C15.44 35.83 15.97 39.19 19.06 40.07V40.08ZM43.51 40.08V41.58H25.33V40.08C28.68 39.11 28.86 35.31 28.86 30.81V13.69C28.86 8.75 26.48 6.36 22.51 6.36C21.19 6.36 19.77 7.07 18.63 8.04L17.57 6.63C20.3 3.01 24.36 0 28.77 0C39.1 0 39.89 7.77 39.89 13.86V30.81C39.89 35.66 40.33 39.28 43.51 40.08ZM67.96 40.08V41.58H49.78V40.08C53.13 39.11 53.31 35.31 53.31 30.81V13.69C53.31 8.75 50.84 6.36 46.87 6.36C45.55 6.36 44.13 7.07 42.99 8.04L41.75 6.63C44.39 3.01 48.81 0 53.22 0C60.1 0 64.34 2.74 64.34 13.42V30.81C64.34 35.66 64.78 39.28 67.96 40.08Z"/><path fill="#fff" d="M90.8199 40.7001V42.2901C78.5499 41.5001 71.6699 32.2301 71.6699 21.2001C71.6699 10.1701 78.5599 0.890098 90.8199 0.100098V1.6901C85.9699 2.4001 84.6399 6.9001 84.6399 21.1901C84.6399 35.4801 85.9599 39.9901 90.8199 40.7001ZM94.4399 42.2901V40.7001C99.2899 39.9901 100.62 35.4901 100.62 21.1901C100.62 6.8901 99.2999 2.3901 94.4399 1.6901V0.100098C106.8 0.890098 113.68 10.0701 113.68 21.1901C113.68 32.3101 106.8 41.4901 94.4399 42.2801V42.2901Z"/><path fill="#fff" d="M137.74 42.37H136.06L119.38 5.75005C117.97 2.31005 115.14 2.31005 113.82 2.31005V0.800049H134.65V2.30005C130.06 2.30005 132.36 7.68005 132.36 7.68005L142.6 29.57L137.75 42.37H137.74ZM135.13 46.6C133.72 50.31 131.69 50.75 131.34 49.69C130.9 48.19 129.93 46.78 128.34 46.07C125.25 44.66 121.63 46.07 120.22 49.16C118.9 52.25 120.22 55.87 123.31 57.28C125.43 58.25 128.52 57.7201 130.11 56.4001C131.79 55.0801 134.43 52.61 136.73 46.6H135.14H135.13ZM159.28 0.800049V2.30005C157.43 2.30005 151.57 7.43005 145.93 21.0201L144.87 19.7801C146.02 16.8701 150.63 2.21005 141.99 2.30005V0.800049H159.29H159.28Z"/><path fill="#fff" d="M199.93 35.49L201.43 36.11C200.72 38.93 196.66 42.38 191.1 42.38C191.1 42.38 182.19 42.38 182.19 34.44V20.58C173.54 22.52 170.63 26.67 170.63 31.17C170.63 31.17 170.63 37 176.37 37C177.34 37 178.22 36.91 178.93 36.56L179.99 38.06C177.61 40.27 173.81 42.38 169.49 42.38C169.49 42.38 159.34 42.38 159.34 33.38C159.34 23.76 166.75 22.88 182.2 18.99V13.52C182.2 5.22 177.96 0.719997 172.67 2.31L172.05 0.989997C175.4 -0.160003 178.58 0.0199968 178.58 0.0199968C190.14 0.0199968 193.32 7.26 193.32 17.67V30.82C193.32 30.82 193.23 37 197.56 37C197.56 37 199.41 37 199.94 35.5L199.93 35.49ZM163.39 13.51C162.33 11.83 162.24 9.72 163.12 8.21C163.91 6.89 164.97 4.86 168.77 2.56L169.39 3.97C168.07 5.03 167.98 5.91 168.42 5.91C169.74 6.09 170.89 6.7 171.69 7.85C173.28 10.14 172.66 13.23 170.37 14.82C168.08 16.32 164.99 15.79 163.4 13.5L163.39 13.51Z"/></g><defs><clipPath id="clip0_894_2886"><rect width="201.43" height="57.78" fill="#fff"/></clipPath></defs></svg>