<svg width="42" height="42" viewBox="0 0 42 42" fill="none" xmlns="http://www.w3.org/2000/svg">
<path d="M8.4 27.1H2.1C0.940406 27.1 0 28.0404 0 29.2V35.5C0 36.6596 0.940406 37.6 2.1 37.6H8.4C9.55959 37.6 10.5 36.6596 10.5 35.5V29.2C10.5 28.0404 9.55959 27.1 8.4 27.1ZM6.825 21.85H19.425V25H22.575V21.85H35.175V25H38.325V21.2207C38.325 19.8314 37.1943 18.7 35.8043 18.7H22.575V14.5H25.2C26.3596 14.5 27.3 13.5596 27.3 12.4V6.1C27.3 4.94041 26.3596 4 25.2 4H16.8C15.6404 4 14.7 4.94041 14.7 6.1V12.4C14.7 13.5596 15.6404 14.5 16.8 14.5H19.425V18.7H6.19566C4.80572 18.7 3.675 19.8307 3.675 21.2207V25H6.825V21.85ZM24.15 27.1H17.85C16.6904 27.1 15.75 28.0404 15.75 29.2V35.5C15.75 36.6596 16.6904 37.6 17.85 37.6H24.15C25.3096 37.6 26.25 36.6596 26.25 35.5V29.2C26.25 28.0404 25.3096 27.1 24.15 27.1ZM39.9 27.1H33.6C32.4404 27.1 31.5 28.0404 31.5 29.2V35.5C31.5 36.6596 32.4404 37.6 33.6 37.6H39.9C41.0596 37.6 42 36.6596 42 35.5V29.2C42 28.0404 41.0596 27.1 39.9 27.1Z" fill="#2B6FF6"/>
<path d="M8.4 27.1H2.1C0.940406 27.1 0 28.0404 0 29.2V35.5C0 36.6596 0.940406 37.6 2.1 37.6H8.4C9.55959 37.6 10.5 36.6596 10.5 35.5V29.2C10.5 28.0404 9.55959 27.1 8.4 27.1ZM6.825 21.85H19.425V25H22.575V21.85H35.175V25H38.325V21.2207C38.325 19.8314 37.1943 18.7 35.8043 18.7H22.575V14.5H25.2C26.3596 14.5 27.3 13.5596 27.3 12.4V6.1C27.3 4.94041 26.3596 4 25.2 4H16.8C15.6404 4 14.7 4.94041 14.7 6.1V12.4C14.7 13.5596 15.6404 14.5 16.8 14.5H19.425V18.7H6.19566C4.80572 18.7 3.675 19.8307 3.675 21.2207V25H6.825V21.85ZM24.15 27.1H17.85C16.6904 27.1 15.75 28.0404 15.75 29.2V35.5C15.75 36.6596 16.6904 37.6 17.85 37.6H24.15C25.3096 37.6 26.25 36.6596 26.25 35.5V29.2C26.25 28.0404 25.3096 27.1 24.15 27.1ZM39.9 27.1H33.6C32.4404 27.1 31.5 28.0404 31.5 29.2V35.5C31.5 36.6596 32.4404 37.6 33.6 37.6H39.9C41.0596 37.6 42 36.6596 42 35.5V29.2C42 28.0404 41.0596 27.1 39.9 27.1Z" fill="#2B6FF6"/>
</svg>
