<svg width="62" height="62" viewBox="0 0 62 62" fill="none" xmlns="http://www.w3.org/2000/svg">
<path d="M2.92341 31.7397C4.31346 32.9789 5.70251 34.1505 7.09408 35.2534C8.93066 32.4642 10.9317 29.9066 13.1069 27.5952C12.6962 26.8218 12.4641 25.9383 12.4641 25.0023C12.4641 24.5402 12.5201 24.0916 12.6276 23.6612C10.355 22.1889 8.01641 20.5471 5.58141 18.7176C3.78065 22.4311 2.77254 26.5972 2.77254 30.999H2.7786V31.0005H2.77204C2.77204 31.2992 2.77809 31.5969 2.78717 31.8931L2.92341 31.7397ZM6.92555 16.2624C9.36307 18.101 11.6956 19.7489 13.9581 21.2227C14.9672 20.146 16.4032 19.4734 17.994 19.4734C19.2559 19.4734 20.4184 19.8967 21.3493 20.6086C22.0153 20.1672 22.695 19.7413 23.3862 19.3351C26.2662 17.6418 29.3567 16.2609 32.6751 15.2094C32.6509 14.9894 32.6398 14.7664 32.6398 14.5424C32.6398 13.6977 32.8088 12.8924 33.1166 12.1603C29.7457 9.30404 25.7536 6.77469 21.1586 4.54001C17.3245 5.9679 13.8849 8.20511 11.0453 11.0448C9.4771 12.6114 8.09259 14.3632 6.92555 16.2624ZM25.0281 3.40728C28.6619 5.36294 31.9037 7.51942 34.7413 9.89941C35.6899 9.0679 36.8958 8.52096 38.2227 8.39482C38.5204 6.93716 38.8015 5.45527 39.0684 3.94513C36.5113 3.18275 33.8038 2.77103 31.001 2.77103V2.77708H30.9985V2.77103C28.95 2.77103 26.9535 2.99202 25.0281 3.40728ZM41.7168 4.88361C41.4822 6.19495 41.2365 7.48662 40.9791 8.7576C42.8293 9.45187 44.2583 11.0079 44.7764 12.9374C47.2811 12.7532 49.8861 12.7174 52.5991 12.8364C52.0764 12.2163 51.5294 11.6169 50.9563 11.0432C48.3336 8.42207 45.1998 6.31504 41.7168 4.88361ZM54.747 15.7442C51.2802 15.4844 47.9925 15.4778 44.8768 15.7124C44.6215 17.0455 43.9363 18.2261 42.9731 19.1051C43.7925 20.368 44.5353 21.6768 45.1987 23.033C46.1655 25.0114 46.9617 27.0892 47.5898 29.2663C47.7811 29.2467 47.9753 29.2356 48.1731 29.2356C50.655 29.2356 52.7555 30.8703 53.4548 33.1247C55.2843 33.1888 57.1759 33.2226 59.1397 33.2347C59.1977 32.4965 59.229 31.7523 59.229 31.001H59.2229V30.9995V30.9985H59.229C59.2275 25.3802 57.5821 20.1445 54.747 15.7442ZM58.785 35.9976C56.9963 35.985 55.2662 35.9537 53.5865 35.8982C53.138 38.0527 51.4341 39.7485 49.2741 40.1855C49.3689 42.7673 49.2801 45.4667 49.0006 48.2851C50.5844 48.1181 52.1904 47.888 53.8247 47.5989C56.2884 44.2194 58.019 40.2753 58.785 35.9976ZM55.4186 50.0945L55.4246 50.1232L55.3913 50.1293C54.6239 51.1086 53.7989 52.04 52.919 52.92C47.3139 58.5251 39.5639 61.9929 31.002 61.9939V62H31.001H30.9995V61.9939C22.4377 61.9939 14.6882 58.5251 9.08052 52.9185C3.47489 47.3123 0.00655925 39.5623 0.00555013 31.0005H0V30.999H0.00555013C0.00555013 22.4361 3.47489 14.6867 9.08153 9.08001C14.6882 3.47337 22.4362 0.00555013 30.9985 0.00555013V0H31.001V0.00555013C39.5639 0.00555013 47.3133 3.47388 52.9195 9.08153C58.5261 14.6867 61.9939 22.4362 61.9939 30.9985H62V30.9995V31.001H61.9939C61.9939 38.2056 59.5378 44.8334 55.4186 50.0945ZM51.0809 50.8266C50.2695 50.9346 49.4653 51.0279 48.6666 51.1051C48.5672 51.819 48.4552 52.5401 48.3336 53.2696C49.2549 52.5522 50.1313 51.7802 50.9563 50.9552L51.0809 50.8266ZM45.1175 55.4418C45.4001 54.0366 45.6402 52.6612 45.8385 51.3145C40.7824 51.5774 35.9502 51.2126 31.274 50.2251C30.3597 51.3094 28.9929 52.0012 27.4641 52.0012C27.3505 52.0012 27.2385 51.9966 27.1285 51.9901C26.2461 54.2409 25.3918 56.4307 24.6088 58.4989C26.6623 58.9747 28.8027 59.228 30.999 59.228V59.2219H31.0005H31.0015V59.228C36.1424 59.228 40.964 57.849 45.1175 55.4418ZM21.9397 57.7395C22.7969 55.4609 23.6526 53.2611 24.522 51.04C23.4271 50.2383 22.6718 48.9991 22.5128 47.5793C17.497 45.5918 12.6341 42.8344 7.82619 39.3025C7.05522 40.6012 6.31706 41.9474 5.60967 43.3415C6.99165 46.1766 8.83732 48.7488 11.0448 50.9563C14.0766 53.9871 17.7922 56.3328 21.9397 57.7395ZM4.24131 40.0053C4.68633 39.193 5.14295 38.3968 5.61068 37.6163C4.78825 36.9689 3.96633 36.2984 3.14591 35.6061C3.39466 37.1152 3.76299 38.587 4.24131 40.0053ZM23.0633 22.7924C23.3595 23.4695 23.5245 24.2167 23.5245 25.0028C23.5245 25.5316 23.4493 26.0437 23.3105 26.5281C26.3485 27.9812 29.3345 29.1347 32.3608 30.0454C33.4607 26.7521 34.5178 23.3322 35.5022 19.7544C34.7287 19.262 34.0728 18.603 33.5843 17.8275C30.4334 18.8185 27.5064 20.1217 24.7854 21.7212C24.2031 22.0633 23.6274 22.4215 23.0633 22.7924ZM21.8927 28.9237C20.8932 29.9192 19.5153 30.5338 17.9935 30.5338C16.8825 30.5338 15.8471 30.2053 14.9793 29.6422C12.9257 31.8416 11.0357 34.2796 9.29496 36.9396C13.8032 40.2717 18.3442 42.8884 23.0043 44.7931C23.8227 43.1603 25.5124 42.0387 27.4631 42.0387C27.6507 42.0387 27.8349 42.0493 28.0181 42.07C29.177 39.0416 30.3385 35.9194 31.4657 32.6706C28.2603 31.7018 25.1022 30.4732 21.8927 28.9237ZM40.5498 20.4709C39.9993 20.6308 39.417 20.7166 38.8141 20.7166C38.581 20.7166 38.3499 20.705 38.1233 20.6788C37.1531 24.1915 36.1162 27.5508 35.0375 30.7851C37.6864 31.4546 40.3888 31.9556 43.2088 32.3245C43.619 31.4925 44.2315 30.7795 44.9838 30.2487C44.391 28.1457 43.6301 26.1467 42.7032 24.2495C42.0644 22.9432 41.3459 21.6854 40.5498 20.4709ZM46.4929 40.0351C44.345 39.3514 42.7663 37.3912 42.6497 35.0455C39.7193 34.6555 36.9048 34.1267 34.1429 33.4194C32.9779 36.7807 31.7775 40.0089 30.5797 43.1356C31.716 44.0489 32.4435 45.4505 32.4435 47.0202C32.4435 47.2271 32.4299 47.4304 32.4057 47.6312C36.8236 48.5097 41.3974 48.8063 46.1917 48.5177C46.5076 45.5474 46.606 42.7214 46.4929 40.0351Z" fill="url(#paint0_linear_987_18118)"/>
<defs>
<linearGradient id="paint0_linear_987_18118" x1="31" y1="0" x2="31" y2="62" gradientUnits="userSpaceOnUse">
<stop stop-color="#2B6FF6"/>
<stop offset="1"/>
</linearGradient>
</defs>
</svg>
