<svg width="42" height="42" viewBox="0 0 42 42" fill="none" xmlns="http://www.w3.org/2000/svg">
<rect width="42" height="42" rx="21" fill="#2B6FF6"/>
<path d="M17.5003 24.5007C17.2696 24.5007 17.044 24.5691 16.8522 24.6973C16.6603 24.8255 16.5108 25.0077 16.4225 25.2209C16.3342 25.434 16.3111 25.6686 16.3561 25.8949C16.4011 26.1212 16.5122 26.3291 16.6754 26.4923C16.8385 26.6554 17.0464 26.7666 17.2727 26.8116C17.499 26.8566 17.7336 26.8335 17.9468 26.7452C18.16 26.6569 18.3422 26.5073 18.4704 26.3155C18.5986 26.1236 18.667 25.8981 18.667 25.6673C18.667 25.3579 18.5441 25.0612 18.3253 24.8424C18.1065 24.6236 17.8097 24.5007 17.5003 24.5007ZM9.33366 23.334C9.02424 23.334 8.72749 23.4569 8.5087 23.6757C8.28991 23.8945 8.16699 24.1912 8.16699 24.5007V26.834C8.16699 27.1434 8.28991 27.4402 8.5087 27.6589C8.72749 27.8777 9.02424 28.0007 9.33366 28.0007C9.64308 28.0007 9.93982 27.8777 10.1586 27.6589C10.3774 27.4402 10.5003 27.1434 10.5003 26.834V24.5007C10.5003 24.1912 10.3774 23.8945 10.1586 23.6757C9.93982 23.4569 9.64308 23.334 9.33366 23.334ZM32.667 23.334C32.3576 23.334 32.0608 23.4569 31.842 23.6757C31.6232 23.8945 31.5003 24.1912 31.5003 24.5007V26.834C31.5003 27.1434 31.6232 27.4402 31.842 27.6589C32.0608 27.8777 32.3576 28.0007 32.667 28.0007C32.9764 28.0007 33.2732 27.8777 33.492 27.6589C33.7107 27.4402 33.8337 27.1434 33.8337 26.834V24.5007C33.8337 24.1912 33.7107 23.8945 33.492 23.6757C33.2732 23.4569 32.9764 23.334 32.667 23.334ZM26.8337 15.1673H22.167V13.674C22.5196 13.4704 22.8129 13.178 23.0176 12.826C23.2222 12.474 23.3312 12.0745 23.3337 11.6673C23.3337 11.0485 23.0878 10.455 22.6502 10.0174C22.2127 9.57982 21.6192 9.33398 21.0003 9.33398C20.3815 9.33398 19.788 9.57982 19.3504 10.0174C18.9128 10.455 18.667 11.0485 18.667 11.6673C18.6695 12.0745 18.7784 12.474 18.9831 12.826C19.1878 13.178 19.481 13.4704 19.8337 13.674V15.1673H15.167C14.2387 15.1673 13.3485 15.5361 12.6921 16.1924C12.0357 16.8488 11.667 17.7391 11.667 18.6673V29.1673C11.667 30.0956 12.0357 30.9858 12.6921 31.6422C13.3485 32.2986 14.2387 32.6673 15.167 32.6673H26.8337C27.7619 32.6673 28.6522 32.2986 29.3085 31.6422C29.9649 30.9858 30.3337 30.0956 30.3337 29.1673V18.6673C30.3337 17.7391 29.9649 16.8488 29.3085 16.1924C28.6522 15.5361 27.7619 15.1673 26.8337 15.1673ZM23.007 17.5007L22.4237 19.834H19.577L18.9937 17.5007H23.007ZM28.0003 29.1673C28.0003 29.4767 27.8774 29.7735 27.6586 29.9923C27.4398 30.2111 27.1431 30.334 26.8337 30.334H15.167C14.8576 30.334 14.5608 30.2111 14.342 29.9923C14.1232 29.7735 14.0003 29.4767 14.0003 29.1673V18.6673C14.0003 18.3579 14.1232 18.0612 14.342 17.8424C14.5608 17.6236 14.8576 17.5007 15.167 17.5007H16.5903L17.5003 21.2807C17.5642 21.5395 17.7148 21.7687 17.9271 21.93C18.1394 22.0913 18.4005 22.1751 18.667 22.1673H23.3337C23.6002 22.1751 23.8613 22.0913 24.0736 21.93C24.2858 21.7687 24.4365 21.5395 24.5003 21.2807L25.4103 17.5007H26.8337C27.1431 17.5007 27.4398 17.6236 27.6586 17.8424C27.8774 18.0612 28.0003 18.3579 28.0003 18.6673V29.1673ZM24.5003 24.5007C24.2696 24.5007 24.044 24.5691 23.8522 24.6973C23.6603 24.8255 23.5108 25.0077 23.4225 25.2209C23.3342 25.434 23.3111 25.6686 23.3561 25.8949C23.4011 26.1212 23.5122 26.3291 23.6754 26.4923C23.8385 26.6554 24.0464 26.7666 24.2727 26.8116C24.499 26.8566 24.7336 26.8335 24.9468 26.7452C25.16 26.6569 25.3422 26.5073 25.4704 26.3155C25.5986 26.1236 25.667 25.8981 25.667 25.6673C25.667 25.3579 25.5441 25.0612 25.3253 24.8424C25.1065 24.6236 24.8097 24.5007 24.5003 24.5007Z" fill="white"/>
</svg>
