<svg width="52" height="52" viewBox="0 0 52 52" fill="none" xmlns="http://www.w3.org/2000/svg">
<rect width="52" height="52" rx="26" fill="#2B6FF6"/>
<path d="M37.0006 32.2505C36.1696 32.2525 35.4026 32.5275 34.7856 32.9895L34.7956 32.9825L31.4966 29.9845C32.3166 28.8875 32.8096 27.5055 32.8096 26.0075C32.8096 24.3935 32.2376 22.9135 31.2846 21.7585L31.2936 21.7695L34.9376 18.1265C35.5216 18.5175 36.2396 18.7505 37.0116 18.7505C39.0886 18.7505 40.7716 17.0675 40.7716 14.9905C40.7716 12.9135 39.0886 11.2305 37.0116 11.2305C34.9346 11.2305 33.2516 12.9135 33.2516 14.9905C33.2516 15.7635 33.4846 16.4815 33.8846 17.0785L33.8756 17.0645L30.2326 20.7075C29.0876 19.7635 27.6056 19.1905 25.9886 19.1905C25.0516 19.1905 24.1606 19.3825 23.3506 19.7305L23.3946 19.7135L22.3626 17.8395C23.1536 17.1515 23.6506 16.1445 23.6506 15.0205C23.6506 12.9605 21.9806 11.2915 19.9216 11.2915C17.8626 11.2915 16.1926 12.9615 16.1926 15.0205C16.1926 17.0805 17.8626 18.7495 19.9216 18.7495C19.9286 18.7495 19.9366 18.7495 19.9436 18.7495C20.3416 18.7435 20.7206 18.6765 21.0756 18.5555L21.0496 18.5635L22.0866 20.4465C20.3296 21.6895 19.1966 23.7115 19.1926 25.9995V26.0005C19.2026 26.6975 19.3176 27.3645 19.5226 27.9905L19.5096 27.9435L18.0866 28.5465C17.4056 27.5755 16.2916 26.9495 15.0306 26.9495C12.9746 26.9495 11.3086 28.6155 11.3086 30.6715C11.3086 32.7275 12.9746 34.3935 15.0306 34.3935C17.0866 34.3935 18.7526 32.7275 18.7526 30.6715C18.7526 30.4075 18.7256 30.1505 18.6736 29.9025L18.6776 29.9265L20.0966 29.3245C21.2636 31.4175 23.4636 32.8095 25.9886 32.8095C27.7186 32.8095 29.2966 32.1555 30.4886 31.0815L30.4826 31.0865L33.7916 34.0935C33.4566 34.6375 33.2566 35.2945 33.2526 35.9995C33.2526 38.0705 34.9316 39.7505 37.0026 39.7505C39.0736 39.7505 40.7526 38.0715 40.7526 36.0005C40.7526 33.9295 39.0736 32.2505 37.0026 32.2505H37.0006ZM17.6906 15.0005C17.6906 13.7575 18.6976 12.7505 19.9406 12.7505C21.1836 12.7505 22.1906 13.7575 22.1906 15.0005C22.1906 16.2435 21.1836 17.2505 19.9406 17.2505C18.6986 17.2485 17.6926 16.2425 17.6906 15.0005ZM15.0006 32.9205C13.7586 32.9195 12.7526 31.9135 12.7526 30.6715C12.7526 29.4295 13.7596 28.4225 15.0016 28.4225C16.2436 28.4225 17.2496 29.4285 17.2506 30.6705C17.2486 31.9125 16.2426 32.9185 15.0006 32.9205ZM37.0006 12.7505C38.2436 12.7505 39.2506 13.7575 39.2506 15.0005C39.2506 16.2435 38.2436 17.2505 37.0006 17.2505C35.7576 17.2505 34.7506 16.2435 34.7506 15.0005C34.7526 13.7585 35.7586 12.7525 37.0006 12.7505ZM20.6906 26.0005C20.6906 26.0005 20.6906 26.0005 20.6906 25.9995C20.6906 23.0675 23.0676 20.6905 25.9996 20.6905C28.9316 20.6905 31.3086 23.0675 31.3086 25.9995C31.3086 28.9315 28.9316 31.3085 25.9996 31.3085C23.0686 31.3055 20.6946 28.9305 20.6906 26.0005ZM37.0006 38.2505C35.7576 38.2505 34.7506 37.2435 34.7506 36.0005C34.7506 34.7575 35.7576 33.7505 37.0006 33.7505C38.2436 33.7505 39.2506 34.7575 39.2506 36.0005C39.2486 37.2425 38.2426 38.2485 37.0006 38.2505Z" fill="white"/>
</svg>
