<svg width="42" height="42" viewBox="0 0 42 42" fill="none" xmlns="http://www.w3.org/2000/svg">
<path d="M40.25 6.66667H32.6667V3.75C32.6667 2.78021 31.8865 2 30.9167 2H11.0833C10.1135 2 9.33333 2.78021 9.33333 3.75V6.66667H1.75C0.780208 6.66667 0 7.44687 0 8.41667V12.5C0 15.1031 1.64062 17.7792 4.51354 19.8427C6.81042 21.4979 9.60312 22.5479 12.5344 22.8833C14.824 26.6823 17.5 28.25 17.5 28.25V33.5H14C11.426 33.5 9.33333 35.0094 9.33333 37.5833V38.4583C9.33333 38.9396 9.72708 39.3333 10.2083 39.3333H31.7917C32.2729 39.3333 32.6667 38.9396 32.6667 38.4583V37.5833C32.6667 35.0094 30.574 33.5 28 33.5H24.5V28.25C24.5 28.25 27.176 26.6823 29.4656 22.8833C32.4042 22.5479 35.1969 21.4979 37.4865 19.8427C40.3521 17.7792 42 15.1031 42 12.5V8.41667C42 7.44687 41.2198 6.66667 40.25 6.66667ZM7.24062 16.0583C5.46146 14.775 4.66667 13.3458 4.66667 12.5V11.3333H9.34792C9.42083 13.7104 9.77083 15.7958 10.2812 17.6187C9.18021 17.2396 8.15208 16.7146 7.24062 16.0583ZM37.3333 12.5C37.3333 13.674 36.0427 15.1323 34.7594 16.0583C33.8479 16.7146 32.8125 17.2396 31.7115 17.6187C32.2219 15.7958 32.5719 13.7104 32.6448 11.3333H37.3333V12.5Z" fill="#2B6FF6"/>
</svg>
