<svg width="62" height="62" viewBox="0 0 62 62" fill="none" xmlns="http://www.w3.org/2000/svg">
<path d="M43.5714 20.0023C43.1879 20.1877 42.8095 20.3881 42.431 20.6086C41.2957 21.27 40.1755 22.0767 39.0301 23.0036L36.593 20.2278C37.4356 19.4512 38.3489 18.7447 39.3177 18.1184C40.0898 17.6173 40.8971 17.1714 41.7297 16.7906C42.0627 16.6252 42.3957 16.4699 42.7388 16.3246C41.1292 13.4937 38.8131 11.4644 36.1893 10.2118C33.5654 8.96414 30.6288 8.48313 27.7677 8.75871C24.9269 9.02928 22.1668 10.0564 19.8861 11.8151C17.2522 13.8444 15.2439 16.8808 14.4719 20.9042L14.2347 22.1619L12.9733 22.3823C11.737 22.5978 10.637 22.8934 9.66317 23.2692C8.72464 23.6299 7.88703 24.0759 7.15538 24.602C6.57006 25.0229 6.06547 25.4938 5.63657 26.0049C4.30446 27.5832 3.68887 29.5624 3.704 31.5616C3.71914 33.5959 4.3852 35.6502 5.61639 37.3437C6.07052 37.97 6.60538 38.5463 7.21088 39.0473C7.82648 39.5534 8.51776 39.9743 9.29482 40.2899C9.92556 40.5455 10.6118 40.7459 11.3586 40.8812V44.604C10.0921 44.4286 8.93657 44.123 7.88703 43.6921C6.74162 43.2211 5.7274 42.6148 4.83428 41.8732C3.98657 41.1718 3.24483 40.3751 2.6141 39.5083C0.928776 37.1984 0.0205197 34.3825 0.000336225 31.5766C-0.0198472 28.7407 0.868225 25.9197 2.78566 23.6349C3.4063 22.8934 4.13795 22.212 4.97556 21.6107C5.94941 20.9092 7.06455 20.318 8.32097 19.832C9.18886 19.4963 10.1173 19.2157 11.0962 18.9902C12.2063 14.616 14.5728 11.2389 17.6155 8.89399C20.4613 6.70439 23.8875 5.42671 27.4145 5.09101C30.9265 4.7553 34.5393 5.34654 37.7838 6.89479C41.326 8.58334 44.4141 11.3942 46.4173 15.3475C47.2246 15.2223 48.0319 15.1622 48.8342 15.1672C52.2251 15.1872 55.4897 16.3947 58.0682 19.1505C58.6081 19.7267 59.1177 20.3781 59.592 21.1046C61.2067 23.5698 62.0342 26.8617 61.9989 30.0835C61.9636 33.2451 61.1058 36.3917 59.3498 38.7066C58.2095 40.2198 56.7361 41.4473 54.9751 42.4244C53.2796 43.3664 51.3017 44.0829 49.0815 44.594L48.6677 44.6441H47.0127V40.9513H48.4709C50.2521 40.5254 51.8264 39.9492 53.1636 39.2076C54.4907 38.4711 55.5755 37.5742 56.3879 36.497C57.6494 34.8284 58.27 32.4685 58.2952 30.0484C58.3255 27.5081 57.6998 24.9627 56.4838 23.1038C56.1356 22.5677 55.7521 22.0867 55.3485 21.6558C53.5269 19.7067 51.2159 18.8549 48.8141 18.8399C47.0783 18.8399 45.2769 19.2507 43.5714 20.0023ZM42.1131 33.4606C42.0778 33.4606 42.0476 33.4656 42.0122 33.4656H18.1453C18.11 33.4656 18.0746 33.4656 18.0444 33.4606C17.9333 33.4806 17.8274 33.5357 17.7517 33.6159C17.6508 33.7161 17.5852 33.8564 17.5852 34.0067V40.6256C17.5852 40.7759 17.6508 40.9162 17.7517 41.0164C17.8526 41.1167 17.9939 41.1818 18.1453 41.1818H42.0072C42.1586 41.1818 42.2998 41.1167 42.4008 41.0164C42.5017 40.9162 42.5673 40.7759 42.5673 40.6256V34.0067C42.5673 33.8564 42.5017 33.7161 42.4008 33.6159C42.3251 33.5357 42.2242 33.4806 42.1131 33.4606ZM39.1563 52.3553V57H35.9572V52.3553H39.1563ZM24.2054 52.3553V57H21.0063V52.3553H24.2054ZM37.9402 35.8205C38.8586 35.8205 39.6053 36.5621 39.6053 37.474C39.6053 38.3859 38.8586 39.1275 37.9402 39.1275C37.0219 39.1275 36.2751 38.3859 36.2751 37.474C36.2751 36.5621 37.0168 35.8205 37.9402 35.8205ZM42.1131 42.9655C42.0778 42.9655 42.0476 42.9705 42.0122 42.9705H18.1453C18.11 42.9705 18.0746 42.9705 18.0444 42.9655C17.9333 42.9856 17.8274 43.0407 17.7517 43.1209C17.6508 43.2211 17.5852 43.3614 17.5852 43.5117V50.1306C17.5852 50.2809 17.6508 50.4212 17.7517 50.5214C17.8526 50.6216 17.9939 50.6867 18.1453 50.6867H42.0072C42.1586 50.6867 42.2998 50.6216 42.4008 50.5214C42.5017 50.4212 42.5673 50.2809 42.5673 50.1306V43.5117C42.5673 43.3614 42.5017 43.2211 42.4008 43.1209C42.3251 43.0407 42.2242 42.9856 42.1131 42.9655ZM19.9618 45.0198H21.3645V48.6224H19.9618V45.0198ZM23.837 45.0198H25.2398V48.6224H23.837V45.0198ZM27.7173 45.0198H29.12V48.6224H27.7173V45.0198ZM19.9618 35.5149H21.3645V39.1175H19.9618V35.5149ZM23.837 35.5149H25.2398V39.1175H23.837V35.5149ZM27.7173 35.5149H29.12V39.1175H27.7173V35.5149Z" fill="url(#paint0_linear_994_18211)"/>
<defs>
<linearGradient id="paint0_linear_994_18211" x1="31" y1="5" x2="31" y2="57" gradientUnits="userSpaceOnUse">
<stop offset="0.245" stop-color="#2B6FF6"/>
<stop offset="1"/>
</linearGradient>
</defs>
</svg>
