<svg width="42" height="42" viewBox="0 0 42 42" fill="none" xmlns="http://www.w3.org/2000/svg">
<path d="M37.4898 28.2538C35.4349 29.9215 33.1724 31.3037 30.7188 32.2775L35.1798 40.0041L39.6055 41.8942C40.4102 42.2379 41.3191 41.7129 41.4241 40.8442L42 36.0657L37.4898 28.2538ZM40.9754 20.4967C41.3741 19.8675 41.1305 19.021 40.4791 18.66L38.1764 17.3828C37.5628 17.0423 36.8139 17.263 36.4324 17.852C33.0601 23.0635 27.2554 26.2505 21.0004 26.2505C19.0374 26.2505 17.126 25.9019 15.3065 25.3047L20.8322 15.7331C20.8897 15.7347 20.9422 15.7503 20.9996 15.7503C21.057 15.7503 21.1103 15.7347 21.1669 15.7331L25.358 22.993C27.9199 22.258 30.2439 20.8806 32.1347 18.9799L27.8862 11.6208C28.4974 10.5027 28.8756 9.23936 28.8756 7.87515C28.8756 3.52577 25.3498 0 21.0004 0C16.651 0 13.1253 3.52577 13.1253 7.87515C13.1253 9.23936 13.5034 10.5027 14.1138 11.6208L8.51091 21.3261C7.4814 20.3737 6.5454 19.3089 5.74804 18.1268C5.3551 17.5444 4.60204 17.3376 3.99418 17.6896L1.71777 19.0078C1.07381 19.3803 0.845759 20.2301 1.2551 20.8511C2.53235 22.7904 4.10082 24.4778 5.8473 25.9388L0 36.0666L0.575871 40.845C0.680873 41.7137 1.5898 42.2387 2.39454 41.895L6.82021 40.005L12.6281 29.9453C15.2688 30.9494 18.0981 31.5006 21.0004 31.5006C29.1258 31.5006 36.6588 27.3161 40.9754 20.4967ZM21.0004 5.2501C22.4499 5.2501 23.6255 6.42563 23.6255 7.87515C23.6255 9.32467 22.4499 10.5002 21.0004 10.5002C19.5509 10.5002 18.3754 9.32467 18.3754 7.87515C18.3754 6.42563 19.5509 5.2501 21.0004 5.2501Z" fill="#2B6FF6"/>
</svg>
