<svg width="42" height="42" viewBox="0 0 42 42" fill="none" xmlns="http://www.w3.org/2000/svg">
<rect width="42" height="42" rx="21" fill="#2B6FF6"/>
<path d="M27.6213 16.322C28.355 15.6492 28.7914 14.7406 28.8495 13.7608C28.9145 12.6374 28.4644 11.5516 27.6168 10.7821C27.1428 10.3509 26.4045 10.385 25.9693 10.8623C25.5364 11.3391 25.5717 12.0774 26.0491 12.5104C26.3773 12.8077 26.5447 13.2048 26.5208 13.6258C26.4991 13.9938 26.3294 14.3407 26.0446 14.6016C25.5695 15.0368 25.5375 15.7746 25.9728 16.2496C26.2029 16.5009 26.5173 16.6285 26.8329 16.6285C27.1143 16.6285 27.3969 16.5271 27.6213 16.322ZM29.5433 17.3975C29.7735 17.6477 30.0879 17.7746 30.4023 17.7746C30.6849 17.7746 30.9674 17.6726 31.1919 17.4669C32.2344 16.5088 32.853 15.2219 32.9328 13.8387C33.0194 12.2619 32.3837 10.7312 31.1897 9.63977C30.7157 9.20507 29.9764 9.23762 29.5411 9.71327C29.107 10.1889 29.14 10.9266 29.6152 11.3613C30.2908 11.9794 30.6508 12.8362 30.6041 13.7077C30.5585 14.4779 30.2065 15.203 29.6129 15.7488C29.1389 16.1848 29.107 16.923 29.5433 17.3975ZM16.0298 10.8624C15.5968 10.385 14.8586 10.3509 14.3823 10.7821C13.5348 11.5517 13.0847 12.6374 13.1496 13.7637C13.2077 14.7407 13.6441 15.6493 14.3778 16.3221C14.6023 16.5271 14.8848 16.6285 15.1662 16.6285C15.4818 16.6285 15.7962 16.5008 16.0264 16.2496C16.4616 15.7746 16.4297 15.0368 15.9547 14.6016C15.6699 14.3407 15.5001 13.9938 15.4784 13.628C15.4545 13.2048 15.6219 12.8077 15.9501 12.5104C16.4275 12.0775 16.4627 11.3393 16.0298 10.8624ZM11.5967 17.7747C11.9111 17.7747 12.2256 17.6477 12.4557 17.3976C12.892 16.9232 12.8602 16.1848 12.3862 15.749C11.7927 15.2033 11.4406 14.4781 11.3951 13.7124C11.3484 12.8362 11.7085 11.9794 12.3841 11.3614C12.8591 10.9267 12.8922 10.189 12.4582 9.71339C12.023 9.23774 11.2836 9.20531 10.8095 9.63989C9.61558 10.7313 8.97975 12.2621 9.06643 13.8434C9.14623 15.2219 9.7648 16.5089 10.8073 17.4671C11.0317 17.6727 11.3141 17.7747 11.5967 17.7747ZM26.8072 31.3736C26.8024 31.33 26.8142 31.2882 26.8044 31.2443L23.4751 16.47C24.1193 15.8186 24.4996 14.9317 24.4996 14.0007C24.4996 12.3856 23.3614 10.9552 21.8358 10.61C21.2843 10.463 20.6737 10.4732 20.2044 10.5997C18.6378 10.9552 17.4996 12.3856 17.4996 14.0007C17.4996 14.928 17.8758 15.8126 18.5242 16.4684L15.1947 31.2442C15.1848 31.2882 15.1966 31.3299 15.1919 31.3736C15.1869 31.4174 15.1662 31.4556 15.1662 31.5007C15.1662 31.5367 15.1836 31.5673 15.1868 31.6025C15.194 31.6827 15.2101 31.7566 15.2331 31.8323C15.2547 31.9039 15.2781 31.9706 15.3123 32.0357C15.3469 32.1016 15.3882 32.1591 15.4347 32.2175C15.4819 32.2767 15.5296 32.3305 15.5874 32.3795C15.6426 32.4265 15.7021 32.4635 15.7661 32.5C15.8354 32.5395 15.9046 32.5718 15.9817 32.5966C16.0154 32.6075 16.0412 32.631 16.0763 32.639C16.1621 32.6581 16.2468 32.667 16.3314 32.6672L16.3329 32.6673H25.6662L25.6676 32.6671C25.7522 32.667 25.8369 32.658 25.9227 32.6389C25.9579 32.6309 25.9836 32.6074 26.0173 32.5965C26.0945 32.5718 26.1637 32.5393 26.2331 32.4999C26.2972 32.4634 26.3564 32.4265 26.4116 32.3795C26.4695 32.3304 26.5172 32.2767 26.5644 32.2173C26.6109 32.1591 26.6522 32.1017 26.6867 32.0359C26.721 31.9708 26.7446 31.9039 26.7662 31.8321C26.7891 31.7565 26.8051 31.6825 26.8124 31.6026C26.8155 31.5673 26.8329 31.5368 26.8329 31.5007C26.8329 31.4556 26.8122 31.4174 26.8072 31.3736ZM20.7626 12.8648C20.8435 12.8437 20.9164 12.834 20.9996 12.834C21.0827 12.834 21.1557 12.8437 21.2776 12.8751C21.7925 12.9918 22.1662 13.4652 22.1662 14.0007C22.1662 14.4131 21.9429 14.8016 21.6023 15.0039C21.2195 15.2215 20.7591 15.2096 20.4174 15.0159C20.0562 14.8016 19.8329 14.4131 19.8329 14.0007C19.8329 13.4652 20.2066 12.9918 20.7626 12.8648ZM22.1042 21.0007H19.8948L20.6925 17.4608C20.7959 17.4699 20.8946 17.5007 20.9996 17.5007C21.1042 17.5007 21.2034 17.4695 21.3065 17.4604L22.1042 21.0007ZM19.3691 23.334H22.63L23.1558 25.6673H18.8433L19.3691 23.334ZM17.7917 30.334L18.3175 28.0007H23.6816L24.2074 30.334H17.7917Z" fill="white"/>
</svg>
