<svg width="62" height="62" viewBox="0 0 62 62" fill="none" xmlns="http://www.w3.org/2000/svg">
<path fill-rule="evenodd" clip-rule="evenodd" d="M20.3107 6.95765e-06H41.6792C42.6406 -0.00132021 43.5927 0.187495 44.4812 0.555645C45.3696 0.923794 46.177 1.46405 46.857 2.14548C47.537 2.82691 48.0763 3.63615 48.444 4.52685C48.8117 5.41756 49.0007 6.37225 49 7.33627V54.6637C49.0007 55.6278 48.8117 56.5824 48.444 57.4732C48.0763 58.3639 47.537 59.1731 46.857 59.8545C46.177 60.536 45.3696 61.0762 44.4812 61.4444C43.5927 61.8125 42.6406 62.0013 41.6792 62H20.3107C18.3713 61.9987 16.5118 61.2251 15.1409 59.8495C13.7701 58.4738 13 56.6086 13 54.6637V7.32618C12.9993 6.36348 13.188 5.4101 13.5552 4.52062C13.9225 3.63114 14.461 2.82302 15.1401 2.14253C15.8191 1.46203 16.6254 0.922519 17.5126 0.554877C18.3999 0.187234 19.3507 -0.00132022 20.3107 6.95765e-06ZM37.8755 27.3319C38.0901 27.5418 38.2253 27.8201 38.2579 28.119C38.2779 28.2873 38.2642 28.4579 38.2175 28.6208C38.1709 28.7837 38.0922 28.9356 37.9862 29.0675C37.7714 29.3319 37.4614 29.5008 37.1233 29.5377C36.7852 29.5745 36.4463 29.4763 36.1799 29.2643C35.4112 28.6327 34.551 28.1223 33.6289 27.7507C31.9668 27.0679 30.1036 27.0679 28.4415 27.7507C27.5291 28.1201 26.6802 28.6309 25.9258 29.2643L25.8906 29.2946C25.6327 29.4893 25.3111 29.5794 24.9899 29.5469C24.8228 29.5312 24.6606 29.4821 24.5128 29.4023C24.365 29.3226 24.2347 29.2139 24.1296 29.0827L24.0692 29.0373C23.8737 28.7792 23.7821 28.4568 23.8126 28.1341C23.8285 27.9666 23.8776 27.804 23.9571 27.6558C24.0366 27.5076 24.1448 27.3769 24.2755 27.2713C25.2689 26.4435 26.3884 25.7808 27.5912 25.3086C28.6917 24.8721 29.8644 24.6479 31.0478 24.6476C32.2397 24.654 33.4202 24.8815 34.5296 25.3187C35.7163 25.7895 36.8242 26.4395 37.8151 27.2461C37.8379 27.2654 37.8581 27.2874 37.8755 27.3117V27.3319ZM42.1824 22.584C42.4295 22.8115 42.5791 23.1262 42.6 23.4619C42.6107 23.6316 42.5873 23.8016 42.5311 23.962C42.4749 24.1223 42.3871 24.2697 42.273 24.3953C42.045 24.6488 41.7271 24.8027 41.3874 24.8242C41.2177 24.8375 41.047 24.8158 40.8861 24.7602C40.7251 24.7047 40.5772 24.6165 40.4516 24.5013C39.0517 23.2328 37.4583 22.1972 35.7321 21.4336C34.2365 20.7648 32.6126 20.434 30.9754 20.4645C29.3381 20.495 27.7276 20.8861 26.2579 21.6102C24.5515 22.4533 22.9878 23.56 21.6239 24.8898C21.5025 25.0052 21.3595 25.0954 21.2032 25.1551C21.0469 25.2149 20.8804 25.243 20.7132 25.238C20.3731 25.2307 20.0495 25.0893 19.8126 24.8444H19.7874C19.5607 24.5997 19.4395 24.2751 19.4503 23.9412C19.4618 23.6015 19.6043 23.2796 19.8478 23.0431L19.873 23.0179C21.4515 21.4853 23.2659 20.2177 25.2465 19.264C27.0194 18.4103 28.9548 17.9491 30.9211 17.9116C32.8875 17.8742 34.8388 18.2614 36.6428 19.047C38.6151 19.8993 40.4366 21.0665 42.0365 22.5033C42.0827 22.5199 42.1241 22.5476 42.1572 22.584H42.1824ZM26.8063 41.9388C26.3384 41.9388 25.8 41.9136 25.2667 41.8581L23.6214 41.6916V39.7642H26.917C27.106 39.7819 27.2955 39.7357 27.4553 39.633C27.5503 39.5539 27.613 39.4426 27.6314 39.3201C27.6457 39.2181 27.6541 39.1154 27.6566 39.0124V38.6239C27.6693 38.4472 27.6271 38.271 27.5358 38.1193C27.4804 38.054 27.4092 38.004 27.3291 37.974C27.249 37.944 27.1626 37.935 27.078 37.9478H26.5296C26.3784 37.9335 26.2271 37.9727 26.1019 38.0588C26.0556 38.0993 26.0179 38.1488 25.9911 38.2043C25.9643 38.2598 25.949 38.3201 25.9459 38.3817H23.6465L23.9082 32.554H29.6893V34.7287H25.9811L25.9208 36.1414C26.0682 36.0316 26.2416 35.9621 26.4239 35.9396C26.6238 35.9095 26.8256 35.8943 27.0277 35.8942H27.9736C28.3896 35.8782 28.8015 35.9814 29.161 36.1919C29.4645 36.3907 29.7026 36.6751 29.8453 37.0093C30.0013 37.3723 30.0785 37.7644 30.0717 38.1597V39.522C30.0933 40.0083 29.9688 40.4899 29.7145 40.9045C29.4522 41.279 29.0707 41.553 28.6327 41.6815C28.0389 41.8589 27.4207 41.9407 26.8013 41.9237L26.8063 41.9388ZM33.8503 41.9388C33.3563 41.9588 32.8675 41.8305 32.4465 41.5705C32.0803 41.3169 31.7898 40.968 31.6063 40.5614C31.3919 40.0807 31.2511 39.5704 31.1887 39.0477C31.1059 38.4475 31.0655 37.8422 31.0679 37.2363C31.0639 36.5826 31.1127 35.9296 31.2138 35.2837C31.2836 34.7515 31.4544 34.2377 31.717 33.77C31.9834 33.3384 32.3748 32.9987 32.839 32.7962C33.423 32.5513 34.0529 32.436 34.6855 32.4582C35.1887 32.4582 35.6013 32.4582 35.9535 32.5137C36.2917 32.5502 36.6277 32.6058 36.9597 32.6802C37.2667 32.7508 37.5887 32.8315 37.9208 32.9224V34.8145C37.7396 34.7791 37.5031 34.7489 37.2214 34.7236C36.9396 34.6984 36.6226 34.6782 36.2755 34.6631C35.9283 34.6479 35.556 34.6631 35.1635 34.6631C34.7933 34.6372 34.423 34.7121 34.0918 34.88C33.965 34.9701 33.8583 35.0858 33.7786 35.2196C33.6989 35.3534 33.6479 35.5024 33.6289 35.6571C33.5411 36.1787 33.5024 36.7074 33.5132 37.2363C33.5096 37.6561 33.5315 38.0756 33.5786 38.4927C33.6017 38.7521 33.6716 39.0051 33.7849 39.2394C33.8652 39.397 33.994 39.5244 34.1522 39.6027C34.3232 39.6715 34.5064 39.7041 34.6906 39.6986C34.9645 39.6994 35.2382 39.6859 35.5107 39.6582C35.7522 39.6279 35.9384 39.6027 36.0591 39.5775V38.3716H34.761V36.4442C34.9421 36.4442 35.1635 36.3988 35.4151 36.3836L36.205 36.3281H36.9447H37.7396H38.3685V41.8783H36.5472L36.2201 41.2677C35.9244 41.4466 35.6107 41.5938 35.2843 41.7067C34.8275 41.87 34.3453 41.9503 33.8604 41.9438L33.8503 41.9388ZM14.9723 51.813H47.0226V7.99724H14.9723V51.813ZM30.9925 54.1087C31.5895 54.1087 32.1732 54.2863 32.6696 54.6189C33.1661 54.9516 33.553 55.4244 33.7815 55.9776C34.01 56.5307 34.0698 57.1394 33.9533 57.7267C33.8368 58.3139 33.5493 58.8533 33.1271 59.2767C32.7049 59.7001 32.167 59.9884 31.5814 60.1052C30.9958 60.222 30.3888 60.1621 29.8372 59.933C29.2856 59.7038 28.8141 59.3158 28.4824 58.818C28.1506 58.3201 27.9736 57.7348 27.9736 57.1361C27.9736 56.3332 28.2916 55.5631 28.8578 54.9954C29.4239 54.4277 30.1918 54.1087 30.9925 54.1087Z" fill="url(#paint0_linear_990_18137)"/>
<defs>
<linearGradient id="paint0_linear_990_18137" x1="31" y1="0" x2="31" y2="62" gradientUnits="userSpaceOnUse">
<stop stop-color="#2B6FF6"/>
<stop offset="1"/>
</linearGradient>
</defs>
</svg>
