<svg width="62" height="62" viewBox="0 0 62 62" fill="none" xmlns="http://www.w3.org/2000/svg">
<path d="M10.6419 51.7981C11.1162 52.3657 11.0607 53.2019 10.4956 53.6783C9.93053 54.1547 9.09804 54.0989 8.62378 53.5313C2.88719 46.8011 -0.0693987 39.1789 0.00123651 31.4655C0.0769171 23.9345 2.99819 16.363 9.00723 9.45536C9.48149 8.90802 10.314 8.85227 10.8791 9.32866C11.424 9.80505 11.4795 10.6413 11.0052 11.2089C5.43006 17.6046 2.70556 24.5883 2.6551 31.4807C2.5996 38.5555 5.3241 45.5594 10.6419 51.7981ZM17.5743 45.3212C18.0637 45.8686 18.0082 46.7048 17.4633 47.2015C16.9184 47.693 16.0859 47.6373 15.5914 47.09C11.1818 42.0778 8.91136 36.7665 9.00218 31.3894C9.093 26.1543 11.3987 20.9039 16.101 15.8917C16.6106 15.3646 17.4431 15.324 17.9728 15.8359C18.5026 16.3478 18.5379 17.184 18.0283 17.7161C13.8003 22.2367 11.7115 26.8688 11.6359 31.43C11.5652 36.1331 13.5985 40.8412 17.5541 45.3415L17.5743 45.3212ZM23.7094 39.1586C24.1635 39.7262 24.0929 40.5624 23.5076 41.0186C22.9425 41.4747 22.1101 41.4037 21.656 40.8158C19.2796 37.8815 18.0435 34.6887 18.0233 31.4452C18.0031 28.2929 19.1837 25.1153 21.6005 22.1455C22.0546 21.5779 22.887 21.4867 23.4521 21.9428C24.0172 22.3989 24.108 23.2351 23.6539 23.8027C21.6408 26.281 20.657 28.8909 20.657 31.4249C20.657 34.0349 21.7115 36.6601 23.6893 39.1181L23.7094 39.1586ZM53.3762 53.5263C52.902 54.0939 52.0695 54.1445 51.5044 53.6732C50.9393 53.1968 50.8889 52.3606 51.3581 51.793C56.6759 45.5544 59.4206 38.5353 59.3449 31.4807C59.2894 24.5883 56.5649 17.6046 50.9948 11.2038C50.5205 10.6565 50.576 9.82025 51.1209 9.32359C51.6658 8.84721 52.4983 8.90295 52.9928 9.45029C59.0018 16.363 61.9231 23.9294 61.9988 31.4604C62.0694 39.1789 59.1128 46.8011 53.3762 53.5263ZM46.4237 47.0748C45.9343 47.6221 45.0968 47.6778 44.5519 47.1862C44.007 46.6947 43.9515 45.8534 44.4409 45.306C48.4166 40.8006 50.4297 36.0976 50.3591 31.3945C50.2885 26.8131 48.1997 22.181 43.9717 17.6806C43.4621 17.1536 43.4974 16.3123 44.0271 15.8004C44.5519 15.2886 45.3894 15.324 45.899 15.8562C50.6013 20.8684 52.907 26.1036 52.9978 31.354C53.0886 36.7311 50.8384 42.0372 46.4086 47.0545L46.4237 47.0748ZM40.3592 40.8209C39.9051 41.3885 39.0726 41.4797 38.5075 41.0236C37.9424 40.5675 37.8516 39.7313 38.3057 39.1637C40.3037 36.7007 41.338 34.0755 41.338 31.4705C41.338 28.9163 40.3743 26.3266 38.341 23.8483C37.8869 23.2807 37.9576 22.4445 38.5428 21.9884C39.1079 21.5323 39.9404 21.6032 40.3945 22.1911C42.8112 25.166 43.9868 28.3385 43.9717 31.4908C43.9515 34.7343 42.7204 37.9119 40.339 40.8614L40.3592 40.8209ZM30.9748 36.4067C30.5459 36.4067 30.112 36.3712 29.6832 36.2952C29.0071 36.1026 28.3764 35.7783 27.8416 35.3374C27.7205 35.236 27.5994 35.1296 27.4884 35.0181C26.5803 34.1059 26.0354 32.8642 26.0354 31.4807C26.0354 30.0971 26.6004 28.8555 27.4884 27.9432C28.3966 27.031 29.6327 26.4837 31.0101 26.4837C32.3875 26.4837 33.6236 27.0513 34.5318 27.9432C35.4399 28.8555 35.9848 30.0971 35.9848 31.4807C35.9848 32.2459 35.8133 32.9706 35.5055 33.6193C34.6327 35.4691 33.0081 36.4118 30.9748 36.4067Z" fill="url(#paint0_linear_993_18203)"/>
<defs>
<linearGradient id="paint0_linear_993_18203" x1="31" y1="9" x2="31" y2="54" gradientUnits="userSpaceOnUse">
<stop offset="0.25" stop-color="#2B6FF6"/>
<stop offset="1"/>
</linearGradient>
</defs>
</svg>
