<svg width="62" height="62" viewBox="0 0 62 62" fill="none" xmlns="http://www.w3.org/2000/svg">
<rect width="62" height="62" rx="31" fill="#2B6FF6"/>
<path d="M22.7715 18.9988C24.5698 18.396 26.6549 18.7732 28.0942 20.1302C29.7289 21.6715 30.0231 23.9981 28.9766 25.8219L44.5934 40.548L42.531 42.4925L26.9138 27.7674C24.9792 28.7549 22.5109 28.4778 20.8758 26.9362C19.4361 25.5787 19.0363 23.612 19.6763 21.9162L22.9382 24.9916C23.7925 25.7971 25.1776 25.7971 26.0318 24.9916C26.8861 24.1862 26.8861 22.8802 26.0318 22.0748L22.7715 18.9988ZM37.8906 21.5887L42.531 19.158L44.5934 21.1025L42.0154 25.4777L39.4373 25.9639L36.3438 28.8807L34.2814 26.9362L37.375 24.0193L37.8906 21.5887ZM28.0942 32.7697L30.1566 34.7144L22.4226 42.0064C21.8531 42.5434 20.9297 42.5434 20.3602 42.0064C19.8314 41.5077 19.7936 40.7215 20.2469 40.1818L20.3602 40.0619L28.0942 32.7697Z" fill="white"/>
</svg>
