<svg width="62" height="62" viewBox="0 0 62 62" fill="none" xmlns="http://www.w3.org/2000/svg">
<path d="M31 40.763L22.4427 46.4702C21.8726 47.0078 20.9694 46.9877 20.4295 46.42C19.8846 45.8523 19.9098 44.953 20.48 44.4154L29.6478 38.1204L29.4914 30.2026C29.4762 29.4189 30.1019 28.7708 30.884 28.7557C31.6711 28.7406 32.3219 29.3636 32.3371 30.1423L32.4935 38.256L41.515 44.4104C42.0851 44.953 42.1053 45.8472 41.5654 46.415C41.0256 46.9827 40.1224 47.0028 39.5522 46.4652L31 40.763ZM26.0806 10.368C25.8989 10.378 25.7627 10.4232 25.6668 10.4885C25.6063 10.5287 25.5609 10.579 25.5356 10.6393C25.5054 10.7096 25.4902 10.79 25.4902 10.8854C25.5003 11.1668 25.6466 11.5285 25.9292 11.9505L25.9342 11.9555L26.8576 13.4225C27.231 14.0103 27.6195 14.6082 28.0988 15.0503C28.563 15.4723 29.1281 15.7587 29.8698 15.7587C30.6771 15.7587 31.2674 15.4623 31.7467 15.0151C32.2463 14.5529 32.6398 13.9149 33.0283 13.2768L34.0677 11.5687C34.2847 11.0763 34.3503 10.7699 34.2746 10.6192C34.2191 10.5086 34.0173 10.4785 33.6842 10.5086C33.6237 10.5137 33.5682 10.4986 33.5228 10.4735C33.4723 10.4735 33.4168 10.4735 33.3664 10.4684L33.4017 10.2926C33.4017 10.2826 33.3966 10.2775 33.3966 10.2675C33.3916 10.2072 33.4067 10.1469 33.437 10.1017L33.6742 8.91101C31.7669 8.88589 30.4652 8.55431 28.9212 7.57463C28.4167 7.2531 28.2603 6.88133 27.7557 6.92152C27.3722 6.99688 27.0493 7.16769 26.797 7.43899C26.5498 7.70023 26.3682 8.06196 26.2471 8.51914L26.4842 10.378C26.3429 10.4082 26.2118 10.4082 26.0806 10.368ZM47.7664 43.7824C47.5848 43.7924 47.4486 43.8377 47.3527 43.903C47.2922 43.9432 47.2467 43.9934 47.2215 44.0537C47.1912 44.124 47.1761 44.2044 47.1761 44.2999C47.1862 44.5812 47.3325 44.9429 47.6151 45.3649L47.6201 45.37L48.5435 46.837C48.9168 47.4248 49.3053 48.0226 49.7847 48.4647C50.2489 48.8867 50.814 49.1731 51.5557 49.1731C52.363 49.1731 52.9533 48.8767 53.4326 48.4296C53.9321 47.9674 54.3257 47.3293 54.7142 46.6913L55.7536 44.9831C55.9705 44.4908 56.0361 44.1843 55.9605 44.0336C55.905 43.9231 55.7031 43.8929 55.3701 43.9231C55.3096 43.9281 55.2541 43.913 55.2087 43.8879C55.1582 43.8879 55.1027 43.8879 55.0522 43.8829L55.0876 43.707C55.0876 43.697 55.0825 43.692 55.0825 43.6819C55.0775 43.6216 55.0926 43.5613 55.1229 43.5161L55.36 42.3254C53.4528 42.3003 52.151 41.9687 50.6071 40.9891C50.1025 40.6675 49.9461 40.2958 49.4416 40.3359C49.0581 40.4113 48.7352 40.5821 48.4829 40.8534C48.2357 41.1147 48.054 41.4764 47.9329 41.9336L48.1701 43.7924C48.0288 43.8226 47.8976 43.8226 47.7664 43.7824ZM48.5636 50.7155L50.2186 55.5636L51.0511 52.6849L50.6424 52.2377C50.4557 51.9715 50.4204 51.7353 50.5213 51.5344C50.7433 51.0973 51.1974 51.1777 51.6263 51.1777C52.0754 51.1777 52.6253 51.0923 52.7666 51.6499C52.812 51.8358 52.7565 52.0318 52.6253 52.2327L52.2166 52.6798L53.0492 55.5586L54.5477 50.7104C55.6274 51.6801 58.8314 51.876 60.0221 52.5341C60.4006 52.7452 60.7386 53.0114 61.0111 53.3681C61.4248 53.9157 61.6821 54.6291 61.7528 55.5335L62 57.9349C61.9395 58.573 61.5762 58.9447 60.8547 59H51.6314H42.2567C41.5402 58.9447 41.1719 58.578 41.1113 57.9349L41.3586 55.5335C41.4292 54.6291 41.6815 53.9157 42.1003 53.3681C42.3727 53.0064 42.7158 52.7401 43.0892 52.5341C44.285 51.881 47.4839 51.6851 48.5636 50.7155ZM55.9958 43.4458C56.1976 43.5061 56.3439 43.6266 56.4347 43.8025C56.5861 44.1039 56.5205 44.5561 56.2329 45.2092C56.2279 45.2192 56.2228 45.2293 56.2178 45.2393L55.1633 46.9676C54.7546 47.6358 54.3459 48.304 53.7909 48.8164C53.2207 49.349 52.5143 49.7006 51.5557 49.7006C50.6576 49.7006 49.9814 49.359 49.4264 48.8516C48.8916 48.3643 48.4829 47.7363 48.0944 47.1183L47.1711 45.6563C46.833 45.1539 46.6564 44.6917 46.6463 44.3149C46.6413 44.1391 46.6715 43.9733 46.7371 43.8326C46.8078 43.6819 46.9137 43.5613 47.055 43.4609C47.1206 43.4156 47.1963 43.3755 47.2821 43.3453C47.2215 42.5515 47.2013 41.5517 47.2367 40.7127C47.2568 40.5118 47.2972 40.3159 47.3527 40.1149C47.5898 39.2759 48.1802 38.5977 48.9168 38.1304C49.1742 37.9646 49.4567 37.829 49.7594 37.7235C51.5355 37.0854 53.8918 37.4321 55.1532 38.7936C55.6678 39.3462 55.9907 40.0797 56.0563 41.0494L55.9958 43.4458ZM6.65007 43.7824C6.46842 43.7924 6.33219 43.8377 6.23633 43.903C6.17578 43.9432 6.13037 43.9934 6.10514 44.0537C6.07487 44.124 6.05973 44.2044 6.05973 44.2999C6.06982 44.5812 6.21615 44.9429 6.4987 45.3649L6.50374 45.37L7.42708 46.837C7.80046 47.4248 8.18897 48.0226 8.66829 48.4647C9.13249 48.8867 9.69759 49.1731 10.4393 49.1731C11.2466 49.1731 11.8369 48.8767 12.3162 48.4296C12.8158 47.9674 13.2093 47.3293 13.5928 46.6913L14.6372 44.9831C14.8542 44.4908 14.9198 44.1843 14.8441 44.0336C14.7886 43.9231 14.5868 43.8929 14.2537 43.9231C14.1932 43.9281 14.1377 43.913 14.0923 43.8879C14.0418 43.8879 13.9863 43.8879 13.9359 43.8829L13.9712 43.707C13.9712 43.697 13.9661 43.692 13.9661 43.6819C13.9611 43.6216 13.9762 43.5613 14.0065 43.5161L14.2437 42.3254C12.3364 42.3003 11.0347 41.9687 9.49072 40.9891C8.98617 40.6675 8.82975 40.2958 8.3252 40.3359C7.94173 40.4113 7.61882 40.5821 7.36654 40.8534C7.1193 41.1147 6.93766 41.4764 6.81657 41.9336L7.05371 43.7924C6.91748 43.8226 6.78125 43.8226 6.65007 43.7824ZM7.45231 50.7155L9.10726 55.5636L9.93978 52.6849L9.53109 52.2377C9.3444 51.9715 9.30908 51.7353 9.40999 51.5344C9.632 51.0973 10.0861 51.1777 10.515 51.1777C10.964 51.1777 11.514 51.0923 11.6553 51.6499C11.7007 51.8358 11.6452 52.0318 11.514 52.2327L11.1053 52.6798L11.9378 55.5586L13.4364 50.7104C14.5161 51.6801 17.7201 51.876 18.9108 52.5341C19.2892 52.7452 19.6273 53.0114 19.8997 53.3681C20.3135 53.9157 20.5708 54.6291 20.6414 55.5335L20.8887 57.9349C20.8281 58.573 20.4648 58.9447 19.7433 59H10.52H1.14535C0.428874 58.9447 0.0605469 58.578 0 57.9349L0.247233 55.5335C0.317871 54.6291 0.57015 53.9157 0.988932 53.3681C1.26139 53.0064 1.60449 52.7401 1.97786 52.5341C3.16862 51.881 6.36751 51.6851 7.45231 50.7155ZM14.8844 43.4458C15.0863 43.5061 15.2326 43.6266 15.3234 43.8025C15.4748 44.1039 15.4092 44.5561 15.1216 45.2092C15.1165 45.2192 15.1115 45.2293 15.1064 45.2393L14.0519 46.9676C13.6432 47.6358 13.2345 48.304 12.6795 48.8164C12.1094 49.349 11.403 49.7006 10.4443 49.7006C9.54622 49.7006 8.87012 49.359 8.3151 48.8516C7.78027 48.3643 7.37158 47.7363 6.98307 47.1183L6.05973 45.6563C5.72168 45.1539 5.54508 44.6917 5.53499 44.3149C5.52995 44.1391 5.56022 43.9733 5.62581 43.8326C5.69645 43.6819 5.80241 43.5613 5.94368 43.4609C6.00928 43.4156 6.08496 43.3755 6.17074 43.3453C6.11019 42.5515 6.09001 41.5517 6.12533 40.7127C6.14551 40.5118 6.18587 40.3159 6.24137 40.1149C6.47852 39.2759 7.06885 38.5977 7.8055 38.1304C8.06283 37.9646 8.34538 37.829 8.64811 37.7235C10.4242 37.0854 12.7804 37.4321 14.0418 38.7936C14.5565 39.3462 14.8794 40.0797 14.945 41.0494L14.8844 43.4458ZM26.8778 17.301L28.5327 22.1492L29.3652 19.2704L28.9616 18.8283C28.7749 18.5621 28.7396 18.3259 28.8405 18.125C29.0625 17.6879 29.5166 17.7683 29.9455 17.7683C30.3945 17.7683 30.9445 17.6829 31.0858 18.2405C31.1312 18.4264 31.0757 18.6223 30.9445 18.8233L30.5358 19.2654L31.3683 22.1441L32.8669 17.296C33.9466 18.2656 37.1506 18.4616 38.3413 19.1197C38.7197 19.3307 39.0578 19.597 39.3302 19.9537C39.744 20.5013 40.0013 21.2147 40.0719 22.119L40.3192 24.5205C40.2586 25.1636 39.8953 25.5303 39.1738 25.5856H29.9505H20.5708C19.8543 25.5303 19.486 25.1636 19.4255 24.5205L19.6777 22.1241C19.7484 21.2197 20.0007 20.5063 20.4194 19.9587C20.6919 19.597 21.035 19.3307 21.4084 19.1247C22.5991 18.4666 25.798 18.2707 26.8778 17.301ZM34.3149 10.0314C34.5168 10.0916 34.6631 10.2122 34.7539 10.3881C34.9053 10.6895 34.8397 11.1417 34.5521 11.7948C34.547 11.8048 34.542 11.8149 34.5369 11.8249L33.4774 13.5532C33.0687 14.2213 32.66 14.8895 32.105 15.402C31.5348 15.9345 30.8285 16.2862 29.8698 16.2862C28.9717 16.2862 28.2956 15.9446 27.7406 15.4371C27.2057 14.9498 26.797 14.3218 26.4085 13.7039L25.4852 12.2419C25.1471 11.7395 24.9705 11.2773 24.9605 10.9005C24.9554 10.7247 24.9857 10.5589 25.0513 10.4182C25.1219 10.2675 25.2279 10.1469 25.3691 10.0464C25.4347 10.0012 25.5104 9.96102 25.5962 9.93088C25.5356 9.13709 25.5155 8.13732 25.5508 7.29832C25.571 7.09736 25.6113 6.90142 25.6668 6.70046C25.904 5.86146 26.4943 5.18322 27.231 4.71599C27.4883 4.5502 27.7708 4.41456 28.0736 4.30905C29.8496 3.67101 32.2059 4.01766 33.4673 5.37916C33.9819 5.9318 34.3049 6.66529 34.3704 7.63492L34.3149 10.0314Z" fill="url(#paint0_linear_989_18131)"/>
<defs>
<linearGradient id="paint0_linear_989_18131" x1="31" y1="4" x2="31" y2="59" gradientUnits="userSpaceOnUse">
<stop offset="0.3" stop-color="#2B6FF6"/>
<stop offset="1"/>
</linearGradient>
</defs>
</svg>
