<svg width="53" height="52" viewBox="0 0 53 52" fill="none" xmlns="http://www.w3.org/2000/svg">
<rect x="0.5" width="52" height="52" rx="26" fill="#2B6FF6"/>
<path d="M29.1056 12.0224L26.8496 23.8784L35.0236 23.9054L23.8966 39.9774L26.1536 26.9344L17.9796 26.9054L29.1056 12.0224ZM29.1066 10.0234C29.0526 10.0234 28.9986 10.0254 28.9456 10.0294C28.5926 10.0574 28.3586 10.1764 28.0816 10.3624C27.9276 10.4644 27.7866 10.5904 27.6626 10.7354C27.6256 10.7784 27.5916 10.8234 27.5596 10.8694L16.3526 25.7014C15.9106 26.3084 15.8446 27.1084 16.1846 27.7774C16.5246 28.4464 17.2106 28.8704 17.9636 28.8764L23.7366 28.9184L21.9216 39.6124C21.7496 40.5314 22.2396 41.4474 23.1016 41.8164C23.3586 41.9264 23.6286 41.9794 23.8946 41.9794C24.5236 41.9794 25.0396 41.6854 25.4276 41.1544L36.6476 25.0824C37.0896 24.4754 37.1546 23.6744 36.8156 23.0064C36.4756 22.3374 35.7896 21.9134 35.0366 21.9084L29.2636 21.8984L31.0596 12.4964C31.0976 12.3454 31.1166 12.1884 31.1166 12.0264C31.1166 10.9444 30.2556 10.0624 29.1776 10.0274C29.1536 10.0264 29.1306 10.0264 29.1066 10.0264V10.0234Z" fill="white"/>
</svg>
