<svg width="62" height="62" viewBox="0 0 62 62" fill="none" xmlns="http://www.w3.org/2000/svg">
<path d="M17.1697 8.41097C16.7173 8.15365 16.5648 7.5835 16.8241 7.13444C17.0833 6.68538 17.6576 6.53402 18.11 6.79134L20.2092 7.99219C20.6616 8.24951 20.8141 8.81966 20.5548 9.26872C20.2956 9.71777 19.7213 9.86914 19.2689 9.61182L17.1697 8.41097ZM36.5911 21.0905L37.0384 25.5558H45.425L44.6016 21.0905H36.5911ZM46.7923 21.0905L47.6157 25.5558H54.1827L52.9425 21.0905H46.7923ZM54.7773 27.7052H48.0121L48.6475 31.1615H55.738L54.7773 27.7052ZM56.3378 33.321H49.049L49.6844 36.7772H57.2933L56.3378 33.321ZM57.8931 38.9266H50.0808L51.2702 45.3799H59.6822L57.8931 38.9266ZM49.0744 45.3799L47.8851 38.9266H38.3701L39.0156 45.3799H49.0744ZM36.8401 45.3799L36.1946 38.9266H24.433L23.5435 45.3799H36.8401ZM21.3681 45.3799L22.2576 38.9266H13.2712L11.7616 45.3799H21.3681ZM9.5455 45.3799L11.0551 38.9266H4.10182L2.31267 45.3799H9.5455ZM4.70159 36.7772H11.5583L12.3665 33.321H5.65716L4.70159 36.7772ZM6.25693 31.1615H12.8646L13.6727 27.7052H7.21758L6.25693 31.1615ZM7.81226 25.5558H14.1759L15.223 21.0905H9.05247L7.81226 25.5558ZM17.4391 21.0905L16.392 25.5558H24.0925L24.7075 21.0905H17.4391ZM26.8778 21.0905C26.8778 21.1309 26.8728 21.1662 26.8677 21.2065L26.2679 25.5558H34.868L34.4207 21.0905H26.8778ZM60.16 47.5293H33.2822V57.464H41.5621V62H20.4329V57.464H28.7127V47.5293H1.83489C1.67732 47.5293 1.50959 47.5041 1.34186 47.4587C1.01148 47.3678 0.701426 47.1912 0.4727 46.9541C0.182981 46.6564 0 46.273 0 45.839C0 45.7129 0.0203312 45.5767 0.0609936 45.4354L6.98885 20.4648C7.09559 20.0864 7.27349 19.7181 7.55304 19.4406C7.86309 19.1328 8.26463 18.9411 8.76783 18.9411H22.2474C21.4748 17.6746 21.0275 16.1912 21.0275 14.6019C21.0275 12.291 21.9729 10.1971 23.4978 8.67839C25.0226 7.16471 27.132 6.22624 29.465 6.22624C31.798 6.22624 33.9023 7.16471 35.4322 8.67839C36.957 10.1921 37.9024 12.286 37.9024 14.6019C37.9024 16.1912 37.4552 17.6746 36.6826 18.9411H53.2322C53.6896 18.9411 54.0607 19.1025 54.3555 19.3649C54.386 19.3901 54.4165 19.4154 54.4419 19.4406C54.7214 19.7181 54.8993 20.0864 55.0061 20.4648L61.939 45.4404C61.9797 45.5868 62 45.7179 62 45.839C62 46.273 61.817 46.6564 61.5273 46.9491C61.2986 47.1862 60.9834 47.3628 60.6581 47.4536C60.4853 47.5041 60.3176 47.5293 60.16 47.5293ZM37.2468 27.7052L37.5924 31.1615H46.4568L45.8214 27.7052H37.2468ZM15.8939 27.7052L15.0858 31.1615H23.3199L23.7926 27.7052H15.8939ZM25.9731 27.7052L25.5004 31.1615H35.4271L35.0815 27.7052H25.9731ZM37.811 33.321L38.1566 36.7772H47.4937L46.8583 33.321H37.811ZM14.5826 33.321L13.7744 36.7772H22.5524L23.0251 33.321H14.5826ZM25.2005 33.321L24.7278 36.7772H35.9862L35.6406 33.321H25.2005ZM21.9323 3.14339C21.6731 2.69434 21.8255 2.12419 22.2779 1.86686C22.7303 1.60954 23.3046 1.76091 23.5639 2.20996L24.7736 4.28874C25.0328 4.73779 24.8803 5.30794 24.433 5.56527C23.9807 5.82259 23.4063 5.67122 23.1471 5.22217L21.9323 3.14339ZM28.7077 0.938477C28.7077 0.418783 29.1295 0 29.6531 0C30.1766 0 30.5985 0.418783 30.5985 0.938477V3.34017C30.5985 3.85986 30.1766 4.27865 29.6531 4.27865C29.1295 4.27865 28.7077 3.85986 28.7077 3.34017V0.938477ZM35.6965 2.40169C35.9557 1.95264 36.5301 1.80127 36.9825 2.05859C37.4348 2.31592 37.5873 2.88607 37.3281 3.33512L36.1184 5.41895C35.8592 5.868 35.2848 6.01937 34.8324 5.76204C34.3801 5.50472 34.2276 4.93457 34.4868 4.48551L35.6965 2.40169ZM41.0029 7.12939C41.4553 6.87207 42.0297 7.02344 42.2889 7.47249C42.5481 7.92155 42.3956 8.4917 41.9433 8.74902L39.8492 9.94987C39.3968 10.2072 38.8224 10.0558 38.5632 9.61182C38.304 9.16276 38.4565 8.59261 38.9088 8.33529L41.0029 7.12939ZM43.2241 13.8551C43.7477 13.8551 44.1695 14.2739 44.1695 14.7936C44.1695 15.3133 43.7477 15.7321 43.2241 15.7321H40.8047C40.2812 15.7321 39.8593 15.3133 39.8593 14.7936C39.8593 14.2739 40.2812 13.8551 40.8047 13.8551H43.2241ZM15.6957 15.3486C15.1722 15.3486 14.7503 14.9299 14.7503 14.4102C14.7503 13.8905 15.1722 13.4717 15.6957 13.4717H18.1151C18.6386 13.4717 19.0605 13.8905 19.0605 14.4102C19.0605 14.9299 18.6386 15.3486 18.1151 15.3486H15.6957Z" fill="url(#paint0_linear_992_18188)"/>
<defs>
<linearGradient id="paint0_linear_992_18188" x1="31" y1="0" x2="31" y2="62" gradientUnits="userSpaceOnUse">
<stop stop-color="#2B6FF6"/>
<stop offset="1"/>
</linearGradient>
</defs>
</svg>
