<svg width="62" height="62" viewBox="0 0 62 62" fill="none" xmlns="http://www.w3.org/2000/svg">
<path d="M13.9183 28.5833C14.2052 28.9231 14.3513 29.3627 14.3259 29.8095C14.3004 30.2665 14.1007 30.6954 13.7692 31.0055L13.7195 31.0459C13.385 31.3417 12.9494 31.4921 12.5066 31.4647C12.0606 31.4343 11.6428 31.2321 11.3386 30.8995L11.2889 30.844C9.31764 28.6336 7.71283 26.113 6.53704 23.3805C5.49542 20.94 4.97208 18.3041 5.00115 15.6445C5.05846 12.9721 5.66808 10.3417 6.79054 7.92365C8.05921 5.21788 9.7531 2.73971 11.8058 0.586307C11.9625 0.418229 12.1502 0.28314 12.3583 0.188759C12.5664 0.094379 12.7908 0.0425581 13.0186 0.0362583C13.2454 0.0324962 13.4706 0.0752522 13.6807 0.161964C13.8908 0.248676 14.0815 0.377559 14.2414 0.54089L14.2712 0.571168C14.5756 0.892528 14.7525 1.31655 14.7682 1.7621C14.7762 1.991 14.739 2.21922 14.6588 2.43329C14.5785 2.64737 14.4569 2.84296 14.301 3.00854H14.2762C12.5249 4.86376 11.0723 6.98735 9.97167 9.3013C9.01644 11.2936 8.49111 13.4699 8.43081 15.6849C8.4159 17.9061 8.86306 20.1055 9.74303 22.1391C10.7516 24.4455 12.112 26.5759 13.7741 28.4521C13.8105 28.4746 13.8439 28.5017 13.8735 28.5328L13.9183 28.5833ZM11.7859 56.5197H17.7505L27.9352 20.2569C27.6909 20.1069 27.4582 19.9382 27.2393 19.7522L26.8715 19.4343C25.9127 18.4455 25.3769 17.1127 25.3803 15.7253C25.3799 15.0426 25.5134 14.3667 25.773 13.737C26.0275 13.1004 26.4005 12.5196 26.8715 12.0263C27.3514 11.5424 27.9208 11.1596 28.5469 10.8998C29.173 10.64 29.8435 10.5084 30.5198 10.5124C31.2017 10.5089 31.8774 10.6427 32.508 10.906C33.1363 11.169 33.7084 11.5528 34.1931 12.0364C34.6697 12.5237 35.0467 13.1017 35.3026 13.7374C35.5585 14.373 35.6882 15.0537 35.6842 15.7404C35.6833 16.1273 35.6416 16.513 35.5599 16.891C35.4774 17.2598 35.3557 17.6185 35.1971 17.9608C34.8183 18.804 34.2182 19.5251 33.4624 20.0449L44.7007 56.5197H47.9763V62H11.7859V56.5197ZM23.5909 56.5197H41.9819L39.765 49.4044L23.5909 56.5197ZM28.5614 27.6648L33.9893 30.6926L30.9572 20.8675C30.8048 20.8675 30.6391 20.8675 30.4602 20.8675L28.5664 27.6749L28.5614 27.6648ZM35.3711 35.1687L26.3396 41.6078L38.6516 45.7811L35.376 35.1839L35.3711 35.1687ZM20.9565 54.804L36.6634 47.8854L24.088 43.6364L20.9516 54.814L20.9565 54.804ZM25.3803 39.0695L33.3779 33.3722L27.8357 30.2788L25.3505 39.0594L25.3803 39.0695ZM20.5788 22.7598C20.839 23.1127 20.9564 23.5532 20.9068 23.9911C20.8868 24.2169 20.8218 24.4361 20.7159 24.6356C20.6099 24.8351 20.4652 25.0107 20.2905 25.1518L20.2209 25.2073C19.8752 25.4676 19.4464 25.5881 19.018 25.5454C18.7957 25.523 18.58 25.4556 18.3836 25.3473C18.1873 25.239 18.0143 25.0919 17.8748 24.9146L17.845 24.8793C16.7591 23.5423 15.8839 22.0426 15.2504 20.4335C14.666 18.9234 14.3594 17.3174 14.3457 15.695C14.3408 14.0889 14.636 12.4964 15.2156 11.0019C15.8467 9.39097 16.7258 7.89204 17.8201 6.56115C18.1055 6.20113 18.5201 5.97096 18.9727 5.92127C19.4252 5.87159 19.8787 6.00646 20.2333 6.29622C20.5879 6.58597 20.8147 7.00688 20.8636 7.46634C20.9125 7.9258 20.7797 8.38618 20.4943 8.7462C19.6523 9.7745 18.9716 10.9285 18.4762 12.1676C17.5649 14.4142 17.5649 16.9354 18.4762 19.182C18.9798 20.4569 19.6721 21.6464 20.5291 22.7094L20.5788 22.7851V22.7598ZM49.6862 30.8945C49.382 31.222 48.9658 31.4189 48.5231 31.4445C48.2976 31.4586 48.0717 31.427 47.8584 31.3516C47.6451 31.2763 47.4486 31.1586 47.2805 31.0055L47.2506 30.9752C46.9283 30.6682 46.7344 30.2474 46.7088 29.7994C46.6938 29.5697 46.7243 29.3392 46.7986 29.1216C46.8729 28.9041 46.9894 28.7038 47.1413 28.5328L47.1711 28.5025C48.8638 26.6097 50.2481 24.4548 51.2718 22.1189C52.1525 20.0784 52.5996 17.8723 52.584 15.6445C52.5297 13.4262 52.0113 11.245 51.063 9.24579C49.952 6.92958 48.4856 4.80723 46.7188 2.95808L46.679 2.91771C46.3896 2.58244 46.2383 2.14697 46.2565 1.70154C46.2677 1.2535 46.4452 0.826286 46.7536 0.505566L46.7933 0.465195C46.9555 0.31059 47.146 0.189996 47.3542 0.110327C47.5623 0.030659 47.7838 -0.00651603 48.0061 0.000934085C48.458 0.0157291 48.8862 0.209547 49.1991 0.54089L49.2339 0.576214C51.2722 2.72333 52.9527 5.193 54.2094 7.88833C55.3319 10.3027 55.9415 12.9299 55.9988 15.5991C56.0291 18.267 55.5058 20.9114 54.4629 23.3603C53.3069 26.0556 51.7272 28.5422 49.7856 30.7229C49.7622 30.7835 49.7267 30.8385 49.6812 30.8844L49.6862 30.8945ZM42.1857 25.0206C41.9028 25.305 41.5328 25.483 41.1369 25.5252C40.6856 25.5741 40.2336 25.4398 39.8793 25.1518C39.5273 24.862 39.3022 24.4429 39.2529 23.9856C39.2035 23.5282 39.334 23.0696 39.6159 22.7094C40.4662 21.6657 41.1551 20.4967 41.6588 19.2425C42.572 16.9788 42.572 14.4414 41.6588 12.1777V12.1525C41.1616 10.9236 40.4809 9.77983 39.6408 8.76134L39.596 8.70583C39.3542 8.35459 39.248 7.92532 39.2978 7.49976C39.3203 7.27341 39.3868 7.05383 39.4935 6.85374C39.6001 6.65365 39.7448 6.47702 39.9191 6.33406L39.9539 6.30883C40.3027 6.02979 40.7448 5.89949 41.1866 5.9455C41.6264 5.99213 42.0302 6.21344 42.3099 6.56115L42.3397 6.59647C43.4243 7.92419 44.295 9.41789 44.9195 11.0221C45.4991 12.5165 45.7942 14.109 45.7893 15.7152C45.7757 17.3326 45.469 18.9337 44.8847 20.4385C44.252 22.0656 43.3732 23.5826 42.2801 24.9348C42.2528 24.966 42.2229 24.9947 42.1906 25.0206H42.1857Z" fill="url(#paint0_linear_987_18120)"/>
<defs>
<linearGradient id="paint0_linear_987_18120" x1="30.5" y1="0" x2="30.5" y2="62" gradientUnits="userSpaceOnUse">
<stop offset="0.355" stop-color="#2B6FF6"/>
<stop offset="1"/>
</linearGradient>
</defs>
</svg>
