<svg width="42" height="42" viewBox="0 0 42 42" fill="none" xmlns="http://www.w3.org/2000/svg">
<path d="M39.721 32.9098L21.6741 41.862C21.4613 41.9531 21.2321 42 21.0005 42C20.7688 42 20.5396 41.9531 20.3268 41.862L2.27897 32.9098C1.9116 32.7267 1.9116 32.4266 2.27897 32.2426L6.60104 30.1029C6.81421 30.0119 7.04371 29.965 7.27562 29.965C7.50753 29.965 7.73703 30.0119 7.9502 30.1029L20.3268 36.2346C20.5395 36.3261 20.7688 36.3733 21.0005 36.3733C21.2322 36.3733 21.4614 36.3261 21.6741 36.2346L34.0507 30.1029C34.2637 30.0119 34.4931 29.9649 34.7248 29.9649C34.9566 29.9649 35.186 30.0119 35.399 30.1029L39.721 32.2472C40.093 32.4266 40.093 32.7267 39.721 32.9098ZM39.721 20.4148L35.399 18.2706C35.186 18.1795 34.9566 18.1326 34.7248 18.1326C34.4931 18.1326 34.2637 18.1795 34.0507 18.2706L21.6741 24.4096C21.4612 24.5002 21.232 24.5469 21.0005 24.5469C20.7689 24.5469 20.5398 24.5002 20.3268 24.4096L7.9502 18.2706C7.73703 18.1796 7.50753 18.1326 7.27562 18.1326C7.04371 18.1326 6.81421 18.1796 6.60104 18.2706L2.27897 20.4148C1.9116 20.5979 1.9116 20.899 2.27897 21.0838L20.3268 30.0343C20.5396 30.1253 20.7688 30.1722 21.0005 30.1722C21.2321 30.1722 21.4613 30.1253 21.6741 30.0343L39.721 21.0838C40.093 20.899 40.093 20.5988 39.721 20.4148ZM2.27897 10.0074L20.3259 18.2706C20.7589 18.4399 21.2402 18.4399 21.6732 18.2706L39.721 10.0074C40.0884 9.83721 40.0884 9.55991 39.721 9.3906L21.6732 1.12837C21.2405 0.957211 20.7586 0.957211 20.3259 1.12837L2.27897 9.3906C1.90701 9.55991 1.90701 9.83721 2.27897 10.0074Z" fill="#2B6FF6"/>
</svg>
