<svg width="62" height="62" viewBox="0 0 62 62" fill="none" xmlns="http://www.w3.org/2000/svg">
<path fill-rule="evenodd" clip-rule="evenodd" d="M29.1382 30.0514H60.9657C61.5355 30.0514 62 30.5123 62 31.0774V53.3701C62 53.9353 61.5355 54.3962 60.9657 54.3962H29.1382C28.5684 54.3962 28.104 53.9353 28.104 53.3701V31.0774C28.104 30.5123 28.5684 30.0514 29.1382 30.0514ZM22.9718 4.57152C22.4103 4.64119 21.8516 4.73113 21.2966 4.84115C19.7694 5.14329 18.2777 5.60129 16.8454 6.20784L16.846 6.20952C15.3921 6.83002 14.039 7.55518 12.7898 8.38691C11.5381 9.21962 10.372 10.1725 9.30836 11.2318L9.30363 11.2365C8.51037 12.0208 7.776 12.8616 7.10639 13.7522H14.5432C16.6756 10.7091 19.481 7.6489 22.9718 4.57152ZM23.8653 41.9615H17.1114C18.9099 44.285 21.1633 46.5982 23.8653 48.9006V53.628C22.8452 53.5478 21.8308 53.408 20.8274 53.2091C19.1592 52.8779 17.5296 52.3783 15.9639 51.7181L15.8983 51.6923C14.3281 51.0222 12.8471 50.2258 11.4576 49.3007C10.0752 48.3812 8.7872 47.3292 7.61207 46.1598C6.43393 44.994 5.37407 43.7162 4.44777 42.3447C3.51547 40.9663 2.71274 39.4965 2.0374 37.9383L2.03922 37.9374L2.0374 37.9335C0.679336 34.7804 0 31.4185 0 27.8571C0 26.0776 0.169531 24.3469 0.508473 22.6666C0.842468 21.0113 1.34609 19.3943 2.01149 17.8406L2.0374 17.7755C2.71274 16.2173 3.51547 14.7478 4.44777 13.3691C5.37419 11.9975 6.43417 10.7195 7.61244 9.55366C8.78743 8.3844 10.0754 7.33253 11.4576 6.41319C12.8471 5.48809 14.3281 4.69167 15.8983 4.02155L15.8991 4.02335L15.903 4.02155C17.4874 3.3486 19.1377 2.84022 20.8276 2.50455C22.5209 2.16822 24.2651 2 26.0583 2C27.8516 2 29.5956 2.16822 31.2889 2.50455C32.9571 2.83599 34.5867 3.33568 36.1525 3.99584L36.2182 4.02155C37.7883 4.69167 39.2695 5.48797 40.659 6.41319C42.0413 7.33244 43.3291 8.38432 44.5039 9.55366C45.6824 10.7194 46.7425 11.9973 47.6688 13.3691C48.6011 14.7478 49.4037 16.2173 50.079 17.7755L50.0772 17.7764L50.079 17.7803C50.7573 19.3522 51.2697 20.9896 51.608 22.6663C51.8546 23.8888 52.0116 25.1379 52.0787 26.4131H49.6733C49.6087 25.2944 49.4687 24.2005 49.2532 23.1317C48.9488 21.6164 48.4872 20.1363 47.8757 18.7153L47.874 18.7159C47.4842 17.8165 47.0535 16.9562 46.5813 16.1353H39.1078C41.1312 19.5831 42.2885 23.0089 42.5953 26.4131H40.191C39.8459 23.037 38.5567 19.6115 36.3049 16.1353H27.2591V26.4131H26.8927C25.3533 26.4131 24.0727 27.5684 23.8882 29.0486H11.8479C12.0031 32.5825 13.2047 36.0923 15.4289 39.5784H23.8653V41.9615ZM14.1507 41.9615H7.10639C7.77599 42.8522 8.51037 43.6931 9.30363 44.4774L9.30836 44.4821C10.372 45.5414 11.5381 46.4943 12.7898 47.327C14.039 48.1587 15.3921 48.8839 16.846 49.5044L16.9032 49.5306C18.3178 50.125 19.7899 50.5747 21.2965 50.8725C21.7923 50.9709 22.2935 51.0535 22.8 51.1202C19.193 48.1054 16.3056 45.0529 14.1507 41.9615ZM5.5352 39.5784H12.6389C10.6598 36.1168 9.59184 32.6069 9.45379 29.0486H2.43011C2.56271 31.8508 3.16636 34.5028 4.24082 36.9985L4.2424 36.9979C4.6322 37.8972 5.06305 38.7576 5.5352 39.5784ZM2.43011 26.6653H9.49968C9.77105 23.1781 10.9351 19.6681 13.0085 16.1353H5.5352C5.0558 16.9708 4.62419 17.8323 4.2424 18.7159L4.216 18.7728C3.61684 20.1765 3.16358 21.6371 2.86326 23.1321C2.63161 24.281 2.48714 25.4588 2.43011 26.6653ZM11.9011 26.6653H24.8573V16.1353H15.8115C13.5035 19.6982 12.2066 23.2078 11.9011 26.6653ZM17.5005 13.7522H24.8573V6.08648C21.895 8.66845 19.4454 11.2236 17.5005 13.7522ZM27.2591 13.7522H34.6159C32.671 11.2236 30.2214 8.66845 27.2591 6.08648V13.7522ZM37.5731 13.7522H45.0101C44.3406 12.8615 43.6062 12.0207 42.8128 11.2365L42.8081 11.2318C41.7445 10.1725 40.5784 9.21963 39.3268 8.38691C38.0776 7.55518 36.7243 6.83002 35.2705 6.20952L35.2133 6.18332C33.7986 5.58899 32.3265 5.13928 30.8198 4.84115C30.2649 4.73111 29.706 4.64117 29.1445 4.57152C32.6353 7.6489 35.4408 10.7091 37.5731 13.7522ZM40.3613 55.8125H49.7427C49.7675 57.4225 50.4362 58.8664 52.2476 60H37.8564C39.315 58.9516 40.3674 57.6844 40.3613 55.8125ZM30.9617 32.1005H59.1453C59.6501 32.1005 60.0587 32.5091 60.0587 33.0068V50.0725C60.0587 50.5702 59.6469 50.9788 59.1453 50.9788H30.9617C30.4602 50.9788 30.0484 50.5702 30.0484 50.0725L30.0482 33.0068C30.0453 32.5066 30.4593 32.1005 30.9617 32.1005Z" fill="url(#paint0_linear_989_18129)"/>
<defs>
<linearGradient id="paint0_linear_989_18129" x1="31" y1="2" x2="31" y2="60" gradientUnits="userSpaceOnUse">
<stop stop-color="#2B6FF6"/>
<stop offset="1"/>
</linearGradient>
</defs>
</svg>
