<svg width="42" height="42" viewBox="0 0 42 42" fill="none" xmlns="http://www.w3.org/2000/svg">
<path d="M37.9598 6.86464L22.2078 0.301499C21.7279 0.102455 21.2136 0 20.6941 0C20.1746 0 19.6603 0.102455 19.1804 0.301499L3.42843 6.86464C1.95989 7.47173 1 8.90742 1 10.499C1 26.7838 10.3938 38.0396 19.1722 41.6985C20.1403 42.1005 21.2315 42.1005 22.1996 41.6985C29.2305 38.7697 40.38 28.6543 40.38 10.499C40.38 8.90742 39.4201 7.47173 37.9598 6.86464ZM20.6982 36.6121L20.69 5.35512L35.1211 11.3686C34.8504 23.7893 28.3855 32.789 20.6982 36.6121Z" fill="#2B6FF6"/>
</svg>
