<svg width="52" height="53" viewBox="0 0 52 53" fill="none" xmlns="http://www.w3.org/2000/svg">
<rect y="0.5" width="52" height="52" rx="26" fill="#2B6FF6"/>
<g clip-path="url(#clip0_1073_9942)">
<path d="M40.5831 10.9443H29.9859C29.728 10.9443 29.4808 11.0468 29.2984 11.2291C29.1161 11.4114 29.0137 11.6587 29.0137 11.9166C29.0137 12.1744 29.1161 12.4217 29.2984 12.604C29.4808 12.7864 29.728 12.8888 29.9859 12.8888H38.2789L29.7039 21.6388C29.6146 21.7301 29.5441 21.8381 29.4964 21.9566C29.4488 22.0751 29.425 22.2019 29.4263 22.3296C29.4277 22.4574 29.4542 22.5836 29.5043 22.7011C29.5545 22.8186 29.6272 22.9251 29.7185 23.0145C29.8098 23.1038 29.9178 23.1744 30.0364 23.222C30.1549 23.2696 30.2817 23.2935 30.4094 23.2921C30.5371 23.2907 30.6634 23.2642 30.7809 23.2141C30.8984 23.164 31.0049 23.0912 31.0942 22.9999L39.6109 14.3082V22.5138C39.6109 22.7716 39.7133 23.0189 39.8956 23.2012C40.078 23.3836 40.3253 23.486 40.5831 23.486C40.841 23.486 41.0883 23.3836 41.2706 23.2012C41.4529 23.0189 41.5553 22.7716 41.5553 22.5138V11.9166C41.5553 11.6587 41.4529 11.4114 41.2706 11.2291C41.0883 11.0468 40.841 10.9443 40.5831 10.9443Z" fill="white"/>
<path d="M19.7195 19.432L10.9695 24.4584C10.8212 24.5441 10.6981 24.6674 10.6127 24.8159C10.5273 24.9645 10.4827 25.1329 10.4834 25.3042V35.9987C10.4827 36.17 10.5273 36.3384 10.6127 36.487C10.6981 36.6355 10.8212 36.7589 10.9695 36.8445L19.7195 41.8515C19.8673 41.9368 20.035 41.9817 20.2056 41.9817C20.3763 41.9817 20.5439 41.9368 20.6917 41.8515L29.4417 36.8445C29.5901 36.7589 29.7132 36.6355 29.7986 36.487C29.8839 36.3384 29.9285 36.17 29.9279 35.9987V25.3042C29.9285 25.1329 29.8839 24.9645 29.7986 24.8159C29.7132 24.6674 29.5901 24.5441 29.4417 24.4584L20.6917 19.432C20.5439 19.3467 20.3763 19.3018 20.2056 19.3018C20.035 19.3018 19.8673 19.3467 19.7195 19.432ZM19.1945 39.2167L12.389 35.3278V26.9278L19.1945 30.8167V39.2167ZM20.1667 29.4167L13.1765 25.4015L20.1667 21.4251L27.1765 25.4306L20.1667 29.4167ZM27.9445 35.3376L21.139 39.2265V30.8167L27.9445 26.9278V35.3376Z" fill="white"/>
</g>
<defs>
<clipPath id="clip0_1073_9942">
<rect width="35" height="35" fill="white" transform="translate(8.5 9)"/>
</clipPath>
</defs>
</svg>
