<svg width="24" height="24" viewBox="0 0 24 24" fill="none" xmlns="http://www.w3.org/2000/svg">
<path d="M12.5 1L22 6.5V17.5L12.5 23L3 17.5V6.5L12.5 1ZM12.5 3.311L5 7.65311V16.3469L12.5 20.689L20 16.3469V7.65311L12.5 3.311ZM12.5 16C10.2909 16 8.5 14.2091 8.5 12C8.5 9.79086 10.2909 8 12.5 8C14.7091 8 16.5 9.79086 16.5 12C16.5 14.2091 14.7091 16 12.5 16ZM12.5 14C13.6046 14 14.5 13.1046 14.5 12C14.5 10.8954 13.6046 10 12.5 10C11.3954 10 10.5 10.8954 10.5 12C10.5 13.1046 11.3954 14 12.5 14Z" fill="black"/>
</svg>
