<svg width="62" height="62" viewBox="0 0 62 62" fill="none" xmlns="http://www.w3.org/2000/svg">
<path fill-rule="evenodd" clip-rule="evenodd" d="M30.9035 0C41.3452 6.66772 50.7783 9.82222 58.874 9.07648C60.2879 37.8857 49.727 54.8994 31.0117 62C12.9385 55.354 2.24838 39.0724 3.04123 8.63953C12.5449 9.14056 21.8687 7.07087 30.9035 0ZM23.7639 28.0044H24.4841V26.3238C24.4841 24.4625 25.2124 22.7661 26.3859 21.5335C27.5684 20.2913 29.2016 19.5198 31.0007 19.5198C32.7997 19.5198 34.4335 20.2913 35.6155 21.5335C36.789 22.7661 37.5172 24.4625 37.5172 26.3238V28.0044H38.2375C38.822 28.0044 39.3008 28.4863 39.3008 29.0756V40.3949C39.3008 40.9842 38.822 41.466 38.2375 41.466H23.7639C23.1789 41.466 22.7006 40.9842 22.7006 40.3949V29.0756C22.7001 28.4863 23.1789 28.0044 23.7639 28.0044ZM26.4975 28.0044H35.5033V26.3238C35.5033 25.0003 34.992 23.8015 34.1681 22.9357C33.3532 22.0794 32.2318 21.5481 31.0002 21.5481C29.7691 21.5481 28.6472 22.0799 27.8328 22.9357C27.0084 23.8015 26.4975 25.0008 26.4975 26.3238V28.0044ZM30.1277 35.4608L28.9803 38.4881H33.0201L31.9573 35.4194C32.632 35.0698 33.0932 34.3614 33.0932 33.5445C33.0932 32.38 32.1561 31.4359 31.0002 31.4359C29.8442 31.4359 28.9076 32.38 28.9076 33.5445C28.9076 34.3947 29.4075 35.1273 30.1277 35.4608ZM30.9145 3.55965C40.1572 9.46146 48.5074 12.2542 55.6736 11.5937C56.9247 37.0945 47.5768 52.1551 31.0112 58.4398C15.013 52.5572 5.54948 38.146 6.25168 11.2067C14.6645 11.6507 22.9175 9.81869 30.9145 3.55965Z" fill="url(#paint0_linear_990_18140)"/>
<defs>
<linearGradient id="paint0_linear_990_18140" x1="31" y1="0" x2="31" y2="62" gradientUnits="userSpaceOnUse">
<stop stop-color="#2B6FF6"/>
<stop offset="1"/>
</linearGradient>
</defs>
</svg>
