<svg width="52" height="52" viewBox="0 0 52 52" fill="none" xmlns="http://www.w3.org/2000/svg">
<rect width="52" height="52" rx="26" fill="#2B6FF6"/>
<path d="M14.75 23C15.164 23 15.5 22.664 15.5 22.25V18.0605L22.0948 24.6552C22.241 24.8019 22.433 24.875 22.625 24.875C22.817 24.875 23.009 24.8019 23.1552 24.6552C23.4481 24.3624 23.4481 23.8876 23.1552 23.5948L16.5605 17H20.75C21.164 17 21.5 16.664 21.5 16.25C21.5 15.836 21.164 15.5 20.75 15.5H14.75C14.336 15.5 14 15.836 14 16.25V22.25C14 22.664 14.336 23 14.75 23Z" fill="white"/>
<path d="M14.75 36.4999H20.75C21.164 36.4999 21.5 36.1639 21.5 35.7499C21.5 35.3359 21.164 34.9999 20.75 34.9999H16.5605L23.1552 28.4052C23.4481 28.1123 23.4481 27.6375 23.1552 27.3447C22.8628 27.0518 22.3872 27.0518 22.0948 27.3447L15.5 33.9394V29.7499C15.5 29.3359 15.164 28.9999 14.75 28.9999C14.336 28.9999 14 29.3359 14 29.7499V35.7499C14 36.1639 14.336 36.4999 14.75 36.4999Z" fill="white"/>
<path d="M37.2499 28.9999C36.8359 28.9999 36.4999 29.3359 36.4999 29.7499V33.9394L29.9052 27.3447C29.6127 27.0518 29.1372 27.0518 28.8447 27.3447C28.5518 27.6375 28.5518 28.1123 28.8447 28.4052L35.4394 34.9999H31.2499C30.8359 34.9999 30.4999 35.3359 30.4999 35.7499C30.4999 36.1639 30.8359 36.4999 31.2499 36.4999H37.2499C37.6639 36.4999 37.9999 36.1639 37.9999 35.7499V29.7499C37.9999 29.3359 37.6639 28.9999 37.2499 28.9999Z" fill="white"/>
<path d="M37.2499 15.5H31.2499C30.8359 15.5 30.4999 15.836 30.4999 16.25C30.4999 16.664 30.8359 17 31.2499 17H35.4394L28.8447 23.5948C28.5518 23.8876 28.5518 24.3624 28.8447 24.6552C28.9909 24.8019 29.1829 24.875 29.3749 24.875C29.5669 24.875 29.7589 24.8019 29.9052 24.6552L36.4999 18.0605V22.25C36.4999 22.664 36.8359 23 37.2499 23C37.6639 23 37.9999 22.664 37.9999 22.25V16.25C37.9999 15.836 37.6639 15.5 37.2499 15.5Z" fill="white"/>
</svg>
