<svg width="62" height="62" viewBox="0 0 62 62" fill="none" xmlns="http://www.w3.org/2000/svg">
<path fill-rule="evenodd" clip-rule="evenodd" d="M1.28158 46.4114H7.63395C7.16471 46.2889 6.81152 45.8498 6.81152 45.3392V14.1079C6.81152 13.5004 7.30599 13 7.90641 13H53.806C54.4115 13 54.9009 13.5004 54.9009 14.1079V45.3341C54.9009 45.8498 54.5527 46.2838 54.0785 46.4063H60.7184C61.4248 46.4063 62 46.9884 62 47.7032C62 48.418 61.4248 49 60.7184 49H1.28158C0.575195 49 0 48.418 0 47.7032C0 46.9935 0.575195 46.4114 1.28158 46.4114ZM24.5619 38.5896C23.7293 39.2278 22.7959 39.7332 21.4285 39.2073C20.5405 38.8653 19.8089 38.079 19.4053 37.0834C22.9473 38.707 24.2137 34.0455 20.0208 33.9077C21.3024 32.3504 23.1895 32.3607 24.7132 33.5043C25.4347 34.0455 25.8384 34.3161 26.2521 34.4336C26.4792 34.4999 26.7062 34.5152 26.9938 34.5152C27.9676 34.5204 33.0737 34.408 34.1081 34.3825C36.0557 34.3417 37.0396 31.314 39.8045 32.3811C40.6925 32.7232 41.4242 33.5094 41.8278 34.505C38.2858 32.8814 37.0194 37.5429 41.2122 37.6808C39.9307 39.238 38.0436 39.2278 36.5199 38.0841C35.8538 37.5786 35.43 36.9915 34.1131 37.0272C33.1999 37.0681 28.1038 37.1293 27.1855 37.1906C26.8223 37.211 26.5801 37.2468 26.348 37.3387C25.9342 37.4969 25.5558 37.8288 24.5719 38.5845L24.5619 38.5896ZM37.7358 24.0946C37.6854 24.0435 37.645 24.0129 37.5946 23.9925C37.5542 23.9721 37.5037 23.9618 37.4432 23.9618C37.3827 23.9618 37.3322 23.9721 37.2918 23.9925C37.2515 24.0129 37.201 24.0435 37.1606 24.0844L37.1506 24.0946L36.0103 25.2485C35.7883 25.4731 35.4351 25.5038 35.1828 25.32C35.0516 25.2383 34.9204 25.1566 34.769 25.0749C34.6076 24.9932 34.4562 24.9115 34.3149 24.84C34.1636 24.7685 34.0021 24.6971 33.8407 24.6358C33.6994 24.5847 33.5379 24.5235 33.3462 24.4622C33.0737 24.3703 32.9022 24.115 32.9022 23.8393V22.0677C32.9022 22.0064 32.8921 21.9451 32.8719 21.9043C32.8517 21.8634 32.8215 21.8124 32.7811 21.7817C32.7407 21.7409 32.7004 21.7103 32.66 21.6898C32.6196 21.6694 32.5591 21.6592 32.4985 21.6592H30.2936C30.2331 21.6592 30.1826 21.6694 30.1423 21.6796C30.1019 21.7 30.0514 21.7307 30.001 21.7817C29.9606 21.8226 29.9303 21.8634 29.9202 21.9043C29.9001 21.9451 29.89 22.0064 29.89 22.0677V23.6964C29.89 24.0231 29.6579 24.2886 29.3551 24.3499C29.1836 24.3907 29.0221 24.4316 28.8809 24.4724C28.7194 24.5235 28.568 24.5745 28.4066 24.6358C28.2552 24.6971 28.0938 24.7583 27.9424 24.84C27.7809 24.9115 27.6396 24.9932 27.4984 25.0647C27.236 25.2076 26.9333 25.1566 26.7314 24.9523L25.4701 23.6861C25.46 23.6759 25.46 23.6759 25.46 23.6657C25.4196 23.6249 25.3792 23.5942 25.3389 23.5738C25.2985 23.5534 25.2581 23.5534 25.1976 23.5534C25.137 23.5534 25.0866 23.5636 25.0462 23.584C24.9958 23.6045 24.9554 23.6351 24.9049 23.6861L23.3711 25.2536C23.3206 25.3046 23.2904 25.3455 23.2702 25.3965C23.25 25.4374 23.2399 25.4884 23.2399 25.5497C23.2399 25.611 23.25 25.662 23.2702 25.7029C23.2904 25.7437 23.3206 25.7948 23.361 25.8356V25.8458L24.5013 26.9997C24.7233 27.2244 24.7536 27.5818 24.5719 27.837C24.4912 27.9698 24.4105 28.1025 24.3298 28.2557C24.249 28.4191 24.1683 28.5723 24.0977 28.7152C24.027 28.8684 23.9564 29.0318 23.8958 29.1951C23.8454 29.3381 23.7848 29.5015 23.7243 29.6955C23.6335 29.9712 23.3812 30.1448 23.1087 30.1448H21.3428C21.2822 30.1448 21.2217 30.155 21.1813 30.1754C21.141 30.1959 21.1006 30.2265 21.0602 30.2571C21.0199 30.298 20.9896 30.3388 20.9795 30.3797C20.9593 30.4205 20.9492 30.4818 20.9492 30.543V30.7217C20.5052 30.8596 20.0763 31.0587 19.6676 31.3293V30.5226C19.6676 30.2878 19.708 30.0733 19.7887 29.8589C19.8695 29.6547 20.0007 29.4709 20.1621 29.2973C20.3236 29.1339 20.5153 29.0011 20.7171 28.9194C20.9189 28.8378 21.141 28.7969 21.373 28.7969H22.6647C22.6748 28.7663 22.695 28.7254 22.7051 28.6948C22.7757 28.511 22.8564 28.3272 22.9372 28.1434C23.028 27.9494 23.1087 27.7656 23.1995 27.6022L23.2298 27.5409L22.4528 26.7444C22.2913 26.5811 22.1602 26.3972 22.0794 26.1828C21.9886 25.9684 21.9482 25.7437 21.9482 25.5191C21.9482 25.2842 21.9886 25.0698 22.0794 24.8553C22.1702 24.6409 22.2913 24.4571 22.4528 24.2937L23.9867 22.7263V22.7161C24.1481 22.5527 24.3298 22.4302 24.5316 22.3383C24.7435 22.2463 24.9554 22.2055 25.1875 22.2055C25.4196 22.2055 25.6416 22.2566 25.8434 22.3383C26.0452 22.4302 26.2269 22.5527 26.3783 22.7263L27.2965 23.6453C27.3268 23.6351 27.3571 23.6147 27.3773 23.6045C27.5488 23.5228 27.7305 23.4513 27.9222 23.3696C28.1038 23.2981 28.2956 23.2368 28.4873 23.1756C28.5176 23.1654 28.5378 23.1552 28.568 23.1552V22.037C28.568 21.8022 28.6084 21.5775 28.6992 21.3733C28.7799 21.1691 28.9111 20.9853 29.0726 20.8219L29.0827 20.8117C29.2441 20.6483 29.4258 20.5257 29.6276 20.4441C29.8294 20.3624 30.0514 20.3113 30.2734 20.3113H32.4784C32.7105 20.3113 32.9224 20.3521 33.1343 20.4338C33.3462 20.5155 33.5278 20.6483 33.6893 20.8117C33.8507 20.975 33.9819 21.1691 34.0627 21.3733C34.1434 21.5775 34.1838 21.8022 34.1838 22.037V23.3441C34.214 23.3543 34.2544 23.3747 34.2847 23.3849C34.4663 23.4564 34.6479 23.5381 34.8296 23.6198C35.0213 23.7117 35.203 23.7934 35.3644 23.8853L35.425 23.9159L36.2121 23.1296C36.3735 22.9662 36.5552 22.8335 36.7671 22.7518C36.979 22.6599 37.201 22.6191 37.423 22.6191C37.6551 22.6191 37.867 22.6599 38.0789 22.7518V22.7722C38.2909 22.8641 38.4725 22.9867 38.634 23.15L40.1829 24.7022H40.193C40.3545 24.8656 40.4756 25.0494 40.5664 25.2536C40.6572 25.468 40.6976 25.6825 40.6976 25.9173C40.6976 26.1522 40.6471 26.3768 40.5664 26.5811C40.4756 26.7853 40.3545 26.9691 40.1829 27.1223L39.2747 28.0515C39.2848 28.0821 39.305 28.1127 39.3151 28.1434C39.3958 28.317 39.4665 28.5008 39.5371 28.6744C39.5371 28.6846 39.5472 28.6948 39.5472 28.705C39.6178 28.8786 39.6784 29.0726 39.7389 29.2768L39.7591 29.3483H40.8691C41.1012 29.3483 41.3232 29.3892 41.5251 29.4811C41.7269 29.5628 41.9085 29.6955 42.07 29.8589L42.0801 29.8691C42.2415 30.0325 42.3626 30.2163 42.4434 30.4205C42.5241 30.6247 42.5745 30.8494 42.5745 31.074V31.4059H42.2819C41.8177 30.977 41.2879 30.6247 40.7127 30.3848C40.6673 30.3643 40.6219 30.3439 40.5765 30.3286C39.8197 30.0376 39.1536 29.915 38.5583 29.9099C38.5381 29.8334 38.5179 29.7517 38.4977 29.6751C38.4473 29.5219 38.3968 29.3585 38.3262 29.1849C38.3262 29.1747 38.3161 29.1645 38.3161 29.1543C38.2555 28.9909 38.195 28.848 38.1344 28.705C38.0638 28.5518 37.9932 28.3987 37.9124 28.2557C37.7712 27.9902 37.8216 27.6839 38.0234 27.4796L39.2747 26.2032C39.2747 26.193 39.2848 26.193 39.2949 26.193C39.3353 26.1522 39.3656 26.1113 39.3857 26.0705C39.4059 26.0296 39.4059 25.9888 39.4059 25.9275C39.4059 25.8663 39.3958 25.8152 39.3757 25.7744C39.3555 25.7233 39.3252 25.6825 39.2747 25.6314L37.7257 24.0742L37.7358 24.0946ZM31.116 26.918C31.4491 26.918 31.7821 26.9487 32.105 27.0201C32.4178 27.0814 32.7306 27.1835 33.0435 27.3163C33.3361 27.449 33.6187 27.6022 33.881 27.7758C34.1434 27.9494 34.3856 28.1536 34.6076 28.3782C34.8296 28.6029 35.0314 28.848 35.203 29.1237C35.3846 29.3892 35.536 29.6751 35.6571 29.9712C35.6672 29.9916 35.6672 30.0121 35.6772 30.0223C35.7832 30.2775 35.8639 30.543 35.9245 30.7983C35.6369 30.9923 35.3594 31.2068 35.0869 31.4212H34.7337C34.7236 31.3446 34.7085 31.268 34.6934 31.1915C34.6429 30.9566 34.5824 30.7422 34.5016 30.5379C34.4915 30.5277 34.4915 30.5175 34.4814 30.4971C34.3805 30.2622 34.2695 30.0478 34.1383 29.8538C34.0072 29.6598 33.8659 29.476 33.7044 29.3126C33.543 29.1492 33.3613 28.996 33.1696 28.8735C32.9779 28.7407 32.766 28.6284 32.5339 28.5263C32.3219 28.4344 32.0898 28.3629 31.8477 28.3119C31.6156 28.2608 31.3633 28.2404 31.111 28.2404C30.8587 28.2404 30.6165 28.2608 30.3744 28.3119C30.1423 28.3629 29.9303 28.4242 29.7285 28.5059C29.7184 28.5161 29.7083 28.5161 29.6882 28.5263C29.4561 28.6284 29.2441 28.7407 29.0524 28.8735C28.8607 29.0062 28.679 29.1492 28.5176 29.3126C28.3561 29.476 28.2048 29.6598 28.0837 29.8538C27.9525 30.0478 27.8415 30.2622 27.7406 30.4971C27.6497 30.7115 27.5791 30.9464 27.5286 31.1915C27.5135 31.268 27.4984 31.3446 27.4883 31.4212H26.1865C26.2017 31.2527 26.2269 31.0893 26.2622 30.926C26.3228 30.6094 26.4237 30.2929 26.5549 29.9763C26.686 29.6802 26.8374 29.3943 27.009 29.1288C27.1805 28.8633 27.3823 28.6182 27.6043 28.3833C27.8263 28.1587 28.0685 27.9545 28.3309 27.7809C28.5933 27.5971 28.8758 27.4439 29.1685 27.3214C29.1886 27.3112 29.2088 27.3112 29.2189 27.301C29.5116 27.1784 29.8143 27.0865 30.1069 27.0252C30.4299 26.964 30.7629 26.9231 31.0959 26.9231H31.116V26.918ZM8.68343 14.7359H53.1803V45.0227H8.68343V14.7359ZM29.1987 46.8965H32.8013C33.1393 46.8965 33.4168 47.1773 33.4168 47.5194C33.4168 47.8614 33.1393 48.1423 32.8013 48.1423H29.1987C28.8607 48.1423 28.5832 47.8614 28.5832 47.5194C28.5832 47.1722 28.8607 46.8965 29.1987 46.8965Z" fill="url(#paint0_linear_990_18143)"/>
<defs>
<linearGradient id="paint0_linear_990_18143" x1="31" y1="13" x2="31" y2="49" gradientUnits="userSpaceOnUse">
<stop stop-color="#2B6FF6"/>
<stop offset="1"/>
</linearGradient>
</defs>
</svg>
