<svg width="52" height="53" viewBox="0 0 52 53" fill="none" xmlns="http://www.w3.org/2000/svg">
<rect y="0.5" width="52" height="52" rx="26" fill="#2B6FF6"/>
<path d="M16.1005 38.3996C14.1426 36.4415 12.8092 33.947 12.269 31.2312C11.7288 28.5156 12.0061 25.7005 13.0657 23.1424C14.1253 20.5843 15.9197 18.3978 18.222 16.8594C20.5243 15.3211 23.231 14.5 26 14.5C28.769 14.5 31.4757 15.3211 33.778 16.8594C36.0803 18.3978 37.8746 20.5843 38.9343 23.1424C39.9939 25.7005 40.2713 28.5156 39.731 31.2312C39.1908 33.947 37.8575 36.4415 35.8996 38.3996" stroke="white" stroke-width="2" stroke-linecap="round" stroke-linejoin="round"/>
<path d="M23 28.5L30 25" stroke="white" stroke-width="2" stroke-linecap="round" stroke-linejoin="round"/>
</svg>
