<svg width="62" height="62" viewBox="0 0 62 62" fill="none" xmlns="http://www.w3.org/2000/svg">
<path fill-rule="evenodd" clip-rule="evenodd" d="M41.6797 45.888C41.6797 48.4087 37.781 50.4253 32.9796 50.4253C28.1782 50.4253 24.2795 48.4087 24.2795 45.888C24.2858 45.4048 24.4236 44.9325 24.6779 44.5217C25.7825 46.377 29.0809 47.718 32.9796 47.718C35.5518 47.718 39.8337 46.9567 41.2812 44.5217C41.5349 44.9329 41.6726 45.4049 41.6797 45.888ZM21.324 45.4141C21.324 48.4944 16.5478 51 10.662 51C4.77621 51 0 48.4944 0 45.4141C0.012425 44.8238 0.186895 44.2483 0.504352 43.7504C1.86106 46.019 5.90092 47.6676 10.6771 47.6676C13.8293 47.6676 19.0746 46.7299 20.8499 43.7504C21.1691 44.2512 21.3437 44.8304 21.3543 45.4241L21.324 45.4141ZM21.3845 39.5962C21.3845 42.6765 16.6083 45.1821 10.7225 45.1821C4.83674 45.1821 0.0605222 42.6765 0.0605222 39.5962C0.0718812 39.0026 0.246363 38.4236 0.564874 37.9224C1.92158 40.1911 5.96144 41.8397 10.7377 41.8397C13.8899 41.8397 19.1351 40.907 20.9104 37.9224C21.2268 38.4245 21.4011 39.003 21.4148 39.5962H21.3845ZM14.5707 25.097L14.4446 26.4834L9.21451 26.0296C9.6502 26.5817 9.95692 27.2242 10.1123 27.9101L8.85138 27.7992C8.73429 27.3585 8.54329 26.9409 8.28651 26.564C8.02381 26.1448 7.6455 25.8104 7.1971 25.6011L7.29797 24.4769L14.5707 25.097ZM10.8839 22.9241C15.645 22.9241 19.4831 24.4869 19.4831 26.3624C19.4831 28.2378 15.5593 29.7956 10.7225 29.7956C5.88579 29.7956 1.96193 28.2479 1.96193 26.3573C1.96193 24.4668 5.7597 22.9543 10.4905 22.919L10.8839 22.9241ZM10.8486 21.7847C16.6739 21.7847 21.3845 24.3054 21.3845 27.3707C21.3845 30.4359 16.6083 32.9516 10.7225 32.9516C4.83674 32.9516 0.0605222 30.451 0.0605222 27.3656C0.0605222 24.2802 4.77117 21.82 10.6015 21.7797L10.8486 21.7847ZM21.3845 33.5918C21.3845 36.6722 16.6083 39.1778 10.7225 39.1778C4.83674 39.1778 0.0605222 36.6923 0.0605222 33.5918C0.0623766 33.0274 0.215644 32.4737 0.504352 31.9886C1.82071 34.2875 5.89083 35.9714 10.7175 35.9714C13.8747 35.9714 19.1906 35.0236 20.9256 31.9886C21.2156 32.4737 21.3722 33.0268 21.3795 33.5918H21.3845ZM47.5705 29.967C47.0876 30.072 46.5828 29.9809 46.1671 29.7138C45.7514 29.4467 45.4589 29.0255 45.3539 28.5428C45.2489 28.0601 45.34 27.5555 45.6072 27.14C45.8744 26.7244 46.2958 26.432 46.7787 26.3271L50.067 25.6011L37.0144 18.0389L32.3391 23.1257C32.0722 23.4368 31.7105 23.6517 31.3095 23.7373C30.9086 23.8229 30.4907 23.7746 30.1199 23.5996L11.1966 14.5099C10.7645 14.2908 10.4352 13.9115 10.2791 13.4529C10.123 12.9944 10.1525 12.493 10.3612 12.056C10.57 11.6189 10.9415 11.2807 11.3963 11.1137C11.8511 10.9468 12.3533 10.9642 12.7954 11.1623L30.483 19.6471L35.3046 14.399C35.5911 14.0865 35.9758 13.8811 36.3949 13.817C36.8141 13.7528 37.2426 13.8336 37.6095 14.0461L52.3316 22.6165L51.5246 18.9464C51.4372 18.4697 51.5389 17.9777 51.808 17.5746C52.0771 17.1715 52.4926 16.889 52.9666 16.7867C53.4405 16.6845 53.9356 16.7707 54.3471 17.027C54.7585 17.2833 55.0541 17.6896 55.1711 18.1599L56.8808 25.954V26.0397C56.9327 26.2794 56.9368 26.5269 56.8929 26.7682C56.8489 27.0094 56.7578 27.2397 56.6248 27.4457C56.4918 27.6517 56.3194 27.8295 56.1175 27.9689C55.9157 28.1083 55.6883 28.2065 55.4485 28.258L47.5705 29.967ZM56.4168 38.7795L56.316 39.9088L52.0441 39.5408C52.3961 39.9851 52.6458 40.5015 52.7754 41.0532L51.7667 40.9624C51.6698 40.6027 51.5129 40.2618 51.3027 39.9542C51.0889 39.6106 50.7808 39.3358 50.415 39.1626L50.4957 38.2451L56.432 38.7492L56.4168 38.7795ZM53.7488 37.015C57.476 37.1108 60.4264 38.3258 60.4264 39.8079C60.4264 41.2901 57.2238 42.616 53.2747 42.616C49.3256 42.616 46.123 41.3557 46.123 39.8079C46.123 38.2602 49.1491 37.0805 52.9267 37.0099C53.2041 37.0099 53.4765 37.0099 53.7488 37.0099V37.015ZM53.7488 36.0823C58.3434 36.2033 62 38.1997 62 40.6196C62 43.1404 58.1014 45.1821 53.2999 45.1821C48.4985 45.1821 44.5999 43.1353 44.5999 40.6196C44.5999 38.1039 48.2816 36.1781 52.9015 36.0823C53.1839 36.0823 53.4613 36.0823 53.7488 36.0823ZM61.6318 44.6024C61.8674 44.9995 61.9944 45.4515 62 45.9132C62 48.4339 58.1014 50.4505 53.2999 50.4505C48.4985 50.4505 44.5999 48.4339 44.5999 45.9132C44.6023 45.4511 44.7295 44.9982 44.968 44.6024C46.0423 46.4828 49.3609 47.8541 53.2999 47.8541C55.9024 47.8541 60.2247 47.0677 61.6318 44.6024ZM36.1217 33.6674L36.0208 34.7967L31.7742 34.4186C32.1246 34.8639 32.3742 35.3799 32.5055 35.9311L31.4968 35.8403C31.3999 35.4806 31.243 35.1397 31.0328 34.832C30.8225 34.4862 30.5157 34.2094 30.1502 34.0355L30.1855 33.1633L36.1217 33.6674ZM33.4436 31.8979C37.1758 31.9937 40.1263 33.2137 40.1263 34.6959C40.1263 36.1781 36.9236 37.499 32.9796 37.499C29.0355 37.499 25.8279 36.2335 25.8279 34.6757C25.8279 33.1179 28.8288 31.9533 32.5963 31.8777L33.4436 31.8979ZM33.4083 30.9652C38.008 31.0862 41.6797 33.0826 41.6797 35.5025C41.6797 37.9224 37.781 40.0399 32.9796 40.0399C28.1782 40.0399 24.2795 37.9981 24.2795 35.5025C24.2795 33.007 27.9764 31.0459 32.6064 30.9652C32.8737 30.9652 33.1107 30.9652 33.4083 30.9652ZM41.6797 40.7961C41.6797 43.3168 37.781 45.3586 32.9796 45.3586C28.1782 45.3586 24.2795 43.3118 24.2795 40.7961C24.2806 40.3354 24.4079 39.8838 24.6477 39.4903C25.722 41.3607 29.0406 42.7421 32.9796 42.7421C35.5568 42.7421 39.8993 41.9657 41.3115 39.4903C41.5458 39.8861 41.6727 40.3362 41.6797 40.7961Z" fill="url(#paint0_linear_992_18167)"/>
<defs>
<linearGradient id="paint0_linear_992_18167" x1="31" y1="11" x2="31" y2="51" gradientUnits="userSpaceOnUse">
<stop stop-color="#2B6FF6"/>
<stop offset="1"/>
</linearGradient>
</defs>
</svg>
