<svg width="180" height="180" viewBox="0 0 180 180" fill="none" xmlns="http://www.w3.org/2000/svg">
<rect width="180" height="180" fill="#2B6FF6"/>
<path d="M60.3011 127.114V130H24.8983V127.114C31.4544 125.248 31.6305 118.283 31.6305 109.625V72.4339C31.6305 66.4887 30.0845 63.4295 23 59.697V56.811L53.2166 50V109.606C53.2166 118.937 54.2538 125.402 60.3011 127.095V127.114ZM108.151 127.114V130H72.5717V127.114C79.1277 125.248 79.48 117.937 79.48 109.278V76.3396C79.48 66.835 74.8223 62.2367 67.0528 62.2367C64.4695 62.2367 61.6906 63.6027 59.4595 65.469L57.3851 62.7561C62.7278 55.7912 70.6733 50 79.3039 50C99.52 50 101.066 64.9495 101.066 76.6667V109.278C101.066 118.61 101.927 125.575 108.151 127.114ZM156 127.114V130H120.421V127.114C126.977 125.248 127.329 117.937 127.329 109.278V76.3396C127.329 66.835 122.496 62.2367 114.726 62.2367C112.143 62.2367 109.364 63.6027 107.133 65.469L104.706 62.7561C109.873 55.7912 118.523 50 127.153 50C140.618 50 148.916 55.2718 148.916 75.8201V109.278C148.916 118.61 149.777 125.575 156 127.114Z" fill="white"/>
</svg>
