<svg width="62" height="62" viewBox="0 0 62 62" fill="none" xmlns="http://www.w3.org/2000/svg">
<path fill-rule="evenodd" clip-rule="evenodd" d="M17.492 38.1238H44.503C44.9285 38.1238 45.2789 38.477 45.2789 38.9059V56.9442C45.2789 57.3731 44.9285 57.7263 44.503 57.7263H17.492C17.0665 57.7263 16.7161 57.3731 16.7161 56.9442V38.9059C16.7161 38.477 17.0665 38.1238 17.492 38.1238ZM30.3167 24.2078H31.6833V25.5852H30.3167V24.2078ZM30.3167 21.4579H31.6833V22.8353H30.3167V21.4579ZM9.86328 45.6721V44.2947H11.2298V45.6721H9.86328ZM32.0237 28.6177V27.2402H33.3902V28.6177H32.0237ZM34.7518 28.6177V27.2402H36.1184V28.6177H34.7518ZM37.4799 28.6177V27.2402H38.8465V28.6177H37.4799ZM40.2131 28.6177V27.2402H41.5796V28.6177H40.2131ZM42.9412 28.6177V27.2402H44.3077V28.6177H42.9412ZM45.6743 28.6177V27.2402H47.0409V28.6177H45.6743ZM48.4024 28.6177V27.2402H49.769V28.6177H48.4024ZM51.1356 28.6177V27.2402H52.5021V28.6177H51.1356ZM53.8637 27.6943V27.2402H54.3142H54.995V27.9264V28.8498H53.6284V27.9264L53.8637 27.6943ZM53.6334 30.2273H55V31.6047H53.6334V30.2273ZM53.6334 32.9772H55V34.3547H53.6334V32.9772ZM53.6334 35.7321H55V37.1096H53.6334V35.7321ZM53.6334 38.482H55V39.8595H53.6334V38.482ZM53.6334 41.237H55V42.6145H53.6334V41.237ZM54.3442 43.9869H54.995V44.6428V45.329H54.3142H53.6034V43.9516H54.3142L54.3442 43.9869ZM52.2368 43.9566V45.3341H50.8703V43.9566H52.2368ZM29.5358 27.2402V28.6177H28.1743V27.2402H29.5358ZM26.8077 27.2402V28.6177H25.4411V27.2402H26.8077ZM24.0796 27.2402V28.6177H22.713V27.2402H24.0796ZM21.3464 27.2402V28.6177H19.9799V27.2402H21.3464ZM18.6183 27.2402V28.6177H17.2517V27.2402H18.6183ZM15.8852 27.2402V28.6177H14.5186V27.2402H15.8852ZM13.1571 27.2402V28.6177H11.7905V27.2402H13.1571ZM10.4239 27.2402V28.6177H9.06236V27.2402H10.4239ZM7.6958 27.2402V27.2554L8.36657 27.9315V29.2938H7V27.9315V27.2453H7.68078H7.6958V27.2402ZM7 30.6663H8.36657V32.0437H7V30.6663ZM7 33.4212H8.36657V34.7987H7V33.4212ZM7 36.1711H8.36657V37.5486H7V36.1711ZM7 38.9261H8.36657V40.3035H7V38.9261ZM7 41.676H8.36657V43.0534H7V41.676ZM7 44.4309H7.55063L7.68579 44.2947H8.50172V45.6721H7.68078H7V44.9859V44.4309ZM36.9093 7.16342C36.7291 7.25424 36.5539 7.35011 36.3737 7.45607C35.838 7.7689 35.3124 8.15742 34.7768 8.60144L33.6305 7.27442C34.026 6.90609 34.4565 6.56802 34.912 6.26528C35.2774 6.02814 35.6578 5.81622 36.0483 5.62953C36.2035 5.54879 36.3636 5.47816 36.5238 5.40752C35.768 4.05527 34.6767 3.0865 33.4403 2.48606C32.2039 1.89067 30.8223 1.65857 29.4808 1.78975C28.1442 1.92094 26.8477 2.41037 25.7715 3.24796C24.5301 4.21673 23.589 5.66989 23.2236 7.58725L23.1085 8.18769L22.5128 8.29365C21.9321 8.39457 21.4115 8.53585 20.956 8.71749C20.5155 8.88904 20.12 9.10096 19.7746 9.35325C19.4993 9.55508 19.259 9.77709 19.0588 10.0243C18.4331 10.7812 18.1428 11.7247 18.1528 12.6784C18.1578 13.6522 18.4731 14.631 19.0538 15.4384C19.2691 15.736 19.5193 16.0136 19.8047 16.2507C20.095 16.4929 20.4204 16.6897 20.7858 16.8461C21.1462 16.9975 21.5517 17.1034 21.9972 17.169H39.2219C40.0629 16.9672 40.7987 16.6897 41.4294 16.3365C42.0552 15.9833 42.5658 15.5544 42.9462 15.0397C43.5419 14.2425 43.8322 13.1173 43.8422 11.9619C43.8572 10.7509 43.5619 9.52985 42.9912 8.64685C42.8261 8.38952 42.6458 8.16246 42.4556 7.95559C41.5996 7.02718 40.5084 6.61848 39.3821 6.61344C38.5612 6.60334 37.7152 6.80517 36.9093 7.16342ZM38.2508 4.93827C38.6312 4.87772 39.0117 4.84744 39.3871 4.85249C40.9789 4.86258 42.5207 5.43779 43.7321 6.75472C43.9874 7.03223 44.2277 7.34002 44.4479 7.68817C45.2088 8.86381 45.5942 10.4381 45.5792 11.977C45.5642 13.4857 45.1587 14.9893 44.3328 16.0943C43.7972 16.8158 43.1014 17.4011 42.2754 17.8704C41.4745 18.3194 40.5484 18.6625 39.5022 18.9047L39.307 18.93H21.9621L21.852 18.9199C21.2163 18.8391 20.6406 18.6878 20.12 18.4708C19.5794 18.2488 19.1039 17.9562 18.6834 17.603C18.2829 17.2699 17.9375 16.8865 17.6372 16.4727C16.8463 15.3728 16.4208 14.0256 16.4108 12.6884C16.4008 11.3362 16.8213 9.98396 17.7223 8.89409C18.0126 8.54089 18.358 8.21797 18.7535 7.93036C19.214 7.59735 19.7396 7.31479 20.3303 7.08269C20.7407 6.92122 21.1762 6.79004 21.6368 6.67903C22.1574 4.59011 23.2736 2.97549 24.7053 1.86039C26.0418 0.815936 27.6537 0.205407 29.3156 0.0439446C30.9675 -0.117518 32.6694 0.165041 34.1912 0.906758C35.8581 1.70902 37.3097 3.05118 38.2508 4.93827ZM27.4785 58.8061H34.5215C34.5416 60.0372 35.0421 61.1321 36.4037 62H25.5963C26.6826 61.2028 27.4835 60.2391 27.4785 58.8061ZM30.9975 55.0874C31.5481 55.0874 31.9936 55.5365 31.9936 56.0915C31.9936 56.6465 31.5481 57.0956 30.9975 57.0956C30.4469 57.0956 30.0014 56.6465 30.0014 56.0915C30.0014 55.5365 30.4469 55.0874 30.9975 55.0874ZM19.0538 39.5971H42.9462C43.3216 39.5971 43.632 39.91 43.632 40.2884V53.7654C43.632 54.1439 43.3216 54.4567 42.9462 54.4567H19.0538C18.6784 54.4567 18.368 54.1439 18.368 53.7654V40.2884C18.368 39.9049 18.6734 39.5971 19.0538 39.5971Z" fill="url(#paint0_linear_991_18153)"/>
<defs>
<linearGradient id="paint0_linear_991_18153" x1="31" y1="0" x2="31" y2="62" gradientUnits="userSpaceOnUse">
<stop stop-color="#2B6FF6"/>
<stop offset="1"/>
</linearGradient>
</defs>
</svg>
