<svg width="62" height="62" viewBox="0 0 62 62" fill="none" xmlns="http://www.w3.org/2000/svg">
<path d="M44.3961 52.5081C43.9122 52.3118 43.3711 52.3118 42.8872 52.5081C42.6448 52.6131 42.4259 52.7657 42.2434 52.957C42.1419 53.064 42.051 53.1805 41.9718 53.305C41.9273 53.3721 41.8886 53.443 41.8561 53.5168H38.6622V50.7479C38.1797 50.9722 37.6736 51.1414 37.1533 51.2522L36.8868 51.2976V54.3994C36.8881 54.6358 36.9823 54.862 37.149 55.0292C37.3156 55.1963 37.5413 55.2908 37.777 55.2921H41.8712L41.9768 55.4686C42.0473 55.5755 42.1282 55.6752 42.2182 55.7662C42.4024 55.9541 42.6233 56.1017 42.8671 56.1999C43.1057 56.3015 43.3623 56.3538 43.6215 56.3538C43.8807 56.3538 44.1373 56.3015 44.376 56.1999C44.6191 56.1005 44.8397 55.953 45.0248 55.7662C45.2105 55.5802 45.3575 55.359 45.4573 55.1156C45.5563 54.8739 45.6076 54.6153 45.6082 54.354C45.6065 53.9583 45.4888 53.5718 45.2697 53.2427C45.0505 52.9136 44.7398 52.6564 44.376 52.503L44.3961 52.5081ZM21.2294 43.7071C20.6779 43.7006 20.1311 43.6052 19.6098 43.4247C18.4824 43.0198 17.4813 42.3239 16.7077 41.4073C15.8625 40.4466 15.3138 39.2604 15.1284 37.9928C15.0222 37.2349 15.0563 36.4638 15.229 35.7182C14.6578 35.2271 14.1658 34.6504 13.7704 34.0085C13.1553 33.0388 12.8258 31.9147 12.8197 30.7655C12.842 29.5257 13.2558 28.3249 14.0017 27.3359C14.561 26.5917 15.2411 25.9473 16.0136 25.4294C16.0136 25.1621 16.0136 24.9251 16.0136 24.6426C16.0547 23.062 16.6112 21.5385 17.5979 20.3052C18.4609 19.1993 19.7034 18.455 21.0835 18.2172H21.2344C21.2817 17.9558 21.3524 17.6992 21.4456 17.4506C21.8887 16.3038 22.7107 15.3442 23.7744 14.7321C24.8477 14.0909 26.1183 13.8666 27.3455 14.1017C28.0627 14.2658 28.7353 14.5858 29.3158 15.0389C29.8963 15.4921 30.3706 16.0674 30.7053 16.7243C30.9918 16.1374 31.3933 15.6144 31.8858 15.1866C32.3784 14.7588 32.9519 14.4349 33.5721 14.2344C34.1923 14.0338 34.8465 13.9607 35.4955 14.0194C36.1445 14.078 36.7751 14.2673 37.3495 14.5758C38.3388 15.0766 39.1554 15.8637 39.6933 16.8353C39.9307 17.262 40.1003 17.7231 40.1963 18.2021C40.8449 18.1682 41.494 18.2607 42.1076 18.4744C43.2605 18.8827 44.2822 19.5953 45.065 20.5372C45.9198 21.5335 46.4592 22.7626 46.6142 24.0677C46.6865 24.7659 46.644 25.4713 46.4884 26.1557C47.1225 26.6967 47.663 27.3391 48.0879 28.0571L48.1231 28.1328C48.6727 29.0846 48.9494 30.1702 48.9228 31.2698C48.8845 32.4546 48.4842 33.599 47.776 34.5481C47.202 35.306 46.5008 35.958 45.7038 36.4747C45.8185 38.1225 45.3755 39.7609 44.4464 41.1249C44.0164 41.782 43.4576 42.3444 42.8039 42.778C42.1501 43.2115 41.4152 43.5071 40.6439 43.6466C40.3373 44.9391 39.563 46.0714 38.4711 46.824C37.8326 47.3063 37.096 47.6416 36.3137 47.8064C35.5313 47.9711 34.7225 47.9612 33.9444 47.7773C33.255 47.5758 32.6204 47.2194 32.0887 46.7353C31.5571 46.2512 31.1425 45.652 30.8763 44.9832C30.5519 45.7048 30.0652 46.3413 29.4544 46.8427C28.8435 47.3441 28.1251 47.6968 27.3555 47.8731C26.6183 48.0174 25.8586 47.9992 25.129 47.8198C24.3995 47.6404 23.7176 47.3041 23.1306 46.8341L23.0652 46.7786C22.0917 46.0178 21.4311 44.9246 21.2093 43.7071H21.2294ZM31.8319 18.6963V42.1033C31.9452 42.2332 32.0201 42.3921 32.0482 42.5623C32.4003 44.6906 33.3358 45.7195 34.4021 46.012C34.9168 46.1235 35.4495 46.1207 35.963 46.004C36.4764 45.8872 36.9583 45.6593 37.3746 45.3362C37.803 45.061 38.1621 44.6901 38.4239 44.2527C38.6856 43.8152 38.8429 43.323 38.8835 42.8144C38.8835 41.7049 38.1039 40.4591 36.0015 39.3848C35.8901 39.3321 35.7903 39.2575 35.7081 39.1655C35.626 39.0734 35.5631 38.9657 35.5232 38.8488C35.4833 38.7318 35.4672 38.6081 35.4759 38.4848C35.4846 38.3616 35.5179 38.2413 35.5738 38.1312C35.6297 38.0211 35.7071 37.9234 35.8014 37.8438C35.8957 37.7642 36.005 37.7045 36.1227 37.668C36.2405 37.6316 36.3643 37.6193 36.487 37.6318C36.6096 37.6442 36.7284 37.6813 36.8365 37.7407C39.13 38.9158 40.2617 40.3633 40.6037 41.7755C41.5585 41.5106 42.3823 40.9018 42.9173 40.0657C43.6889 38.9231 44.0081 37.5331 43.8126 36.1671V36.1015C43.7921 35.9243 43.8229 35.7449 43.9014 35.5848C43.9799 35.4246 44.1027 35.2906 44.2552 35.1987C45.0356 34.7558 45.7197 34.1608 46.2671 33.4486C46.759 32.8031 47.04 32.021 47.0719 31.2093C47.0875 30.4481 46.8925 29.6974 46.5085 29.0406L46.4683 28.9801C46.068 28.2997 45.5362 27.7064 44.9041 27.235C44.7368 27.1211 44.6113 26.9554 44.5468 26.7632C44.4823 26.571 44.4824 26.363 44.547 26.1708C44.7552 25.5549 44.8272 24.9009 44.7582 24.2543C44.6392 23.3215 44.2491 22.4445 43.6366 21.7325C43.0703 21.045 42.3303 20.5225 41.494 20.2195C41.0658 20.0653 40.6092 20.0068 40.1561 20.048H40.1158C39.9102 20.8082 39.5353 21.5118 39.0193 22.1058C38.8626 22.2923 38.6384 22.4089 38.396 22.4297C38.1535 22.4505 37.9128 22.3739 37.7267 22.2167C37.5406 22.0595 37.4244 21.8347 37.4037 21.5916C37.3829 21.3485 37.4593 21.1071 37.6161 20.9205C38.0195 20.4989 38.2797 19.9601 38.3592 19.3812C38.4387 18.8023 38.3335 18.213 38.0587 17.6977C37.7039 17.0576 37.1637 16.5405 36.5095 16.2149C35.8746 15.8767 35.144 15.7647 34.4373 15.8972C33.4314 16.109 32.4254 16.9513 31.8219 18.7014L31.8319 18.6963ZM29.986 42.1386V19.8362L29.9609 19.8009V19.7656V19.7252V19.6849V19.6294C29.3976 17.3396 28.281 16.2855 27.1191 16.0434C26.3368 15.8997 25.529 16.0506 24.8507 16.4671C24.1652 16.8652 23.6335 17.4836 23.3418 18.2222C22.9797 19.2007 23.1859 20.396 24.388 21.5157C24.5441 21.7043 24.619 21.9473 24.5964 22.1913C24.5738 22.4354 24.4554 22.6604 24.2673 22.8169C24.0792 22.9734 23.8368 23.0486 23.5935 23.0259C23.3501 23.0032 23.1257 22.8844 22.9696 22.6958C22.1644 21.9909 21.5822 21.0653 21.2948 20.0329C20.3881 20.2135 19.5781 20.7191 19.0163 21.4551C18.2762 22.3819 17.8592 23.5263 17.8293 24.7132C17.8184 25.0672 17.8369 25.4215 17.8846 25.7724C17.91 25.9498 17.8831 26.1308 17.8071 26.293C17.7311 26.4552 17.6095 26.5916 17.4571 26.6853C16.6941 27.1343 16.0246 27.7268 15.4855 28.4303C14.9731 29.1027 14.6846 29.9196 14.6606 30.7655C14.6626 31.573 14.8928 32.3634 15.3245 33.0451C15.7099 33.6614 16.2082 34.1987 16.7932 34.6288C16.956 34.7441 17.0776 34.9087 17.14 35.0985C17.2025 35.2882 17.2026 35.4931 17.1402 35.6829C16.9112 36.3448 16.8405 37.0514 16.934 37.7457C17.0772 38.6666 17.4824 39.5264 18.1009 40.2221C18.6634 40.8818 19.3882 41.3825 20.2033 41.6746C20.5612 41.804 20.9395 41.8673 21.3199 41.8612C21.7072 40.4036 22.8841 38.9309 25.2129 37.7356C25.4303 37.6239 25.6831 37.6034 25.9156 37.6786C26.1481 37.7538 26.3413 37.9185 26.4527 38.1366C26.5641 38.3546 26.5845 38.6081 26.5095 38.8412C26.4345 39.0744 26.2703 39.2681 26.0528 39.3798C23.8398 40.5095 23.0048 41.836 23.0048 43.0061C23.0249 43.4615 23.1449 43.9068 23.3561 44.3104C23.5674 44.714 23.8647 45.066 24.2271 45.3412L24.2824 45.3765C24.6536 45.6803 25.0853 45.9008 25.5486 46.0235C26.0118 46.1461 26.4959 46.168 26.9682 46.0877C28.1351 45.8456 29.2517 44.7865 29.815 42.4917C29.8441 42.3638 29.9027 42.2446 29.986 42.1436V42.1386ZM21.5764 25.4496C21.753 25.2917 21.9834 25.208 22.2198 25.2159C22.4563 25.2238 22.6806 25.3227 22.8463 25.492C23.0119 25.6614 23.1062 25.8882 23.1095 26.1254C23.1128 26.3626 23.0249 26.592 22.864 26.766C21.8741 27.7364 21.2927 29.0504 21.2394 30.4376C21.1892 31.8766 21.661 33.285 22.5673 34.4018C22.6429 34.4972 22.699 34.6066 22.7325 34.7237C22.766 34.8409 22.7761 34.9635 22.7624 35.0845C22.7486 35.2056 22.7112 35.3228 22.6522 35.4293C22.5933 35.5359 22.514 35.6298 22.4189 35.7056C22.3238 35.7814 22.2147 35.8377 22.0979 35.8713C21.9811 35.9049 21.8588 35.915 21.7381 35.9012C21.6173 35.8874 21.5005 35.8499 21.3942 35.7908C21.288 35.7317 21.1943 35.6522 21.1187 35.5568C19.9332 34.0946 19.3183 32.2501 19.3885 30.367C19.4605 28.5099 20.2379 26.7507 21.5613 25.4496H21.5764ZM37.8877 26.2263C37.7886 26.1551 37.7045 26.065 37.6401 25.9612C37.5757 25.8574 37.5324 25.7419 37.5126 25.6213C37.4927 25.5007 37.4967 25.3774 37.5244 25.2584C37.5521 25.1393 37.6029 25.0269 37.6739 24.9276C37.7449 24.8282 37.8347 24.7439 37.9383 24.6794C38.0418 24.6148 38.1569 24.5714 38.2772 24.5515C38.3975 24.5315 38.5205 24.5356 38.6392 24.5634C38.7579 24.5911 38.87 24.642 38.969 24.7132C39.1937 24.878 39.405 25.0461 39.6028 25.2176C40.9917 26.4651 41.8489 28.2005 41.9969 30.0644C42.1396 31.9091 41.6166 33.7437 40.5232 35.234C40.3585 35.4645 40.1804 35.6851 39.9901 35.8947C39.9092 35.9848 39.8113 36.058 39.7022 36.1102C39.5931 36.1624 39.4748 36.1925 39.3541 36.1988C39.2333 36.2051 39.1125 36.1875 38.9986 36.147C38.8846 36.1066 38.7797 36.044 38.6899 35.9628C38.6001 35.8817 38.5271 35.7836 38.475 35.6742C38.423 35.5647 38.393 35.4461 38.3867 35.325C38.3804 35.204 38.3979 35.0829 38.4383 34.9686C38.4787 34.8543 38.5411 34.7491 38.622 34.6591C38.7678 34.498 38.9054 34.3296 39.0344 34.1547C39.8652 33.0178 40.2646 31.6213 40.1611 30.2157C40.049 28.8232 39.408 27.5269 38.3705 26.5945C38.2108 26.455 38.0429 26.3253 37.8676 26.2061L37.8877 26.2263ZM25.0469 52.8763V51.4086C24.6531 51.3881 24.2623 51.329 23.88 51.2321C23.6688 51.1766 23.4676 51.1161 23.2664 51.0455V51.9836H20.6409C20.6057 51.9129 20.5655 51.8474 20.5252 51.7818C20.448 51.6604 20.3587 51.5472 20.2586 51.4439C20.0731 51.2577 19.8526 51.1102 19.6098 51.0102C19.3688 50.9109 19.1109 50.8595 18.8503 50.8588C18.5903 50.8591 18.3329 50.9109 18.0929 51.0113C17.853 51.1117 17.6352 51.2587 17.4521 51.4439C17.2691 51.6321 17.1224 51.8527 17.0195 52.0945C16.9199 52.3377 16.8686 52.5982 16.8686 52.8611C16.8689 53.1246 16.9219 53.3853 17.0246 53.6277C17.1205 53.8636 17.2625 54.0779 17.442 54.2582C17.6222 54.4425 17.8378 54.5884 18.0758 54.6869C18.5597 54.8832 19.1007 54.8832 19.5847 54.6869C19.8205 54.5889 20.0356 54.4469 20.2184 54.2683C20.3161 54.1697 20.4037 54.0615 20.4799 53.9455C20.5152 53.89 20.5554 53.8244 20.5856 53.7639H24.1063C24.342 53.7626 24.5677 53.6681 24.7344 53.501C24.9011 53.3339 24.9953 53.1076 24.9966 52.8712L25.0469 52.8763ZM29.3422 59.8716V49.7039C29.1298 49.9129 28.9029 50.1068 28.6632 50.2839C28.3226 50.5445 27.953 50.7645 27.5617 50.9395V59.0092H21.7525L21.6619 58.8579C21.5928 58.7605 21.5154 58.6694 21.4306 58.5855C21.2464 58.3977 21.0255 58.25 20.7817 58.1518C20.543 58.0508 20.2864 57.9988 20.0273 57.9988C19.7681 57.9988 19.5116 58.0508 19.2728 58.1518C19.0291 58.25 18.8082 58.3977 18.624 58.5855C18.4383 58.7715 18.2912 58.9927 18.1914 59.2361C18.0904 59.4772 18.0391 59.7362 18.0406 59.9977C18.0391 60.2608 18.0904 60.5215 18.1914 60.7643C18.2919 61.0074 18.4389 61.2284 18.624 61.4149C18.8095 61.6012 19.03 61.7486 19.2728 61.8487C19.5138 61.9479 19.7718 61.9993 20.0323 62C20.2893 62.0012 20.544 61.9515 20.7817 61.8537C21.0241 61.753 21.2446 61.6056 21.4306 61.42C21.5431 61.3034 21.6426 61.1749 21.7273 61.0367C21.7752 60.9592 21.8172 60.8783 21.8531 60.7946H28.452C28.6877 60.7933 28.9134 60.6988 29.08 60.5316C29.2467 60.3645 29.3409 60.1382 29.3422 59.9019V59.8716ZM34.1959 58.177V51.1161C33.5489 50.9134 32.9476 50.5862 32.4254 50.1528V58.1871L32.2293 58.298C32.1126 58.3772 32.0032 58.4667 31.9024 58.5653C31.7166 58.7514 31.5696 58.9725 31.4698 59.216C31.3708 59.4576 31.3196 59.7163 31.3189 59.9775C31.3182 60.2352 31.3678 60.4904 31.4648 60.729C31.6705 61.2162 32.0589 61.6029 32.5462 61.8058C33.0335 62.0086 33.5808 62.0113 34.0701 61.8134C34.3129 61.7133 34.5335 61.5659 34.719 61.3796C35.0937 61.0034 35.3052 60.4941 35.3074 59.9624C35.3057 59.7066 35.2563 59.4535 35.1616 59.216C35.0636 58.9715 34.9164 58.75 34.729 58.5653C34.6355 58.4677 34.5308 58.3814 34.4172 58.3081C34.3568 58.2678 34.2914 58.2325 34.2261 58.1972L34.1959 58.177ZM10.0534 37.1556H11.7132C11.6601 37.4794 11.6265 37.8062 11.6126 38.1341C11.6126 38.4064 11.6126 38.6737 11.6126 38.941H10.9638V41.5737L11.165 41.6847C11.2849 41.7656 11.3977 41.8567 11.502 41.957C11.7788 42.2379 11.9674 42.5941 12.0443 42.9814C12.1212 43.3687 12.083 43.7701 11.9345 44.1358C11.8356 44.3716 11.694 44.5871 11.5171 44.7713C11.3311 44.9569 11.1106 45.1043 10.8682 45.2051C10.3843 45.4014 9.84325 45.4014 9.35933 45.2051C9.12311 45.1056 8.90801 44.9618 8.72559 44.7814C8.54389 44.5989 8.39876 44.3832 8.29807 44.1459C8.19702 43.9031 8.1457 43.6424 8.14717 43.3793C8.14929 42.8574 8.35301 42.3567 8.71553 41.9823C8.81255 41.8829 8.92054 41.7949 9.03743 41.72C9.09275 41.6796 9.15814 41.6443 9.2185 41.609V38.0786C9.21947 37.8421 9.31345 37.6155 9.48004 37.4481C9.62751 37.2816 9.83233 37.1771 10.0534 37.1556ZM3.09738 32.8484H9.24867C9.44457 33.4658 9.71482 34.0569 10.0534 34.6086H3.9826V40.4541L4.13349 40.5499C4.23173 40.6177 4.32275 40.6954 4.40509 40.7819C4.77862 41.1568 4.99001 41.6641 4.99357 42.1941C4.99133 42.7258 4.77984 43.2351 4.40509 43.6113C4.21822 43.7959 3.99802 43.9431 3.75626 44.0451C3.51526 44.1443 3.25733 44.1957 2.99678 44.1964C2.73465 44.1954 2.47513 44.144 2.23227 44.0451C1.99114 43.9419 1.77115 43.7948 1.58344 43.6113C1.39987 43.4235 1.25314 43.2028 1.15089 42.9607C1.05223 42.7172 1.00101 42.4569 1 42.1941C1.00034 41.9366 1.04985 41.6815 1.14586 41.4426C1.24692 41.2013 1.39384 40.982 1.57841 40.797C1.69202 40.6812 1.82058 40.5811 1.96067 40.4995C2.03728 40.4405 2.11989 40.3898 2.20712 40.3482V33.7361C2.20712 33.6191 2.23018 33.5033 2.27498 33.3952C2.31979 33.2872 2.38544 33.1891 2.46817 33.1066C2.55091 33.0242 2.64909 32.9589 2.75707 32.9146C2.86505 32.8702 2.9807 32.8478 3.09738 32.8484ZM4.78735 27.9663H9.51525C9.42974 28.1479 9.35933 28.3345 9.29394 28.5161C9.15899 28.9201 9.05969 29.3353 8.99719 29.7568H4.78735C4.75456 29.8246 4.7176 29.8903 4.6767 29.9535C4.60031 30.0724 4.51089 30.1823 4.41012 30.2813C4.22596 30.4692 4.00507 30.6168 3.76129 30.715C3.52091 30.8164 3.26256 30.8678 3.00181 30.8663C2.74484 30.8675 2.49016 30.8178 2.25239 30.7201C2.0017 30.615 1.7756 30.4587 1.58847 30.2611C1.40274 30.0751 1.25571 29.854 1.15592 29.6105C0.960164 29.1253 0.960164 28.5827 1.15592 28.0974C1.25571 27.854 1.40274 27.6328 1.58847 27.4468C1.77545 27.2595 1.9974 27.111 2.24163 27.0098C2.48586 26.9085 2.74759 26.8565 3.01187 26.8567C3.26717 26.8561 3.5201 26.9058 3.75626 27.003C4.12701 27.1505 4.44444 27.4072 4.66664 27.7394C4.70687 27.8049 4.74208 27.8705 4.77729 27.9361L4.78735 27.9663ZM10.4407 17.7532C10.5397 17.9949 10.591 18.2535 10.5916 18.5148C10.5916 18.7777 10.5403 19.0381 10.4407 19.2814C10.343 19.5176 10.1994 19.7319 10.0182 19.9118C9.9116 20.0152 9.79539 20.108 9.67117 20.1892C9.60303 20.2319 9.5325 20.2706 9.45992 20.3052V23.5028H12.7544V23.6592C12.7544 23.7802 12.7544 23.9063 12.7544 24.0374C12.7578 24.0937 12.7472 24.1499 12.7235 24.201C12.6998 24.2521 12.6637 24.2964 12.6186 24.3299C12.2064 24.6219 11.8148 24.9421 11.4466 25.2882H8.54452C8.30968 25.2869 8.08476 25.1931 7.91823 25.0271C7.7517 24.861 7.6569 24.636 7.65427 24.4006V20.2901C7.59281 20.2596 7.53393 20.2242 7.47823 20.1842C7.37288 20.1136 7.27362 20.0343 7.18148 19.9471C6.99636 19.7606 6.84941 19.5396 6.74892 19.2965C6.64575 19.0542 6.59271 18.7934 6.593 18.5299C6.59525 18.2726 6.64469 18.0178 6.73886 17.7784C6.83816 17.5362 6.98529 17.3166 7.17142 17.1328C7.35558 16.945 7.57647 16.7973 7.82025 16.6991C8.06031 16.5962 8.31864 16.543 8.57973 16.5427C9.10998 16.545 9.61791 16.7571 9.99307 17.1328C10.1771 17.3202 10.3239 17.541 10.4256 17.7835L10.4407 17.7532ZM36.0066 9.07834V10.4603C36.1927 10.4603 36.3737 10.4603 36.5548 10.5107C36.9754 10.5714 37.3884 10.6762 37.7871 10.8234V9.99122H40.4176C40.4495 10.0611 40.4865 10.1285 40.5282 10.193C40.6089 10.3132 40.6998 10.4263 40.7999 10.5309C40.9853 10.7171 41.2059 10.8646 41.4487 10.9646C41.6897 11.0639 41.9476 11.1153 42.2082 11.1159C42.4703 11.1149 42.7298 11.0636 42.9727 10.9646C43.2078 10.8654 43.4227 10.7235 43.6064 10.546C43.8843 10.2647 44.0734 9.90766 44.1503 9.51934C44.2273 9.13101 44.1885 8.72857 44.039 8.36216C43.9382 8.12614 43.795 7.91073 43.6165 7.72668C43.4363 7.54233 43.2207 7.3965 42.9827 7.29798C42.7425 7.19611 42.4841 7.14462 42.2233 7.14667C41.9609 7.14519 41.7009 7.19665 41.4587 7.29798C41.2229 7.39594 41.0079 7.538 40.825 7.71659C40.7275 7.81403 40.6414 7.92233 40.5685 8.03938C40.5283 8.09485 40.493 8.16042 40.4578 8.22094H36.9371C36.7004 8.21137 36.4696 8.29622 36.2952 8.45692C36.1208 8.61762 36.017 8.84107 36.0066 9.07834ZM31.7112 2.10315V12.1902C31.9471 11.9523 32.201 11.7331 32.4707 11.5345C32.7849 11.3051 33.122 11.1091 33.4766 10.9495V2.99081H39.301C39.3312 3.04125 39.3614 3.09168 39.3966 3.14212C39.4639 3.23939 39.5396 3.33052 39.6229 3.41447C39.808 3.60124 40.0286 3.74875 40.2717 3.84821C40.6359 4.00044 41.0371 4.04048 41.424 3.96324C41.811 3.88599 42.1663 3.69495 42.4446 3.41447C42.6319 3.2298 42.7792 3.0083 42.8771 2.76385C42.9778 2.52782 43.0308 2.27412 43.033 2.01741C43.0328 1.75398 42.9798 1.49329 42.8771 1.2508C42.7779 1.00702 42.6308 0.785756 42.4446 0.600186C42.2604 0.408503 42.0398 0.255859 41.7957 0.151312C41.5547 0.0520401 41.2968 0.000653291 41.0362 6.78715e-06C40.7793 -0.000668255 40.5247 0.0490171 40.2868 0.146269C40.0454 0.248802 39.8253 0.395938 39.638 0.580011C39.5254 0.696546 39.4259 0.82508 39.3412 0.963319C39.2986 1.0437 39.26 1.12618 39.2256 1.21045H32.6015C32.3658 1.21178 32.1401 1.30625 31.9734 1.47338C31.8068 1.64051 31.7125 1.8668 31.7112 2.10315ZM26.8475 3.79778V10.6872C27.4633 10.8646 28.0436 11.1479 28.5626 11.5244L28.618 11.5648C28.6204 11.5498 28.6204 11.5344 28.618 11.5194V3.79778L28.8141 3.68682C28.9405 3.61036 29.0585 3.52076 29.1662 3.41951C29.3519 3.23351 29.499 3.01236 29.5988 2.7689C29.6896 2.52902 29.734 2.27397 29.7295 2.01741C29.7307 1.75973 29.6812 1.50435 29.5837 1.26593C29.3827 0.772908 28.9955 0.379566 28.5065 0.171703C28.0175 -0.0361597 27.4663 -0.0416766 26.9733 0.156356C26.7305 0.256419 26.5099 0.403854 26.3244 0.590098C26.1393 0.776607 25.9924 0.997629 25.8919 1.24071C25.789 1.48648 25.7376 1.75087 25.741 2.01741C25.7403 2.27341 25.7899 2.52704 25.8869 2.76385C25.9848 3.0083 26.1321 3.2298 26.3194 3.41447C26.413 3.51212 26.5176 3.59845 26.6312 3.67169C26.6943 3.71271 26.7598 3.74977 26.8274 3.78265L26.8475 3.79778ZM16.6574 9.46669C17.1413 9.66299 17.6824 9.66299 18.1663 9.46669C18.4018 9.36871 18.6155 9.22469 18.795 9.04304C18.8964 8.93603 18.9874 8.81949 19.0666 8.69503C19.1111 8.62784 19.1498 8.55698 19.1823 8.4832H22.361V11.2319C22.9305 10.9275 23.5427 10.7116 24.1768 10.5914V7.56528C24.1754 7.32893 24.0812 7.10264 23.9146 6.93551C23.7479 6.76838 23.5222 6.67391 23.2865 6.67258H19.1923L19.1068 6.51623C19.0363 6.40934 18.9554 6.30966 18.8654 6.21867C18.6813 6.0308 18.4604 5.88313 18.2166 5.78492C17.9765 5.682 17.7182 5.62882 17.4571 5.62857C17.2004 5.63036 16.9463 5.67996 16.7077 5.77484C16.4653 5.8756 16.2449 6.02295 16.0589 6.20858C15.8592 6.38936 15.6983 6.60901 15.5861 6.85415C15.4871 7.09581 15.4358 7.35446 15.4352 7.61572C15.4362 7.87858 15.4874 8.13881 15.5861 8.38233C15.7901 8.87243 16.1787 9.26206 16.6675 9.46669H16.6574ZM51.9054 24.7132H49.6269C49.6882 24.38 49.7268 24.043 49.7426 23.7045C49.7426 23.4372 49.7426 23.2002 49.7426 22.9127H51.0202V20.3153C50.8229 20.2148 50.6416 20.0856 50.482 19.932C50.2959 19.7483 50.1487 19.5287 50.0494 19.2864C49.9484 19.0436 49.8971 18.7829 49.8985 18.5198C49.9007 17.9979 50.1044 17.4972 50.4669 17.1228C50.6511 16.9349 50.872 16.7872 51.1157 16.689C51.3558 16.5861 51.6141 16.5329 51.8752 16.5327C52.1396 16.5324 52.4013 16.5856 52.6447 16.689C52.8806 16.7864 53.0944 16.9305 53.2735 17.1127C53.453 17.2969 53.5978 17.5122 53.701 17.7481C53.8967 18.2334 53.8967 18.776 53.701 19.2612C53.602 19.497 53.4605 19.7124 53.2835 19.8967C53.1852 19.9946 53.0774 20.0825 52.9616 20.159C52.9013 20.1943 52.8409 20.2346 52.7755 20.2649V23.7953C52.7765 23.9122 52.7544 24.0281 52.7103 24.1364C52.6663 24.2446 52.6013 24.343 52.519 24.4258C52.3521 24.5928 52.1261 24.6871 51.8903 24.688L51.9054 24.7132ZM58.8816 29.0204H52.2072C52.0322 28.4485 51.7925 27.8986 51.493 27.3813L51.4175 27.2501H58.0064V21.4299L57.8555 21.3391C57.7579 21.2685 57.6654 21.191 57.5789 21.1071C57.3948 20.9197 57.248 20.6989 57.1463 20.4565C56.9506 19.9713 56.9506 19.4287 57.1463 18.9435C57.248 18.701 57.3948 18.4802 57.5789 18.2928C57.859 18.0152 58.2141 17.8262 58.6004 17.7491C58.9866 17.672 59.3869 17.7102 59.7517 17.8591C60.2452 18.0558 60.6411 18.4401 60.8532 18.9283C61.0489 19.4136 61.0489 19.9561 60.8532 20.4414C60.7553 20.6858 60.608 20.9073 60.4206 21.092C60.3072 21.2059 60.1805 21.3058 60.0434 21.3896C59.9662 21.4376 59.8855 21.4797 59.802 21.5157V28.1479C59.8007 28.3842 59.7064 28.6105 59.5398 28.7777C59.3731 28.9448 59.1474 29.0393 58.9117 29.0406L58.8816 29.0204ZM57.1916 33.9025H51.8853C51.9758 33.7058 52.0563 33.5041 52.1267 33.3074C52.2654 32.9214 52.3665 32.5227 52.4285 32.1171H57.1916C57.2268 32.0516 57.262 31.986 57.3022 31.9255C57.3781 31.806 57.4657 31.6945 57.5638 31.5926C57.7524 31.4102 57.9722 31.2633 58.2126 31.1589C58.6965 30.9626 59.2376 30.9626 59.7215 31.1589C59.9705 31.262 60.1963 31.4143 60.3856 31.6066C60.5748 31.799 60.7235 32.0274 60.823 32.2785C60.9217 32.5221 60.9729 32.7823 60.9739 33.0451C60.9732 33.3085 60.9202 33.5691 60.818 33.8118C60.7184 34.0526 60.5732 34.2719 60.3905 34.4573C60.2024 34.6441 59.9805 34.7931 59.7366 34.8961C59.4956 34.9954 59.2377 35.0468 58.9771 35.0474C58.7205 35.0452 58.4664 34.9956 58.2277 34.9012C57.986 34.7968 57.7659 34.648 57.5789 34.4624C57.4845 34.3671 57.4003 34.2623 57.3274 34.1497C57.2871 34.0891 57.2519 34.0236 57.2167 33.958L57.1916 33.9025ZM51.5382 44.1358C51.3425 43.6506 51.3425 43.108 51.5382 42.6228C51.6372 42.3873 51.7807 42.1732 51.9607 41.9923C52.0645 41.8894 52.1792 41.7981 52.3027 41.72L52.514 41.604V38.3862H48.621C48.621 38.1794 48.621 37.9676 48.621 37.7608C48.6158 37.7024 48.6261 37.6437 48.6508 37.5905C48.6756 37.5374 48.7139 37.4917 48.7618 37.4582C49.1469 37.1944 49.5148 36.9064 49.8633 36.5958H53.4193C53.6559 36.5958 53.8829 36.6897 54.0506 36.8569C54.2184 37.0242 54.3133 37.2513 54.3146 37.4885V41.5939L54.4957 41.6998C54.6023 41.7705 54.7017 41.8516 54.7924 41.9419C54.9782 42.1279 55.1252 42.3491 55.225 42.5925C55.326 42.8336 55.3774 43.0926 55.3759 43.3541C55.3771 43.6118 55.3275 43.8672 55.23 44.1056C55.0259 44.5957 54.6374 44.9853 54.1486 45.1899C53.6647 45.3862 53.1236 45.3862 52.6397 45.1899C52.151 44.9853 51.7624 44.5957 51.5583 44.1056L51.5382 44.1358Z" fill="url(#paint0_linear_991_18150)"/>
<defs>
<linearGradient id="paint0_linear_991_18150" x1="31" y1="0" x2="31" y2="62" gradientUnits="userSpaceOnUse">
<stop offset="0.225" stop-color="#2B6FF6"/>
<stop offset="1"/>
</linearGradient>
</defs>
</svg>
