<svg width="62" height="62" viewBox="0 0 62 62" fill="none" xmlns="http://www.w3.org/2000/svg">
<path d="M29.34 30.912L43.7703 21.6569C43.8713 21.5807 44.0125 21.5959 44.0983 21.6874L45.4909 23.1808C45.5767 23.2722 45.5817 23.4195 45.501 23.516L34.5672 36.3066C33.0132 37.988 31.3532 38.3181 30.0161 37.8813C29.3501 37.6629 28.7699 37.2616 28.3258 36.7384C27.8818 36.2202 27.5741 35.5853 27.4479 34.9046C27.2007 33.5483 27.6952 32.0295 29.3299 30.9171L29.34 30.912ZM9.75309 57.9307C8.21419 56.4728 6.82666 54.8575 5.61068 53.1152C4.40479 51.3881 3.37044 49.5289 2.52783 47.5733C1.7054 45.6532 1.06966 43.6315 0.635742 41.5285C0.222005 39.4865 0 37.3733 0 35.2094C0 30.9831 0.837565 26.955 2.34619 23.2773C3.92041 19.4574 6.22119 16.0185 9.08203 13.1434C11.9378 10.2683 15.3537 7.94689 19.148 6.36712C22.8009 4.84322 26.8021 4 31 4C35.1878 4 39.1789 4.84322 42.8218 6.36712C46.6161 7.95197 50.0269 10.2785 52.8877 13.1586C55.7536 16.0439 58.0645 19.4879 59.6387 23.3027C61.1574 26.9804 62 31.0034 62 35.2094C62 37.2666 61.7982 39.2782 61.4147 41.2288C61.0212 43.2302 60.4308 45.1655 59.6689 47.0196C58.8919 48.9041 57.9383 50.7023 56.8232 52.3786C55.6981 54.0752 54.4115 55.655 52.9886 57.1027C52.8927 57.1992 52.7313 57.1992 52.6354 57.1027L51.0864 55.5483C51.0562 55.5382 51.0259 55.5178 51.0007 55.4924L46.6816 51.1443C46.5858 51.0477 46.5858 50.8852 46.6816 50.7887L48.9471 48.5079C49.043 48.4114 49.2044 48.4114 49.3003 48.5079L52.6354 51.8656C53.3418 50.9411 53.9927 49.9759 54.578 48.9702C55.2087 47.8933 55.7637 46.7656 56.243 45.6024C56.8888 44.0277 57.3984 42.3768 57.7415 40.67C58.0645 39.0852 58.2461 37.4444 58.2814 35.7732H53.6849C53.5487 35.7732 53.4326 35.6615 53.4326 35.5192V32.2937C53.4326 32.1565 53.5436 32.0397 53.6849 32.0397H58.1048C57.7617 29.0681 56.9393 26.2336 55.7233 23.6176C54.467 20.9203 52.7868 18.4618 50.7686 16.3182L47.8119 19.2948C47.716 19.3913 47.5545 19.3913 47.4587 19.2948L45.1932 17.0141C45.0973 16.9176 45.0973 16.755 45.1932 16.6585L48.0439 13.7885C45.8037 11.9751 43.2759 10.507 40.5412 9.47079C37.8923 8.4701 35.0516 7.8707 32.0898 7.75386V11.8328C32.0898 11.97 31.9788 12.0868 31.8376 12.0868H28.6286C28.4924 12.0868 28.3763 11.9751 28.3763 11.8328V7.85546C25.4347 8.13484 22.6244 8.89171 20.0309 10.0346C17.3517 11.2182 14.8996 12.8234 12.7552 14.7587L15.717 17.7405C15.8128 17.837 15.8128 17.9995 15.717 18.096L13.4515 20.3768C13.3556 20.4733 13.1942 20.4733 13.0983 20.3768L10.1719 17.4306C8.28988 19.6657 6.75098 22.2106 5.65104 24.979C4.59147 27.6712 3.9305 30.5615 3.75391 33.5788H8.31006C8.44629 33.5788 8.56234 33.6906 8.56234 33.8328V37.0635C8.56234 37.2006 8.45133 37.3174 8.31006 37.3174H3.78418C3.89518 38.8109 4.12728 40.2636 4.46533 41.6758C4.82861 43.2048 5.32308 44.6829 5.93359 46.1052C6.46338 47.3396 7.07894 48.5232 7.77018 49.6508C8.42106 50.7125 9.14258 51.7284 9.92969 52.6834L13.5827 49.0057C13.6785 48.9092 13.84 48.9092 13.9359 49.0057L16.2013 51.2865C16.2972 51.383 16.2972 51.5456 16.2013 51.6421C14.1125 53.745 12.1195 55.7617 10.1012 57.9205C10.0104 58.0221 9.854 58.0272 9.75309 57.9307Z" fill="url(#paint0_linear_989_18126)"/>
<defs>
<linearGradient id="paint0_linear_989_18126" x1="31" y1="4" x2="31" y2="58" gradientUnits="userSpaceOnUse">
<stop stop-color="#2B6FF6"/>
<stop offset="1"/>
</linearGradient>
</defs>
</svg>
