<svg width="42" height="42" viewBox="0 0 42 42" fill="none" xmlns="http://www.w3.org/2000/svg">
<path d="M9.90544 16.8751H12.119C12.8415 16.8751 13.3402 16.0924 13.0942 15.3445C12.7706 14.3631 12.5987 13.3225 12.5987 12.2501C12.5987 11.1776 12.7706 10.137 13.0942 9.15562C13.3409 8.40767 12.8415 7.62503 12.119 7.62503H9.90544C9.44541 7.62503 9.02212 7.9495 8.89416 8.43658C8.57325 9.66366 8.4 10.9406 8.4 12.2501C8.4 13.5595 8.57325 14.8365 8.89481 16.0628C9.02212 16.5499 9.44541 16.8751 9.90544 16.8751ZM5.901 4.68669C6.27112 3.91922 5.77303 3 4.98487 3H2.66634C2.25487 3 1.86966 3.25944 1.69903 3.6728C0.616875 6.291 0 9.18959 0 12.2501C0 14.0386 0.20475 17.188 1.75153 20.8396C1.92347 21.2465 2.30409 21.5001 2.71031 21.5001H4.99669C5.7855 21.5001 6.28359 20.5794 5.91216 19.8113C2.64534 13.0674 4.81556 6.93706 5.901 4.68669ZM40.2977 3.67135C40.1271 3.25871 39.7425 3 39.331 3H37.0066C36.2204 3 35.7164 3.91489 36.0865 4.68019C37.2855 7.15819 39.2641 13.3102 36.1049 19.8004C35.7295 20.5722 36.223 21.5001 37.0177 21.5001H39.3297C39.7412 21.5001 40.1257 21.2414 40.2964 20.8288C41.3812 18.2106 42 15.3112 42 12.2501C42 9.18887 41.3818 6.28955 40.2977 3.67135ZM32.0946 7.62503H29.881C29.1585 7.62503 28.6597 8.40767 28.9058 9.15562C29.2294 10.137 29.4013 11.1776 29.4013 12.2501C29.4013 13.3225 29.2294 14.3631 28.9058 15.3445C28.6591 16.0924 29.1585 16.8751 29.881 16.8751H32.0946C32.5552 16.8751 32.9779 16.5506 33.1058 16.0628C33.4274 14.8365 33.6 13.5595 33.6 12.2501C33.6 10.9406 33.4267 9.66365 33.1052 8.4373C32.9779 7.9495 32.5546 7.62503 32.0946 7.62503ZM24.4624 14.8603C24.925 14.1167 25.1974 13.2191 25.1974 12.2501C25.1974 9.69545 23.3185 7.62503 21 7.62503C18.6821 7.62503 16.8026 9.69545 16.8026 12.2501C16.8026 13.2191 17.075 14.1167 17.5376 14.8603L8.97356 37.5092C8.75044 38.0982 9.00375 38.7753 9.53859 39.021L11.4752 39.9106C12.01 40.1563 12.6249 39.8774 12.8474 39.2884L16.0755 30.7502H25.9238L29.1526 39.2884C29.3757 39.8781 29.99 40.1563 30.5248 39.9106L32.4614 39.021C32.9962 38.7753 33.2489 38.0982 33.0264 37.5092L24.4624 14.8603ZM17.8251 26.1251L21 17.7285L24.1749 26.1251H17.8251Z" fill="#2B6FF6"/>
</svg>
