<svg width="42" height="42" viewBox="0 0 42 42" fill="none" xmlns="http://www.w3.org/2000/svg">
<path d="M10.1979 17.6251H12.2533C12.9243 17.6251 13.3874 16.9693 13.1589 16.3427C12.8584 15.5205 12.6988 14.6486 12.6988 13.75C12.6988 12.8515 12.8584 11.9796 13.1589 11.1574C13.388 10.5308 12.9243 9.87502 12.2533 9.87502H10.1979C9.77073 9.87502 9.37769 10.1469 9.25886 10.555C8.96088 11.5831 8.8 12.6529 8.8 13.75C8.8 14.8472 8.96087 15.917 9.25947 16.9445C9.37769 17.3526 9.77073 17.6251 10.1979 17.6251ZM6.4795 7.41317C6.82319 6.77016 6.36067 6 5.62881 6H3.47589C3.09381 6 2.73611 6.21736 2.57767 6.5637C1.57281 8.75732 1 11.1859 1 13.75C1 15.2486 1.19013 17.8872 2.62642 20.9467C2.78608 21.2876 3.13952 21.5001 3.51672 21.5001H5.63978C6.37225 21.5001 6.83477 20.7287 6.48986 20.0851C3.45639 14.4348 5.47159 9.29861 6.4795 7.41317ZM38.4193 6.56248C38.2608 6.21676 37.9038 6 37.5217 6H35.3633C34.6332 6 34.1652 6.76653 34.5089 7.40772C35.6223 9.48389 37.4595 14.6383 34.526 20.076C34.1774 20.7227 34.6357 21.5001 35.3736 21.5001H37.5205C37.9025 21.5001 38.2596 21.2833 38.4181 20.9376C39.4254 18.744 40 16.3148 40 13.75C40 11.1853 39.426 8.75611 38.4193 6.56248ZM30.8021 9.87502H28.7467C28.0757 9.87502 27.6126 10.5308 27.8411 11.1574C28.1416 11.9796 28.3012 12.8515 28.3012 13.75C28.3012 14.6486 28.1416 15.5205 27.8411 16.3427C27.612 16.9693 28.0757 17.6251 28.7467 17.6251H30.8021C31.2299 17.6251 31.6223 17.3532 31.7411 16.9445C32.0397 15.917 32.2 14.8472 32.2 13.75C32.2 12.6529 32.0391 11.5831 31.7405 10.5556C31.6223 10.1469 31.2293 9.87502 30.8021 9.87502ZM23.7151 15.937C24.1447 15.314 24.3976 14.562 24.3976 13.75C24.3976 11.6097 22.6529 9.87502 20.5 9.87502C18.3477 9.87502 16.6024 11.6097 16.6024 13.75C16.6024 14.562 16.8553 15.314 17.2849 15.937L9.33259 34.9131C9.12541 35.4066 9.36063 35.9739 9.85727 36.1798L11.6555 36.9251C12.1522 37.131 12.7232 36.8973 12.9297 36.4038L15.9273 29.2501H25.0721L28.0703 36.4038C28.2775 36.8979 28.8478 37.131 29.3445 36.9251L31.1427 36.1798C31.6394 35.9739 31.874 35.4066 31.6674 34.9131L23.7151 15.937ZM17.5518 25.3751L20.5 18.3401L23.4482 25.3751H17.5518Z" fill="#2B6FF6"/>
</svg>
