<svg width="24" height="24" viewBox="0 0 24 24" fill="none" xmlns="http://www.w3.org/2000/svg">
<path d="M11.5 12.2175L17.5 21.2175H5.5L11.5 12.2175ZM11.5 15.8175L9.24 19.2175H13.76L11.5 15.8175ZM10.4393 9.77813C9.8536 9.19239 9.8536 8.24264 10.4393 7.65686C11.0251 7.07107 11.9749 7.07107 12.5607 7.65686C13.1464 8.24264 13.1464 9.19239 12.5607 9.77813C11.9749 10.3639 11.0251 10.3639 10.4393 9.77813ZM4.78249 2L6.1967 3.41421C3.26777 6.34315 3.26777 11.0919 6.1967 14.0208L4.78249 15.435C1.0725 11.725 1.0725 5.70998 4.78249 2ZM18.2175 2C21.9275 5.70998 21.9275 11.725 18.2175 15.435L16.8033 14.0208C19.7322 11.0919 19.7322 6.34315 16.8033 3.41421L18.2175 2ZM7.61091 4.82843L9.02513 6.24264C7.65829 7.60948 7.65829 9.82553 9.02513 11.1924L7.61091 12.6066C5.46303 10.4587 5.46303 6.97631 7.61091 4.82843ZM15.3891 4.82843C17.537 6.97631 17.537 10.4587 15.3891 12.6066L13.9749 11.1924C15.3417 9.82553 15.3417 7.60948 13.9749 6.24264L15.3891 4.82843Z" fill="black"/>
</svg>
