<svg width="52" height="52" viewBox="0 0 52 52" fill="none" xmlns="http://www.w3.org/2000/svg">
<rect width="52" height="52" rx="26" fill="#2B6FF6"/>
<g clip-path="url(#clip0_1073_9959)">
<path d="M21.5679 24.0625L21.6163 24.2501H21.81H30.19H30.3837L30.4321 24.0626C30.782 22.707 31.6143 21.5255 32.773 20.7397C33.9317 19.9538 35.3372 19.6176 36.7261 19.7939C38.115 19.9703 39.3919 20.6471 40.3174 21.6976C41.2429 22.7481 41.7535 24.1001 41.7535 25.5001C41.7535 26.9001 41.2429 28.2521 40.3174 29.3026C39.3919 30.3531 38.115 31.0299 36.7261 31.2063C35.3372 31.3826 33.9317 31.0464 32.773 30.2605C31.6143 29.4747 30.782 28.2932 30.4321 26.9376L30.3837 26.7501H30.19H21.81H21.6168L21.5681 26.9371C21.2156 28.2896 20.3826 29.4676 19.2249 30.2508C18.0672 31.034 16.6639 31.3688 15.2772 31.1927C13.8906 31.0165 12.6156 30.3415 11.6904 29.2938C10.7652 28.2461 10.2532 26.8974 10.25 25.4998C10.2496 24.1 10.7598 22.7482 11.6849 21.6977C12.6102 20.6472 13.8868 19.9703 15.2755 19.7939C16.6642 19.6175 18.0696 19.9538 19.228 20.7396C20.3864 21.5255 21.2184 22.707 21.5679 24.0625ZM16 22.2501C15.138 22.2501 14.3114 22.5925 13.7019 23.202C13.0924 23.8115 12.75 24.6381 12.75 25.5001C12.75 26.3621 13.0924 27.1887 13.7019 27.7982C14.3114 28.4077 15.138 28.7501 16 28.7501C16.862 28.7501 17.6886 28.4077 18.2981 27.7982C18.9076 27.1887 19.25 26.3621 19.25 25.5001C19.25 24.6381 18.9076 23.8115 18.2981 23.202C17.6886 22.5925 16.862 22.2501 16 22.2501ZM36 22.2501C35.138 22.2501 34.3114 22.5925 33.7019 23.202C33.0924 23.8115 32.75 24.6381 32.75 25.5001C32.75 26.3621 33.0924 27.1887 33.7019 27.7982C34.3114 28.4077 35.138 28.7501 36 28.7501C36.862 28.7501 37.6886 28.4077 38.2981 27.7982C38.9076 27.1887 39.25 26.3621 39.25 25.5001C39.25 24.6381 38.9076 23.8115 38.2981 23.202C37.6886 22.5925 36.862 22.2501 36 22.2501Z" fill="white" stroke="#2B6FF6" stroke-width="0.5"/>
</g>
<defs>
<clipPath id="clip0_1073_9959">
<rect width="32" height="32" fill="white" transform="translate(10 10)"/>
</clipPath>
</defs>
</svg>
