<svg width="62" height="62" viewBox="0 0 62 62" fill="none" xmlns="http://www.w3.org/2000/svg">
<path d="M7.45254 11.2164L18.9695 22.695L34.9465 17.927C35.0022 17.9118 35.0579 17.8967 35.1136 17.8917C35.3161 17.5334 35.5641 17.2055 35.8578 16.9128C36.6677 16.1055 37.7815 15.6111 39.0116 15.6111C40.2418 15.6111 41.3606 16.1106 42.1655 16.9128C42.9755 17.7201 43.4716 18.8301 43.4716 20.0562C43.4716 21.2823 42.9705 22.3973 42.1655 23.1996C41.8365 23.5276 41.4568 23.8051 41.0417 24.017L36.7133 40.3697L48.0481 51.6667C48.615 52.2318 48.615 53.1501 48.0481 53.7152C47.8506 53.912 47.6127 54.0381 47.3646 54.0986C40.0241 56.3641 33.1089 56.0715 27.0188 54.0431L28.8463 60.5469C28.8868 60.6579 28.9071 60.784 28.9071 60.9102C28.9071 61.5106 28.416 62 27.8136 62H9.90275C9.81669 62 9.73063 61.9899 9.64457 61.9697C9.06239 61.8285 8.70296 61.2381 8.84977 60.6579L12.7731 44.8451C12.3935 44.4414 12.0188 44.0327 11.6594 43.614C8.35872 39.7894 5.87813 35.3443 4.43534 30.7478C2.41038 24.2844 2.43569 17.5031 5.10358 11.6503C5.43264 10.9237 6.29325 10.5958 7.02224 10.9237C7.1893 10.9944 7.33104 11.0953 7.45254 11.2164ZM24.4825 53.0845C24.2699 52.9937 24.0573 52.9028 23.8497 52.807C20.4073 51.2479 17.2888 49.1288 14.5703 46.6211L11.2949 59.8254H26.3759L24.4825 53.0845ZM40.257 2.15958C39.6596 2.0738 39.2496 1.52383 39.3306 0.933503C39.4166 0.338126 39.9684 -0.0705653 40.5607 0.0101638C45.7497 0.746817 50.1388 2.38663 53.3535 5.33828C56.5934 8.32021 58.6083 12.5888 58.9981 18.5476C59.0335 19.148 58.5779 19.6626 57.9805 19.698C57.3781 19.7333 56.8617 19.2792 56.8263 18.6838C56.477 13.3305 54.7153 9.53619 51.8803 6.93268C49.02 4.30899 45.0258 2.83568 40.257 2.15958ZM40.5506 7.56842C39.9583 7.47256 39.5533 6.9125 39.6495 6.32217C39.7457 5.73184 40.3076 5.32819 40.8999 5.42406C44.4386 6.00934 47.4254 7.22532 49.6275 9.33437C51.8499 11.4686 53.232 14.4607 53.5256 18.5829C53.5661 19.1833 53.1155 19.698 52.5131 19.7434C51.9107 19.7837 51.3943 19.3347 51.3488 18.7343C51.0956 15.1923 49.9465 12.6544 48.1139 10.8935C46.261 9.12246 43.664 8.08307 40.5506 7.56842ZM40.4747 13.391C39.8773 13.3254 39.442 12.7956 39.5078 12.1952C39.5736 11.5998 40.1051 11.1659 40.7076 11.2315C42.8034 11.4586 44.5449 12.1347 45.856 13.3708C47.1672 14.607 47.9974 16.3679 48.2506 18.7494C48.3164 19.3448 47.881 19.8796 47.2836 19.9452C46.6863 20.0108 46.1497 19.5769 46.0838 18.9815C45.8864 17.1449 45.289 15.828 44.3525 14.945C43.4159 14.0621 42.0947 13.5676 40.4747 13.391ZM34.5517 20.3085L20.7211 24.4358L26.8315 30.5258L35.2047 22.3873C34.8301 21.7767 34.5972 21.0704 34.5517 20.3085ZM36.7639 23.9009L28.3704 32.0596L34.9263 38.5987L38.6623 24.4963C37.9738 24.4408 37.3259 24.2339 36.7639 23.9009ZM40.6215 18.4517C40.2114 18.043 39.6394 17.7857 39.0066 17.7857C38.3788 17.7857 37.8068 18.038 37.3917 18.4517C36.9816 18.8604 36.7234 19.4306 36.7234 20.0612C36.7234 20.6869 36.9766 21.257 37.3917 21.6708C37.8017 22.0845 38.3738 22.3368 39.0066 22.3368C39.6343 22.3368 40.2064 22.0845 40.6215 21.6708C41.0315 21.2621 41.2897 20.6919 41.2897 20.0612C41.2897 19.4306 41.0315 18.8604 40.6215 18.4517Z" fill="url(#paint0_linear_992_18186)"/>
<defs>
<linearGradient id="paint0_linear_992_18186" x1="31" y1="0" x2="31" y2="62" gradientUnits="userSpaceOnUse">
<stop stop-color="#2B6FF6"/>
<stop offset="1"/>
</linearGradient>
</defs>
</svg>
