<svg width="42" height="42" viewBox="0 0 42 42" fill="none" xmlns="http://www.w3.org/2000/svg">
<path d="M0 33.3C0 34.4596 0.940406 35.4 2.1 35.4H39.9C41.0596 35.4 42 34.4596 42 33.3V12.3H0V33.3ZM29.4 19.65C29.4 19.0699 29.8699 18.6 30.45 18.6H36.75C37.3301 18.6 37.8 19.0699 37.8 19.65V21.75C37.8 22.3301 37.3301 22.8 36.75 22.8H30.45C29.8699 22.8 29.4 22.3301 29.4 21.75V19.65ZM29.4 27.525C29.4 27.2349 29.6349 27 29.925 27H37.275C37.5651 27 37.8 27.2349 37.8 27.525V28.575C37.8 28.8651 37.5651 29.1 37.275 29.1H29.925C29.6349 29.1 29.4 28.8651 29.4 28.575V27.525ZM4.2 21.225C4.2 20.9349 4.43494 20.7 4.725 20.7H24.675C24.9651 20.7 25.2 20.9349 25.2 21.225V22.275C25.2 22.5651 24.9651 22.8 24.675 22.8H4.725C4.43494 22.8 4.2 22.5651 4.2 22.275V21.225ZM4.2 27.525C4.2 27.2349 4.43494 27 4.725 27H16.275C16.5651 27 16.8 27.2349 16.8 27.525V28.575C16.8 28.8651 16.5651 29.1 16.275 29.1H4.725C4.43494 29.1 4.2 28.8651 4.2 28.575V27.525ZM40.95 6H1.05C0.469875 6 0 6.46987 0 7.05V10.2H42V7.05C42 6.46987 41.5301 6 40.95 6Z" fill="#2B6FF6"/>
</svg>
