<svg width="42" height="42" viewBox="0 0 42 42" fill="none" xmlns="http://www.w3.org/2000/svg">
<rect width="42" height="42" rx="21" fill="#2B6FF6"/>
<path d="M14.0003 33.8327C13.3587 33.8327 12.8094 33.6042 12.3524 33.1473C11.8955 32.6903 11.667 32.141 11.667 31.4994V10.4993C11.667 9.85768 11.8955 9.30838 12.3524 8.85143C12.8094 8.39449 13.3587 8.16602 14.0003 8.16602H25.667C26.3087 8.16602 26.858 8.39449 27.3149 8.85143C27.7719 9.30838 28.0003 9.85768 28.0003 10.4993V15.166H25.667V13.9993H14.0003V27.9994H25.667V26.8327H28.0003V31.4994C28.0003 32.141 27.7719 32.6903 27.3149 33.1473C26.858 33.6042 26.3087 33.8327 25.667 33.8327H14.0003ZM14.0003 30.3327V31.4994H25.667V30.3327H14.0003ZM24.442 25.666L19.4837 20.7077L21.117 19.0744L24.442 22.3993L31.0337 15.8077L32.667 17.441L24.442 25.666ZM14.0003 11.666H25.667V10.4993H14.0003V11.666Z" fill="white"/>
</svg>
