<svg width="62" height="63" viewBox="0 0 62 63" fill="none" xmlns="http://www.w3.org/2000/svg">
<rect y="0.5" width="62" height="62" rx="31" fill="#2B6FF6"/>
<g clip-path="url(#clip0_972_2933)">
<path d="M19.3333 28.5833C20.1387 28.5833 20.7917 29.2362 20.7917 30.0417V40.25C20.7917 41.0554 20.1387 41.7083 19.3333 41.7083C18.5279 41.7083 17.875 41.0554 17.875 40.25V30.0417C17.875 29.2362 18.5279 28.5833 19.3333 28.5833ZM23.7083 30.0417C24.5137 30.0417 25.1667 30.6946 25.1667 31.5V40.25C25.1667 41.0554 24.5137 41.7083 23.7083 41.7083C22.9029 41.7083 22.25 41.0554 22.25 40.25V31.5C22.25 30.6946 22.9029 30.0417 23.7083 30.0417ZM28.0833 24.2083C28.8888 24.2083 29.5417 24.8613 29.5417 25.6667V40.25C29.5417 41.0554 28.8888 41.7083 28.0833 41.7083C27.2779 41.7083 26.625 41.0554 26.625 40.25V25.6667C26.625 24.8613 27.2779 24.2083 28.0833 24.2083ZM35.375 22.75C40.0977 22.75 43.9465 26.4915 44.119 31.172L44.1235 31.5515C46.5978 31.9047 48.5 34.0322 48.5 36.6042C48.5 39.3292 46.3646 41.5554 43.6758 41.7007L43.3958 41.7083H38.2902C37.4849 41.7083 36.8319 41.0554 36.8319 40.25C36.8317 39.5022 37.3946 38.8857 38.12 38.8014L38.2902 38.7917L43.3172 38.7927L43.5183 38.7883C44.672 38.726 45.5833 37.7672 45.5833 36.6042C45.5833 35.581 44.8749 34.7069 43.908 34.4763L43.7114 34.4388L41.1306 34.0705L41.2069 31.465L41.2012 31.2089C41.0542 28.2189 38.6561 25.8208 35.6661 25.6738L35.375 25.6667C34.9843 25.6667 34.6002 25.7048 34.2263 25.7792L33.9152 25.8504V40.2507C33.9152 40.9983 33.3526 41.6143 32.6276 41.6986L32.4576 41.7083C31.6526 41.7083 31 41.0557 30.9999 40.2507L30.9985 23.9214C32.286 23.1764 33.7806 22.75 35.375 22.75ZM14.9583 31.5C15.7637 31.5 16.4167 32.1529 16.4167 32.9583V38.7917C16.4167 39.5971 15.7637 40.25 14.9583 40.25C14.1529 40.25 13.5 39.5971 13.5 38.7917V32.9583C13.5 32.1529 14.1529 31.5 14.9583 31.5Z" fill="white"/>
</g>
<defs>
<clipPath id="clip0_972_2933">
<rect width="35" height="35" fill="white" transform="translate(13.5 14)"/>
</clipPath>
</defs>
</svg>
