<svg width="62" height="62" viewBox="0 0 62 62" fill="none" xmlns="http://www.w3.org/2000/svg">
<path fill-rule="evenodd" clip-rule="evenodd" d="M59.5695 43.2409L59.5391 43.1268C59.16 41.7656 58.2763 40.682 57.1485 40.0284C56.5598 39.6866 55.9095 39.465 55.2352 39.3763C54.5609 39.2876 53.8758 39.3335 53.2192 39.5114C51.8393 39.8827 50.7394 40.7807 50.0774 41.932L50.0755 41.931C49.4 43.1065 49.2105 44.5012 49.5477 45.8155L49.5784 45.9305C49.9571 47.289 50.8425 48.372 51.9734 49.0278L51.9724 49.0297C53.1429 49.7079 54.5315 49.8981 55.8401 49.5596L55.9558 49.5285C57.3106 49.1475 58.3889 48.2606 59.0397 47.1286C59.7169 45.9525 59.9071 44.5565 59.5695 43.2409ZM32.7248 25.7894C34.1971 25.7894 35.6098 26.0439 36.9232 26.5097L38.3068 23.3955C36.9082 22.44 35.8319 20.9983 35.3613 19.2341C34.8399 17.2792 35.1577 15.2952 36.0931 13.6682L36.1337 13.6033C37.0739 12.008 38.6097 10.767 40.5277 10.2512C42.4746 9.72746 44.4505 10.0466 46.0708 10.986L46.1353 11.0267C47.7241 11.9708 48.9599 13.5128 49.4737 15.4389C49.9952 17.3934 49.6774 19.3778 48.742 21.0048L48.7014 21.0697C47.7611 22.6649 46.2254 23.906 44.3073 24.4218C43.0095 24.7727 41.6403 24.7554 40.3517 24.3719L38.9813 27.4566C42.7734 29.6385 45.3285 33.7423 45.3285 38.4451C45.3285 39.2057 45.2617 39.9503 45.1336 40.6738L47.81 41.3894C47.9035 41.1872 48.0059 40.9893 48.1168 40.7962V40.7917C49.0687 39.1363 50.6499 37.8452 52.6337 37.3113C54.6145 36.7783 56.6258 37.1036 58.2752 38.0597C59.9273 39.0174 61.2146 40.605 61.7456 42.5952L61.7476 42.6027C62.2754 44.5893 61.9514 46.6056 61.0003 48.26C60.0468 49.9186 58.4654 51.2112 56.4837 51.7447L56.4615 51.7503C54.488 52.275 52.4855 51.949 50.8422 50.9965H50.8377C49.1889 50.0405 47.9034 48.4532 47.3717 46.4614L47.3678 46.4466C47.1191 45.5109 47.0549 44.5354 47.1788 43.575L44.5363 42.8686C42.7498 47.6766 38.1357 51.101 32.7248 51.101C26.5571 51.101 21.4242 46.6519 20.335 40.7755L14.6102 41.4428C14.5944 42.619 14.2954 43.8083 13.686 44.9067C13.6544 44.9777 13.6156 45.0452 13.5701 45.1082C12.5982 46.7445 11.0287 47.9354 9.19562 48.4275C7.4176 48.9056 5.45855 48.7119 3.72884 47.7361C3.66778 47.7065 3.60942 47.6715 3.55447 47.6316C1.86109 46.6136 0.723293 45.0144 0.249574 43.2394C-0.226809 41.4541 -0.0339069 39.4866 0.937871 37.75C0.962574 37.6988 0.991153 37.6489 1.02373 37.6013C2.0345 35.8877 3.63548 34.7355 5.41604 34.2567C7.19552 33.7778 9.15699 33.9732 10.8884 34.9535L10.959 34.9913C12.6223 35.9556 13.7658 37.4783 14.2883 39.1878L20.1219 38.5076L20.1211 38.4451C20.1211 35.249 21.3014 32.3298 23.2481 30.1025L19.3084 25.609C18.5847 26.1279 17.7739 26.5117 16.9146 26.7419L16.8999 26.7458C14.9238 27.273 12.9185 26.9472 11.2732 25.9934C9.62139 25.036 8.33392 23.4481 7.8028 21.4584L7.79893 21.4435C7.27386 19.4593 7.59815 17.4456 8.54789 15.7933C9.50139 14.1348 11.0829 12.8417 13.0649 12.3084C15.0457 11.7755 17.0568 12.1008 18.7062 13.0569C20.3582 14.0144 21.6456 15.6024 22.1768 17.5923C22.7075 19.5813 22.3836 21.6008 21.4314 23.2571C21.2808 23.5192 21.1145 23.772 20.9336 24.0141L24.8928 28.5298C27.0435 26.8145 29.7647 25.7894 32.7248 25.7894ZM19.4708 22.1258C19.8111 21.5345 20.0318 20.8816 20.1202 20.2045C20.2086 19.5274 20.1628 18.8394 19.9857 18.1801C19.6153 16.7926 18.7227 15.6882 17.5796 15.0256C16.9908 14.6838 16.3406 14.4622 15.6663 14.3735C14.992 14.2847 14.3069 14.3307 13.6503 14.5086C12.2683 14.8805 11.1685 15.7767 10.5085 16.9247C9.83153 18.1008 9.64134 19.4969 9.97886 20.8124L10.0096 20.9274C10.3711 22.2346 11.2295 23.3469 12.3999 24.0247C13.5711 24.7046 14.9612 24.8956 16.2713 24.5567L16.3861 24.5259C17.7411 24.1451 18.8199 23.2579 19.4708 22.1258ZM46.7813 19.8645C47.1125 19.2895 47.3273 18.6544 47.4133 17.9959C47.4993 17.3373 47.4549 16.6681 47.2825 16.0268C46.9279 14.6972 46.0806 13.6345 44.9931 12.9862L44.935 12.9547C44.3624 12.6221 43.73 12.4064 43.0741 12.32C42.4182 12.2336 41.7518 12.2783 41.1132 12.4513C39.789 12.8075 38.7309 13.6583 38.0851 14.7502L38.0537 14.8085C37.7225 15.3836 37.5078 16.0186 37.4218 16.6772C37.3357 17.3358 37.3802 18.005 37.5525 18.6463C37.9072 19.9758 38.7545 21.0385 39.8419 21.6868L39.9001 21.7183C40.4727 22.0509 41.1051 22.2665 41.761 22.3529C42.4168 22.4393 43.0832 22.3947 43.7219 22.2217C45.0461 21.8654 46.1042 21.0147 46.75 19.9228L46.7813 19.8645ZM4.78853 45.7238C5.99112 46.4211 7.36396 46.5623 8.61013 46.2272C9.85716 45.8917 10.9759 45.081 11.6693 43.8747L11.6716 43.8706C12.3646 42.6625 12.5045 41.2841 12.1707 40.0321C11.8372 38.7813 11.0279 37.6584 9.82325 36.96L9.77033 36.9273C8.58059 36.2579 7.22979 36.1264 6.00141 36.4568C4.75584 36.7917 3.63754 37.6043 2.9421 38.8139L2.94016 38.8173C2.24738 40.024 2.10703 41.4011 2.44077 42.6516C2.77486 43.9038 3.58244 45.0272 4.78357 45.7234L4.78853 45.7238ZM36.8434 31.3857C36.6633 31.262 36.4588 31.2068 36.2521 31.2489C36.0458 31.2887 35.8676 31.3991 35.7444 31.5779L35.0434 32.5711C34.5698 32.358 33.9654 32.219 33.4518 32.1448L33.232 30.8474C33.1905 30.6284 33.0804 30.4629 32.9156 30.3373C32.7375 30.2139 32.5462 30.1718 32.3264 30.2139L30.7064 30.503C30.4998 30.5449 30.335 30.6418 30.1986 30.8206C30.0755 30.9995 30.0205 31.1935 30.0602 31.4144L30.2667 32.5996C29.7684 32.8087 29.274 33.1133 28.8533 33.4538L27.7543 32.6948C27.5762 32.5711 27.3848 32.5159 27.1783 32.5577C26.9718 32.5996 26.7937 32.7099 26.6706 32.8887L25.7364 34.2263C25.6133 34.4051 25.5583 34.6105 25.6001 34.8181C25.6398 35.0386 25.7498 35.2043 25.9297 35.3279L26.917 36.032C26.7086 36.5036 26.5663 37.1182 26.4924 37.63L25.2021 37.8506C24.9823 37.8925 24.8175 38.003 24.6924 38.1685C24.5693 38.3474 24.5295 38.5394 24.5693 38.7601L24.8574 40.3868C24.8991 40.5943 24.9956 40.7598 25.1737 40.8966C25.3518 41.0222 25.545 41.0774 25.7649 41.0356L26.9453 40.8283C27.163 41.3476 27.4607 41.8138 27.796 42.2628L27.0401 43.3511C26.917 43.53 26.862 43.7238 26.9037 43.9294C26.9453 44.1367 27.0552 44.3156 27.2333 44.4393L28.5786 45.3906C28.6631 45.4509 28.7589 45.4932 28.8603 45.5148C28.9616 45.5364 29.0663 45.5368 29.1679 45.5161C29.3743 45.4743 29.5525 45.3772 29.6906 45.1985L30.3898 44.1919C30.8712 44.4051 31.4625 44.5402 31.9833 44.6201L32.2032 45.9155C32.2429 46.1365 32.3529 46.302 32.5177 46.4256C32.6976 46.5492 32.8891 46.5911 33.1089 46.5492L34.7289 46.2599C34.9353 46.2182 35.0983 46.1212 35.2366 45.9423C35.3599 45.7634 35.4147 45.5712 35.3732 45.3506L35.1684 44.1654C35.6895 43.9447 36.1442 43.6478 36.5952 43.3093L37.6808 44.0682C37.8589 44.1919 38.0503 44.247 38.2701 44.2053C38.4898 44.1654 38.6546 44.055 38.7779 43.8743L39.7253 42.5234C39.8485 42.3446 39.8901 42.1372 39.8485 41.9316C39.8086 41.7243 39.712 41.5454 39.5339 41.4067L38.5317 40.718C38.7401 40.2461 38.8821 39.6314 38.956 39.1197L40.2464 38.899C40.4662 38.8572 40.631 38.7469 40.7561 38.5814C40.8792 38.4026 40.9209 38.2103 40.8792 37.9896L40.5913 36.3629C40.5494 36.1556 40.4529 35.9899 40.2747 35.8531C40.0966 35.7274 39.9034 35.6723 39.6837 35.7141L38.5031 35.9215C38.2758 35.4059 38.0048 34.9417 37.6524 34.5022L38.4085 33.3986C38.5317 33.2197 38.5867 33.0258 38.5448 32.8203C38.5031 32.613 38.3933 32.4341 38.2152 32.3084L36.8831 31.3723L36.8434 31.3857ZM32.726 34.9055C34.6379 34.9055 36.1878 36.4618 36.1878 38.3814C36.1878 40.3012 34.6379 41.8574 32.726 41.8574C30.8144 41.8574 29.2645 40.3012 29.2645 38.3814C29.2645 36.4618 30.8144 34.9055 32.726 34.9055Z" fill="url(#paint0_linear_993_18201)"/>
<defs>
<linearGradient id="paint0_linear_993_18201" x1="31" y1="10" x2="31" y2="52" gradientUnits="userSpaceOnUse">
<stop offset="0.26" stop-color="#2B6FF6"/>
<stop offset="1"/>
</linearGradient>
</defs>
</svg>
