<svg width="52" height="52" viewBox="0 0 52 52" fill="none" xmlns="http://www.w3.org/2000/svg">
<rect width="52" height="52" rx="26" fill="#2B6FF6"/>
<path d="M21.1732 24.4221L21.2215 24.6097H21.4152H30.5809H30.7745L30.8229 24.4221C31.207 22.9339 32.1208 21.6369 33.3928 20.7742C34.6649 19.9115 36.2079 19.5423 37.7326 19.7359C39.2574 19.9295 40.6592 20.6726 41.6753 21.8258C42.6913 22.9791 43.2519 24.4633 43.2519 26.0003C43.2519 27.5373 42.6913 29.0215 41.6753 30.1748C40.6592 31.328 39.2574 32.0711 37.7326 32.2647C36.2079 32.4583 34.6649 32.0891 33.3928 31.2264C32.1208 30.3637 31.207 29.0667 30.8229 27.5784L30.7745 27.3909H30.5809H21.4152H21.222L21.1733 27.5779C20.7863 29.0628 19.8719 30.356 18.6009 31.2158C17.3299 32.0756 15.7893 32.4431 14.2671 32.2498C12.7448 32.0564 11.345 31.3154 10.3293 30.1652C9.31369 29.015 8.75158 27.5344 8.74805 26C8.74758 24.4633 9.3077 22.9791 10.3234 21.8259C11.3391 20.6726 12.7406 19.9295 14.2652 19.7359C15.7897 19.5422 17.3326 19.9114 18.6043 20.7742C19.8761 21.6369 20.7895 22.934 21.1732 24.4221ZM15.0605 22.469C14.124 22.469 13.2258 22.8411 12.5636 23.5033C11.9013 24.1656 11.5293 25.0637 11.5293 26.0003C11.5293 26.9368 11.9013 27.835 12.5636 28.4973C13.2258 29.1595 14.124 29.5315 15.0605 29.5315C15.9971 29.5315 16.8953 29.1595 17.5575 28.4973C18.2198 27.835 18.5918 26.9368 18.5918 26.0003C18.5918 25.0637 18.2198 24.1656 17.5575 23.5033C16.8953 22.8411 15.9971 22.469 15.0605 22.469ZM36.9355 22.469C35.999 22.469 35.1008 22.8411 34.4386 23.5033C33.7763 24.1656 33.4043 25.0637 33.4043 26.0003C33.4043 26.9368 33.7763 27.835 34.4386 28.4973C35.1008 29.1595 35.999 29.5315 36.9355 29.5315C37.8721 29.5315 38.7703 29.1595 39.4325 28.4973C40.0948 27.835 40.4668 26.9368 40.4668 26.0003C40.4668 25.0637 40.0948 24.1656 39.4325 23.5033C38.7703 22.8411 37.8721 22.469 36.9355 22.469Z" fill="white" stroke="#2B6FF6" stroke-width="0.5"/>
</svg>
