<svg width="24" height="24" viewBox="0 0 24 24" fill="none" xmlns="http://www.w3.org/2000/svg">
<path d="M6.33314 15.8884C7.50479 16.3529 8.33333 17.4964 8.33333 18.8333C8.33333 20.5823 6.91556 22 5.16667 22C3.41777 22 2 20.5823 2 18.8333C2 17.4546 2.88119 16.2815 4.11111 15.8469V9.15314C2.88119 8.71843 2 7.54545 2 6.16667C2 4.41777 3.41777 3 5.16667 3C6.91556 3 8.33333 4.41777 8.33333 6.16667C8.33333 7.54545 7.45215 8.71843 6.22222 9.15314V12.4996C7.10431 11.837 8.20075 11.4444 9.38889 11.4444H13.6111C15.0715 11.4444 16.3009 10.4559 16.6668 9.11157C15.4952 8.6471 14.6667 7.50364 14.6667 6.16667C14.6667 4.41777 16.0844 3 17.8333 3C19.5823 3 21 4.41777 21 6.16667C21 7.57393 20.082 8.76681 18.8123 9.17914C18.3845 11.6645 16.2187 13.5556 13.6111 13.5556H9.38889C7.92856 13.5556 6.69911 14.5441 6.33314 15.8884ZM5.16667 17.7778C4.5837 17.7778 4.11111 18.2504 4.11111 18.8333C4.11111 19.4163 4.5837 19.8889 5.16667 19.8889C5.74963 19.8889 6.22222 19.4163 6.22222 18.8333C6.22222 18.2504 5.74963 17.7778 5.16667 17.7778ZM5.16667 5.11111C4.5837 5.11111 4.11111 5.5837 4.11111 6.16667C4.11111 6.74963 4.5837 7.22222 5.16667 7.22222C5.74963 7.22222 6.22222 6.74963 6.22222 6.16667C6.22222 5.5837 5.74963 5.11111 5.16667 5.11111ZM17.8333 5.11111C17.2504 5.11111 16.7778 5.5837 16.7778 6.16667C16.7778 6.74963 17.2504 7.22222 17.8333 7.22222C18.4163 7.22222 18.8889 6.74963 18.8889 6.16667C18.8889 5.5837 18.4163 5.11111 17.8333 5.11111Z" fill="black"/>
</svg>
