<svg width="42" height="42" viewBox="0 0 42 42" fill="none" xmlns="http://www.w3.org/2000/svg">
<path d="M7 8.5C7 6.56771 8.56771 5 10.5 5H31.5C33.4323 5 35 6.56771 35 8.5V30.6667H7V8.5ZM29.8229 11.9271C29.1375 11.2417 28.0292 11.2417 27.351 11.9271L19.2573 20.0208L15.8302 16.5937C15.1448 15.9083 14.0365 15.9083 13.3583 16.5937C12.6802 17.2792 12.6729 18.3875 13.3583 19.0656L18.025 23.7323C18.7104 24.4177 19.8187 24.4177 20.4969 23.7323L29.8229 14.4062C30.5083 13.7208 30.5083 12.6125 29.8229 11.9344V11.9271ZM0 27.1667C0 25.2344 1.56771 23.6667 3.5 23.6667H4.66667V33H37.3333V23.6667H38.5C40.4323 23.6667 42 25.2344 42 27.1667V34.1667C42 36.099 40.4323 37.6667 38.5 37.6667H3.5C1.56771 37.6667 0 36.099 0 34.1667V27.1667Z" fill="#2B6FF6"/>
</svg>
