<svg width="62" height="62" viewBox="0 0 62 62" fill="none" xmlns="http://www.w3.org/2000/svg">
<path fill-rule="evenodd" clip-rule="evenodd" d="M55.0067 34.7842C57.4945 37.6703 59 41.4595 59 45.6069C59 54.6587 51.8229 62 42.9626 62C36.8172 62 31.4763 58.4631 28.7862 53.2762H21.4758V56.7778H10.567V53.2762H3.00494V49.2095H10.567V45.6725H14.0322V37.6652H6.57373C5.59145 37.6652 4.69802 37.2565 4.05139 36.5955C3.39982 35.9346 3 35.0213 3 34.0173V21.1864C3 20.2933 3.31591 19.4709 3.84407 18.8351C3.31591 18.1994 3 17.377 3 16.4788V3.65299C3 2.64893 3.39982 1.73568 4.04645 1.07471C4.69308 0.408691 5.58651 0 6.57373 0H51.5218C52.5041 0 53.3975 0.408691 54.0442 1.06966C54.6908 1.73063 55.0906 2.64388 55.0906 3.64795V16.4788C55.0906 17.3719 54.7698 18.1943 54.2465 18.8301C54.7747 19.4658 55.0906 20.2882 55.0906 21.1813V34.0122C55.0906 34.2746 55.061 34.5319 55.0067 34.7842ZM35.0056 44.512H40.2675V52.9987H46.2007V44.5171H51.6156L43.318 36.2575L35.0056 44.512ZM27.3201 49.2095C27.0635 48.049 26.9302 46.8431 26.9302 45.6069C26.9302 42.7259 27.6607 40.0164 28.9342 37.6652H18.0057V45.6776H21.4709V49.2145H27.3201V49.2095ZM16.0214 48.6948C17.3887 48.6948 18.4993 49.8301 18.4993 51.2277C18.4993 52.6253 17.3887 53.7606 16.0214 53.7606C14.6541 53.7606 13.5435 52.6253 13.5435 51.2277C13.5435 49.8301 14.6492 48.6948 16.0214 48.6948ZM9.99445 6.57438H12.6353V13.5625H9.99445V6.57438ZM46.2846 25.46C47.4397 25.46 48.3775 26.4186 48.3775 27.5993C48.3775 28.6084 47.6963 29.451 46.7782 29.6781C47.6075 29.8849 48.4121 30.1574 49.187 30.4904C50.3964 31.0101 51.5317 31.6711 52.5732 32.4632V21.1864C52.5732 20.8937 52.4547 20.6213 52.2622 20.4295C52.1142 20.2782 51.9216 20.1722 51.7094 20.1318C51.6452 20.1369 51.5811 20.1369 51.5218 20.1369H6.57373C6.50956 20.1369 6.44539 20.1369 6.38616 20.1318C6.17391 20.1722 5.9814 20.2782 5.83332 20.4295C5.63587 20.6213 5.51741 20.8887 5.51741 21.1864V34.0173C5.51741 34.3099 5.63588 34.5824 5.82838 34.7741C6.02089 34.9709 6.2825 35.092 6.5688 35.092H30.5434C31.9946 33.3361 33.7914 31.8931 35.825 30.8789C37.9722 29.8092 40.3811 29.2088 42.9281 29.2088C43.6586 29.2088 44.3793 29.2593 45.0852 29.3551C44.5422 28.9666 44.1917 28.3258 44.1917 27.5993C44.1917 26.4186 45.1296 25.46 46.2846 25.46ZM38.3128 25.46C39.4679 25.46 40.4057 26.4186 40.4057 27.5993C40.4057 28.7799 39.4679 29.7386 38.3128 29.7386C37.1578 29.7386 36.2199 28.7799 36.2199 27.5993C36.2199 26.4186 37.1578 25.46 38.3128 25.46ZM24.5954 24.1077H27.2362V31.0959H24.5954V24.1077ZM17.2949 24.1077H19.9357V31.0959H17.2949V24.1077ZM9.99445 24.1077H12.6353V31.0959H9.99445V24.1077ZM46.2846 7.9266C47.4397 7.9266 48.3775 8.88525 48.3775 10.0659C48.3775 11.2466 47.4397 12.2052 46.2846 12.2052C45.1296 12.2052 44.1917 11.2466 44.1917 10.0659C44.1917 8.88525 45.1296 7.9266 46.2846 7.9266ZM38.3128 7.9266C39.4679 7.9266 40.4057 8.88525 40.4057 10.0659C40.4057 11.2466 39.4679 12.2052 38.3128 12.2052C37.1578 12.2052 36.2199 11.2466 36.2199 10.0659C36.2199 8.88525 37.1578 7.9266 38.3128 7.9266ZM24.5954 6.57438H27.2362V13.5625H24.5954V6.57438ZM17.2949 6.57438H19.9357V13.5625H17.2949V6.57438ZM6.38123 17.5384C6.44539 17.5334 6.50956 17.5334 6.5688 17.5334H51.5169C51.5811 17.5334 51.6452 17.5334 51.7045 17.5384C51.9167 17.498 52.1092 17.3921 52.2573 17.2407C52.4498 17.0439 52.5683 16.7765 52.5683 16.4839V3.65299C52.5683 3.36035 52.4498 3.08789 52.2573 2.89111C52.0648 2.69434 51.8032 2.57324 51.5169 2.57324H6.57373C6.28744 2.57324 6.02089 2.69434 5.82838 2.89111C5.63588 3.08789 5.51741 3.35531 5.51741 3.65299V16.4839C5.51741 16.7765 5.63588 17.049 5.82838 17.2407C5.97647 17.3921 6.16897 17.498 6.38123 17.5384ZM51.354 34.7388C50.4013 33.9819 49.3499 33.3462 48.2245 32.8618C46.6005 32.1655 44.8087 31.7821 42.933 31.7821C41.7632 31.7821 40.6279 31.9334 39.5419 32.216C33.7223 33.77 29.4279 39.1789 29.4279 45.612C29.4279 53.256 35.4894 59.457 42.9725 59.457C50.4556 59.457 56.5171 53.2611 56.5171 45.612C56.5073 41.2022 54.4933 37.2767 51.354 34.7388Z" fill="url(#paint0_linear_987_18115)"/>
<defs>
<linearGradient id="paint0_linear_987_18115" x1="31" y1="0" x2="31" y2="62" gradientUnits="userSpaceOnUse">
<stop stop-color="#2B6FF6"/>
<stop offset="1"/>
</linearGradient>
</defs>
</svg>
