<svg width="62" height="62" viewBox="0 0 62 62" fill="none" xmlns="http://www.w3.org/2000/svg">
<path d="M10.0911 25.0192H51.9694C52.9249 25.0192 53.8412 25.3107 54.5168 25.8295C55.1924 26.3484 55.5719 27.0521 55.5719 27.7858V29.5566H57.4338V12.7631C57.4363 12.2994 57.6756 11.855 58.1001 11.5254C58.5247 11.1957 59.1006 11.0071 59.7043 11C60.3123 11.002 60.8947 11.1884 61.3247 11.5186C61.7546 11.8488 61.9973 12.2961 62 12.7631V33.7415C62 33.8237 61.9575 33.9025 61.8818 33.9606C61.8061 34.0188 61.7034 34.0514 61.5964 34.0514H57.8122C57.7051 34.0514 57.6025 34.0188 57.5268 33.9606C57.4511 33.9025 57.4085 33.8237 57.4085 33.7415V33.2145H55.5467V48.2334C55.5454 48.9668 55.1654 49.6699 54.4901 50.1885C53.8148 50.7072 52.8992 50.999 51.9442 51H10.0911C9.1361 50.999 8.22056 50.7072 7.54524 50.1885C6.86992 49.6699 6.48994 48.9668 6.48861 48.2334V33.2145H4.59147V33.7415C4.59147 33.7822 4.58103 33.8225 4.56075 33.8601C4.54046 33.8977 4.51073 33.9319 4.47325 33.9606C4.43576 33.9894 4.39127 34.0123 4.34229 34.0278C4.29332 34.0434 4.24083 34.0514 4.18783 34.0514H0.403646C0.296592 34.0514 0.193923 34.0188 0.118225 33.9606C0.0425268 33.9025 0 33.8237 0 33.7415L0 12.7631C0.00265527 12.2961 0.245379 11.8488 0.675339 11.5186C1.1053 11.1884 1.68769 11.002 2.29574 11C2.90378 11.002 3.48617 11.1884 3.91613 11.5186C4.34609 11.8488 4.58882 12.2961 4.59147 12.7631V29.5566H6.50374V27.7858C6.50374 27.0541 6.88121 26.3521 7.55355 25.8336C8.22588 25.3151 9.13832 25.0223 10.0911 25.0192ZM19.703 16.4248C19.485 16.5704 19.201 16.6439 18.9127 16.6294C18.6245 16.6149 18.3554 16.5135 18.1641 16.3473C17.9864 16.1782 17.9004 15.9631 17.9239 15.7467C17.9474 15.5302 18.0786 15.329 18.2902 15.1848C20.1082 13.9582 22.1802 12.9734 24.4206 12.2709C28.6742 10.9653 33.4256 10.9959 37.6501 12.3562C39.8817 13.0774 41.9441 14.0748 43.7552 15.3088C43.7777 15.321 43.7981 15.3353 43.8158 15.3514C44.0164 15.4946 44.1375 15.6917 44.1538 15.9017C44.1678 16.1147 44.0758 16.3239 43.8965 16.4868C43.8793 16.5067 43.8589 16.5249 43.8359 16.541C43.6447 16.6923 43.3881 16.7846 43.1144 16.8006C42.8247 16.8143 42.5398 16.739 42.3223 16.5914C40.6934 15.4794 38.8392 14.5789 36.8327 13.9255C34.991 13.3249 33.0133 13.0089 31.0126 12.9956C29.0118 12.9823 27.0273 13.272 25.1724 13.848C23.1768 14.4696 21.3287 15.3402 19.703 16.4248ZM26.8879 22.1595C26.6687 22.2978 26.3881 22.3651 26.1054 22.347C25.8228 22.3289 25.5605 22.2269 25.3742 22.0627C25.353 22.0477 25.3344 22.0308 25.3187 22.0123C25.1545 21.8428 25.0789 21.6322 25.107 21.422C25.135 21.2119 25.2645 21.0174 25.4701 20.877L25.5356 20.8382C26.3368 20.3318 27.2356 19.9239 28.1997 19.6293C30.0268 19.0763 32.059 19.0763 33.8861 19.6293C34.8521 19.9243 35.7513 20.335 36.5501 20.846C36.7758 20.987 36.9194 21.191 36.9497 21.4132C36.98 21.6354 36.8943 21.8578 36.7116 22.0317C36.5263 22.2046 36.2599 22.3145 35.9699 22.3378C35.6819 22.3585 35.3946 22.2933 35.1676 22.1557C34.5629 21.763 33.8819 21.4453 33.1494 21.2141C32.4904 21.0097 31.7864 20.9045 31.0757 20.9041C30.359 20.9075 29.6498 21.0167 28.9868 21.2257C28.2356 21.4576 27.536 21.7779 26.9131 22.175L26.8879 22.1595ZM23.4115 19.4472L23.356 19.482C23.1434 19.6153 22.873 19.6818 22.5991 19.668C22.319 19.656 22.0563 19.56 21.8675 19.4007C21.8481 19.3884 21.8311 19.374 21.8171 19.358C21.6434 19.1964 21.5567 18.9898 21.5749 18.7807C21.583 18.6699 21.6198 18.5614 21.683 18.4617C21.7463 18.3619 21.8347 18.2727 21.9432 18.1995C23.2717 17.2726 24.7886 16.5187 26.4338 15.9675C27.9044 15.4725 29.4967 15.2266 31.1023 15.2467C32.7078 15.2667 34.2889 15.5522 35.7378 16.0838C37.3605 16.6781 38.8465 17.4712 40.1375 18.4319L40.1678 18.4513C40.3635 18.6017 40.4756 18.8045 40.4806 19.017C40.4854 19.1279 40.4615 19.2384 40.4104 19.3421C40.3593 19.4459 40.282 19.5408 40.1829 19.6215V19.6409C39.9862 19.7906 39.7231 19.8778 39.4463 19.885C39.3027 19.889 39.1594 19.8708 39.0251 19.8316C38.8908 19.7923 38.7681 19.7327 38.6642 19.6564C37.5563 18.8312 36.2839 18.1471 34.8952 17.6299C33.7071 17.1834 32.4051 16.9445 31.0825 16.9304C29.76 16.9164 28.4498 17.1274 27.2461 17.5485C25.8478 18.0256 24.5583 18.6718 23.4266 19.4627L23.4115 19.4472ZM38.1496 44.7731C38.5028 44.7731 38.8482 44.8536 39.1419 45.0043C39.4356 45.155 39.6646 45.3693 39.7997 45.6199C39.9349 45.8705 39.9703 46.1463 39.9014 46.4124C39.8325 46.6785 39.6624 46.9229 39.4126 47.1148C39.1628 47.3066 38.8445 47.4372 38.498 47.4902C38.1516 47.5431 37.7924 47.5159 37.4661 47.4121C37.1397 47.3083 36.8607 47.1325 36.6645 46.9069C36.4682 46.6813 36.3634 46.4161 36.3634 46.1448C36.3648 45.7813 36.5534 45.433 36.8881 45.176C37.2227 44.919 37.6763 44.7742 38.1496 44.7731ZM31.1665 44.7731C31.5198 44.7731 31.8651 44.8536 32.1588 45.0043C32.4526 45.155 32.6815 45.3693 32.8167 45.6199C32.9519 45.8705 32.9872 46.1463 32.9183 46.4124C32.8494 46.6785 32.6793 46.9229 32.4295 47.1148C32.1797 47.3066 31.8614 47.4372 31.515 47.4902C31.1685 47.5431 30.8094 47.5159 30.483 47.4121C30.1566 47.3083 29.8777 47.1325 29.6814 46.9069C29.4851 46.6813 29.3804 46.4161 29.3804 46.1448C29.3817 45.7813 29.5703 45.433 29.905 45.176C30.2397 44.919 30.6932 44.7742 31.1665 44.7731ZM24.1834 44.7731C24.5367 44.7731 24.882 44.8536 25.1758 45.0043C25.4695 45.155 25.6984 45.3693 25.8336 45.6199C25.9688 45.8705 26.0042 46.1463 25.9352 46.4124C25.8663 46.6785 25.6962 46.9229 25.4464 47.1148C25.1966 47.3066 24.8784 47.4372 24.5319 47.4902C24.1854 47.5431 23.8263 47.5159 23.4999 47.4121C23.1735 47.3083 22.8946 47.1325 22.6983 46.9069C22.5021 46.6813 22.3973 46.4161 22.3973 46.1448C22.3973 45.781 22.5855 45.4321 22.9204 45.1749C23.2554 44.9176 23.7097 44.7731 24.1834 44.7731ZM51.9341 26.7125H10.0911C9.72047 26.7125 9.36498 26.8256 9.10288 27.0269C8.84077 27.2281 8.69352 27.5012 8.69352 27.7858V48.2334C8.69485 48.5177 8.84253 48.7901 9.10435 48.9912C9.36616 49.1923 9.72088 49.3057 10.0911 49.3067H51.9694C52.3397 49.3057 52.6944 49.1923 52.9562 48.9912C53.218 48.7901 53.3657 48.5177 53.367 48.2334V27.7858C53.367 27.5012 53.2198 27.2281 52.9577 27.0269C52.6956 26.8256 52.3401 26.7125 51.9694 26.7125H51.9341Z" fill="url(#paint0_linear_993_18198)"/>
<defs>
<linearGradient id="paint0_linear_993_18198" x1="31" y1="11" x2="31" y2="51" gradientUnits="userSpaceOnUse">
<stop offset="0.205" stop-color="#2B6FF6"/>
<stop offset="1"/>
</linearGradient>
</defs>
</svg>
